<?xml version="1.0" encoding="UTF-8" standalone="no"?>
<svg
   viewBox="0 0 24 24"
   fill="none"
   width="32"
   height="32"
   version="1.1"
   id="svg1"
   sodipodi:docname="calendar.svg"
   inkscape:version="1.4.3 (0d15f75, 2025-12-25)"
   xmlns:inkscape="http://www.inkscape.org/namespaces/inkscape"
   xmlns:sodipodi="http://sodipodi.sourceforge.net/DTD/sodipodi-0.dtd"
   xmlns="http://www.w3.org/2000/svg"
   xmlns:svg="http://www.w3.org/2000/svg">
  <defs
     id="defs1" />
  <sodipodi:namedview
     id="namedview1"
     pagecolor="#ffffff"
     bordercolor="#000000"
     borderopacity="0.25"
     inkscape:showpageshadow="2"
     inkscape:pageopacity="0.0"
     inkscape:pagecheckerboard="0"
     inkscape:deskcolor="#d1d1d1"
     inkscape:zoom="0.8125"
     inkscape:cx="16"
     inkscape:cy="16"
     inkscape:window-width="1083"
     inkscape:window-height="245"
     inkscape:window-x="0"
     inkscape:window-y="157"
     inkscape:window-maximized="0"
     inkscape:current-layer="svg1" />
  <path
     style="baseline-shift:baseline;display:inline;overflow:visible;vector-effect:none;fill:currentColor;stroke-linecap:round;stroke-linejoin:round;enable-background:accumulate;stop-color:#000000;stop-opacity:1;opacity:1"
     d="M 8,1.25 A 0.75,0.75 0 0 0 7.25,2 V 3.2597656 C 5.9556791,3.2590036 5.0567893,3.2710234 4.296875,3.6582031 3.5913321,4.0176613 3.0176613,4.5913321 2.6582031,5.296875 2.2110322,6.1745334 2.25,7.1205812 2.25,8.8007813 V 10 17.199219 c 0,1.6802 -0.038968,2.626248 0.4082031,3.503906 0.3594582,0.705543 0.933129,1.279214 1.6386719,1.638672 C 5.1745334,22.788968 6.1205812,22.75 7.8007812,22.75 h 8.3984378 c 1.6802,0 2.626248,0.03897 3.503906,-0.408203 0.705543,-0.359458 1.279214,-0.933129 1.638672,-1.638672 C 21.788968,19.825467 21.75,18.879419 21.75,17.199219 V 10 8.8007813 C 21.75,7.1205812 21.788968,6.1745334 21.341797,5.296875 20.982339,4.5913321 20.408668,4.0176613 19.703125,3.6582031 18.943211,3.2710234 18.044321,3.2590036 16.75,3.2597656 V 2 A 0.75,0.75 0 0 0 16,1.25 0.75,0.75 0 0 0 15.25,2 V 3.25 H 8.75 V 2 A 0.75,0.75 0 0 0 8,1.25 Z m 0.75,3.5 h 6.5 V 6 A 0.75,0.75 0 0 0 16,6.75 0.75,0.75 0 0 0 16.75,6 V 4.7988281 c 1.074291,0.016059 1.944775,0.030806 2.271484,0.1972656 0.423458,0.2157419 0.76668,0.5589648 0.982422,0.9824219 C 20.210735,6.3844573 20.25,7.1205812 20.25,8.8007813 V 9.25 H 3.75 V 8.8007813 C 3.75,7.1205812 3.7892647,6.3844573 3.9960938,5.9785156 4.2118356,5.5550585 4.5550585,5.2118356 4.9785156,4.9960937 5.3052254,4.8296336 6.1757092,4.8148869 7.25,4.7988281 V 6 A 0.75,0.75 0 0 0 8,6.75 0.75,0.75 0 0 0 8.75,6 Z m -5,6 h 16.5 v 6.449219 c 0,1.6802 -0.03927,2.416324 -0.246094,2.822265 -0.215742,0.423458 -0.558964,0.76668 -0.982422,0.982422 C 18.615543,21.210735 17.879419,21.25 16.199219,21.25 H 7.8007812 c -1.6802,0 -2.4163239,-0.03927 -2.8222656,-0.246094 C 4.5550585,20.788164 4.2118356,20.444942 3.9960938,20.021484 3.7892647,19.615543 3.75,18.879419 3.75,17.199219 Z"
     id="path1" />
</svg>
