<?xml version="1.0" encoding="UTF-8" standalone="no"?>
<svg
   viewBox="0 0 24 24"
   stroke-width="1.5"
   stroke="currentColor"
   stroke-linecap="round"
   stroke-linejoin="round"
   fill="none"
   width="32"
   height="32"
   version="1.1"
   id="svg2"
   sodipodi:docname="eye.svg"
   inkscape:version="1.4.3 (0d15f75, 2025-12-25)"
   xmlns:inkscape="http://www.inkscape.org/namespaces/inkscape"
   xmlns:sodipodi="http://sodipodi.sourceforge.net/DTD/sodipodi-0.dtd"
   xmlns="http://www.w3.org/2000/svg"
   xmlns:svg="http://www.w3.org/2000/svg">
  <defs
     id="defs2" />
  <sodipodi:namedview
     id="namedview2"
     pagecolor="#ffffff"
     bordercolor="#000000"
     borderopacity="0.25"
     inkscape:showpageshadow="2"
     inkscape:pageopacity="0.0"
     inkscape:pagecheckerboard="0"
     inkscape:deskcolor="#d1d1d1"
     inkscape:zoom="4.5803713"
     inkscape:cx="22.378098"
     inkscape:cy="22.378098"
     inkscape:window-width="1083"
     inkscape:window-height="602"
     inkscape:window-x="0"
     inkscape:window-y="157"
     inkscape:window-maximized="0"
     inkscape:current-layer="svg2" />
  <path
     style="baseline-shift:baseline;display:inline;overflow:visible;vector-effect:none;fill:#000000;stroke:none;stroke-linecap:butt;stroke-linejoin:miter;enable-background:accumulate;stop-color:#000000;stop-opacity:1;opacity:1"
     d="m 12,4.25 c -5.5462145,0 -9.0353612,4.7690824 -10.2148438,6.636719 -0.136172,0.215656 -0.272102,0.4355 -0.3378906,0.722656 -0.066899,0.292157 -0.066899,0.489093 0,0.78125 0.065789,0.287156 0.2017186,0.507 0.3378906,0.722656 C 2.9646388,14.980918 6.4537855,19.75 12,19.75 c 5.546214,0 9.035361,-4.769082 10.214844,-6.636719 0.136172,-0.215656 0.274055,-0.4355 0.339843,-0.722656 0.0669,-0.292157 0.0669,-0.489093 0,-0.78125 -0.06579,-0.287156 -0.203671,-0.507 -0.339843,-0.722656 C 21.035361,9.0190824 17.546214,4.25 12,4.25 Z m 0,1.5 c 4.663786,0 7.875948,4.2411364 8.947266,5.9375 0.136228,0.215744 0.134119,0.210415 0.144531,0.255859 -0.0097,-0.04236 -0.0097,0.155639 0,0.113282 -0.01041,0.04544 -0.0083,0.04011 -0.144531,0.255859 C 19.875948,14.008864 16.663786,18.25 12,18.25 7.3362145,18.25 4.1260049,14.008864 3.0546875,12.3125 2.9184596,12.096756 2.9186146,12.102085 2.9082031,12.056641 c 0.0097,0.04236 0.0097,-0.155639 0,-0.113282 0.010412,-0.04544 0.010256,-0.04011 0.1464844,-0.255859 C 4.1260049,9.9911364 7.3362145,5.75 12,5.75 Z"
     id="path1" />
  <path
     style="baseline-shift:baseline;display:inline;overflow:visible;vector-effect:none;fill:#000000;stroke:none;stroke-linecap:butt;stroke-linejoin:miter;enable-background:accumulate;stop-color:#000000;stop-opacity:1;opacity:1"
     d="m 12,8.25 c -2.0622051,0 -3.75,1.6877949 -3.75,3.75 0,2.062205 1.6877949,3.75 3.75,3.75 2.062205,0 3.75,-1.687795 3.75,-3.75 0,-2.0622051 -1.687795,-3.75 -3.75,-3.75 z m 0,1.5 c 1.251595,0 2.25,0.998405 2.25,2.25 0,1.251595 -0.998405,2.25 -2.25,2.25 -1.251595,0 -2.25,-0.998405 -2.25,-2.25 0,-1.251595 0.998405,-2.25 2.25,-2.25 z"
     id="path2" />
</svg>
