<svg width="24" height="24" viewBox="0 0 24 24" fill="none" xmlns="http://www.w3.org/2000/svg">
<path d="M15.5209 8.66667H17.3333C17.7936 8.66667 18.1667 8.29356 18.1667 7.83333C18.1667 7.37311 17.7936 7 17.3333 7H15.5209C13.5794 7 12 8.57944 12 10.5209V12H10.8333C10.3731 12 10 12.3731 10 12.8333C10 13.2936 10.3731 13.6667 10.8333 13.6667H12V20.6667C12 21.1269 12.3731 21.5 12.8333 21.5C13.2936 21.5 13.6667 21.1269 13.6667 20.6667V13.6667H17C17.4602 13.6667 17.8333 13.2936 17.8333 12.8333C17.8333 12.3731 17.4602 12 17 12H13.6667V10.5209C13.6667 9.49844 14.4984 8.66667 15.5209 8.66667Z" fill="#212121"/>
<path d="M17 22H7C4.243 22 2 19.757 2 17V7C2 4.243 4.243 2 7 2H17C19.757 2 22 4.243 22 7V17C22 19.757 19.757 22 17 22ZM7 3.66667C5.162 3.66667 3.66667 5.162 3.66667 7V17C3.66667 18.838 5.162 20.3333 7 20.3333H17C18.838 20.3333 20.3333 18.838 20.3333 17V7C20.3333 5.162 18.838 3.66667 17 3.66667H7Z" fill="#212121"/>
</svg>
