<svg viewBox="0 0 24 24" fill="none" width="32" height="32" xmlns="http://www.w3.org/2000/svg" xmlns:xlink="http://www.w3.org/1999/xlink">
    <path fill="currentColor" clip-rule="evenodd" d="M4.6644 22.5001c-0.8385 0-1.635-0.333-2.235-0.9255-0.6-0.5925-0.9255-1.3965-0.9255-2.235l0-14.685c0-0.8385 0.333-1.635 0.9255-2.235 0.5925-0.6 1.3965-0.9255 2.235-0.9255l14.685 0c0.8385 0 1.635 0.333 2.235 0.9255 0.6 0.5925 0.9255 1.3965 0.9255 2.235v14.685c0 0.8385-0.333 1.635-0.9255 2.235s-1.3965 0.9255-2.235 0.9255zM17.4894 13.6351h-2.22v7.335h4.08c0.2143 6e-4 0.4266-0.0411 0.6247-0.1229 0.1981-0.0817 0.378-0.2018 0.5296-0.3533 0.1515-0.1515 0.2716-0.3315 0.3533-0.5296s0.1235-0.4104 0.1229-0.6247V4.6546c2e-4-0.2141-0.0418-0.4263-0.1237-0.6242-0.0819-0.1979-0.202-0.3777-0.3534-0.5291-0.1515-0.1515-0.3313-0.2716-0.5292-0.3535-0.1979-0.0818-0.41-0.1239-0.6242-0.1237l-14.685 0C4.2323 3.0253 3.8183 3.1975 3.5128 3.503 3.2073 3.8085 3.0351 4.2226 3.0339 4.6546l0 14.685c12e-4 0.4321 0.1734 0.8461 0.4789 1.1517 0.3055 0.3055 0.7195 0.4777 1.1516 0.4788h8.16v-7.335h-2.445v-2.445h2.445v-1.314c0-2.49 1.212-3.585 3.285-3.585 0.9705 0 1.4925 0.0705 1.74 0.105l0.015 15e-4v2.34l-1.41 0c-0.711 0-1.047 0.3045-1.149 0.918-0.0245 0.1598-0.036 0.3214-0.0345 0.483v1.0455h2.565l-0.3495 2.445z" fill-rule="evenodd" />
</svg>