<svg viewBox="0 0 24 24" fill="currentColor" width="32" height="32" xmlns="http://www.w3.org/2000/svg" xmlns:xlink="http://www.w3.org/1999/xlink">
    <path d="M1.9998 6.5919c-9e-4-0.815 0.4824-1.5191 1.2324-1.7941l6.5845-2.4165c1.3807-0.5058 2.8998-0.5091 4.2797-58e-4l6.6654 2.4248c0.7516 0.2742 1.2374 0.9783 1.2365 1.7932 0 0.8158-0.4866 1.5191-1.2382 1.7916l-6.6279 2.4048c-0.6858 0.2492-1.4065 0.3733-2.1265 0.3733-0.7199 0-1.4399-0.1241-2.1248-0.3733L3.668 8.5359l0 3.4614c0 0.46-0.3733 0.8333-0.8333 0.8333s-0.8333-0.3733-0.8333-0.8333c0 0-16e-4-5.4013-16e-4-5.4054zM20.1643 15.3654c-1.7391 0.4358-5.043 1.3766-7.3303 1.5866v3.4247c2.2873 0.21 5.5921 1.1516 7.3303 1.5866C21.0984 22.1974 22 21.4875 22 20.5242v-3.7197c0-0.9633-0.9016-1.6733-1.8357-1.4391zM2.0014 16.8045l0 3.7197c0 0.9633 0.9016 1.6732 1.8357 1.4391 1.7391-0.4358 5.043-1.3766 7.3303-1.5866V16.952c-2.2873-0.21-5.5921-1.1516-7.3303-1.5866-0.9341-0.2342-1.8357 0.4758-1.8357 1.4391zM17.8336 14.2455v-3.0256l-3.1323 1.1366c-1.7282 0.6274-3.6572 0.6282-5.3887 0l-3.144-1.1408 0 3.029c1.6282 0.4174 3.7498 1.1099 5.8329 1.1099 2.0832 0 4.2047-0.6925 5.833-1.1099z" />
    <circle transform="matrix(-1, 0, 0, 1, 4.30859, 10.3027)" cx="1.51504" cy="1.51504" r="1.51504" />
</svg>