<?xml version="1.0" encoding="UTF-8" standalone="no"?>
<svg
   width="24"
   height="24"
   viewBox="0 0 24 24"
   fill="none"
   version="1.1"
   id="svg10"
   sodipodi:docname="human-foregion.svg"
   inkscape:version="1.4.3 (0d15f75, 2025-12-25)"
   xmlns:inkscape="http://www.inkscape.org/namespaces/inkscape"
   xmlns:sodipodi="http://sodipodi.sourceforge.net/DTD/sodipodi-0.dtd"
   xmlns="http://www.w3.org/2000/svg"
   xmlns:svg="http://www.w3.org/2000/svg">
  <sodipodi:namedview
     id="namedview10"
     pagecolor="#ffffff"
     bordercolor="#000000"
     borderopacity="0.25"
     inkscape:showpageshadow="2"
     inkscape:pageopacity="0.0"
     inkscape:pagecheckerboard="0"
     inkscape:deskcolor="#d1d1d1"
     inkscape:zoom="4.8686551"
     inkscape:cx="9.7562877"
     inkscape:cy="10.167079"
     inkscape:window-width="1083"
     inkscape:window-height="606"
     inkscape:window-x="0"
     inkscape:window-y="157"
     inkscape:window-maximized="0"
     inkscape:current-layer="g10" />
  <g
     clip-path="url(#clip0_430_6317)"
     id="g10">
    <path
       style="baseline-shift:baseline;display:inline;overflow:visible;vector-effect:none;fill:#000000;stroke-linecap:round;stroke-linejoin:round;enable-background:accumulate;stop-color:#000000;stop-opacity:1;opacity:1"
       d="m 16.910156,18 c -1.54814,6.67e-4 -3.057814,0.482775 -4.320312,1.378906 -1.262513,0.896031 -2.215131,2.161783 -2.7265627,3.623047 a 0.75,0.75 0 0 0 0.4589847,0.955078 0.75,0.75 0 0 0 0.955078,-0.458984 c 0.408768,-1.167936 1.1706,-2.180315 2.179687,-2.896485 1.009102,-0.716268 2.215665,-1.101029 3.453125,-1.101562 1.23746,5.33e-4 2.44404,0.385306 3.453125,1.101562 1.009,0.716171 1.770919,1.728549 2.179688,2.896485 a 0.75,0.75 0 0 0 0.955078,0.458984 0.75,0.75 0 0 0 0.460937,-0.955078 C 23.447553,21.540689 22.492869,20.274936 21.230469,19.378906 19.967954,18.482763 18.458296,18.000667 16.910156,18 Z"
       id="path1" />
    <path
       style="baseline-shift:baseline;display:inline;overflow:visible;vector-effect:none;fill:#000000;stroke-linecap:round;stroke-linejoin:round;enable-background:accumulate;stop-color:#000000;stop-opacity:1;opacity:1"
       d="m 13.363281,10.25 a 0.75,0.75 0 0 0 -0.535156,0.210938 0.75,0.75 0 0 0 -0.01758,1.060546 c 0.709293,0.734035 1.558338,1.316439 2.498047,1.714844 0.938598,0.397935 1.947462,0.603551 2.966797,0.603516 1.031887,0.01187 2.055269,-0.184082 3.009765,-0.576172 a 0.75,0.75 0 0 0 0.408203,-0.978516 0.75,0.75 0 0 0 -0.978515,-0.408203 c -0.769309,0.316019 -1.594181,0.47288 -2.425782,0.462891 a 0.750075,0.750075 0 0 0 -0.0098,0 c -0.819351,4.45e-4 -1.630551,-0.164613 -2.384766,-0.484375 -0.754291,-0.319795 -1.436552,-0.787788 -2.005859,-1.376953 A 0.75,0.75 0 0 0 13.363281,10.25 Z"
       id="path2" />
    <path
       style="baseline-shift:baseline;display:inline;overflow:visible;vector-effect:none;fill:#000000;stroke-linecap:round;stroke-linejoin:round;enable-background:accumulate;stop-color:#000000;stop-opacity:1;opacity:1"
       d="m 16.910156,8.25 c -1.291322,0 -2.530309,0.5126957 -3.443359,1.4257813 -0.913124,0.9131237 -1.427735,2.1520227 -1.427734,3.4433597 0,1.291336 0.51461,2.532188 1.427734,3.445312 0.913042,0.913042 2.152023,1.425781 3.443359,1.425781 1.291337,0 2.530295,-0.512716 3.44336,-1.425781 0.913146,-0.913147 1.425781,-2.154022 1.425781,-3.445312 0,-1.291291 -0.512635,-2.530213 -1.425781,-3.4433597 C 19.440443,8.7626729 18.201479,8.25 16.910156,8.25 Z m 0,1.5 c 0.894078,0 1.750686,0.354177 2.382813,0.986328 0.632253,0.632253 0.986328,1.488703 0.986328,2.382813 0,0.894109 -0.354075,1.752512 -0.986328,2.384765 -0.632135,0.632135 -1.488749,0.986328 -2.382813,0.986328 -0.894063,0 -1.750654,-0.35417 -2.382812,-0.986328 -0.632276,-0.632276 -0.988281,-1.490702 -0.988281,-2.384765 0,-0.894064 0.356005,-1.750537 0.988281,-2.382813 C 15.159494,10.104154 16.016079,9.75 16.910156,9.75 Z"
       id="path3" />
    <path
       style="baseline-shift:baseline;display:inline;overflow:visible;vector-effect:none;fill:#000000;stroke-linecap:round;stroke-linejoin:round;enable-background:accumulate;stop-color:#000000;stop-opacity:1;opacity:1"
       d="m 16.78125,18 a 0.75,0.75 0 0 0 -0.75,0.75 v 4.5 a 0.75,0.75 0 0 0 0.75,0.75 0.75,0.75 0 0 0 0.75,-0.75 v -4.5 a 0.75,0.75 0 0 0 -0.75,-0.75 z"
       id="path4" />
    <path
       style="baseline-shift:baseline;display:inline;overflow:visible;vector-effect:none;fill:#000000;stroke-linecap:round;stroke-linejoin:round;enable-background:accumulate;stop-color:#000000;stop-opacity:1;opacity:1"
       d="M 13.296875,0.07226562 C 12.337669,-0.03195796 11.365585,-0.02005116 10.402344,0.109375 8.4758131,0.3682276 6.639926,1.0899194 5.0546875,2.2148438 3.4694488,3.3397576 2.1812055,4.8334079 1.3007812,6.5664062 0.42036333,8.2994024 -0.02436027,10.220504 0.00195313,12.164063 c 0.02631322,1.943652 0.52417071,3.851992 1.45117187,5.560546 0.9270204,1.708571 2.2540482,3.166469 3.8691406,4.248047 A 0.75,0.75 0 0 0 6.3632812,21.767578 0.75,0.75 0 0 0 6.1582031,20.726562 C 4.7449356,19.78014 3.5826439,18.504795 2.7714844,17.009766 1.9603255,15.51472 1.5230248,13.845279 1.5,12.144531 1.4769754,10.44389 1.8682898,8.7624976 2.6386719,7.2460937 3.4090676,5.7296721 4.5367069,4.4237793 5.9238281,3.4394531 7.3109497,2.4551174 8.9157932,1.8222065 10.601563,1.5957031 c 1.685716,-0.2265017 3.402187,-0.040305 5,0.5429688 1.597702,0.5832761 3.028519,1.5454098 4.171874,2.8046875 1.143351,1.2592821 1.963899,2.7773376 2.390625,4.4238281 A 0.75,0.75 0 0 0 23.078125,9.90625 0.75,0.75 0 0 0 23.617187,8.9921875 C 23.129514,7.110538 22.191415,5.3746848 20.884766,3.9355469 19.578121,2.4964245 17.941132,1.3970526 16.115234,0.73046875 15.20224,0.39718461 14.256081,0.17648921 13.296875,0.07226562 Z"
       id="path5" />
    <path
       style="baseline-shift:baseline;display:inline;overflow:visible;vector-effect:none;fill:#000000;stroke-linecap:round;stroke-linejoin:round;enable-background:accumulate;stop-color:#000000;stop-opacity:1;opacity:1"
       d="M 9.1074219,0.3515625 A 0.75,0.75 0 0 0 8.6464844,0.69335937 C 7.4096486,2.7593951 6.6317271,5.0666051 6.359375,7.4589844 5.7301429,11.531436 6.045252,15.69508 7.2851562,19.625 a 0.75,0.75 0 0 0 0.9414063,0.490234 0.75,0.75 0 0 0 0.4882813,-0.941406 C 7.5427841,15.458944 7.244719,11.52323 7.8417969,7.6738281 a 0.750075,0.750075 0 0 0 0.00391,-0.03125 C 8.0923451,5.4574045 8.8040619,3.351637 9.9335938,1.4648437 A 0.75,0.75 0 0 0 9.6757813,0.43554688 0.75,0.75 0 0 0 9.1074219,0.3515625 Z"
       id="path6" />
    <path
       style="baseline-shift:baseline;display:inline;overflow:visible;vector-effect:none;fill:#000000;stroke-linecap:round;stroke-linejoin:round;enable-background:accumulate;stop-color:#000000;stop-opacity:1;opacity:1"
       d="M 0.77148437,10.5 A 0.75,0.75 0 0 0 0.02148438,11.25 0.75,0.75 0 0 0 0.77148437,12 H 9.75 A 0.75,0.75 0 0 0 10.5,11.25 0.75,0.75 0 0 0 9.75,10.5 Z"
       id="path7" />
    <path
       style="baseline-shift:baseline;display:inline;overflow:visible;vector-effect:none;fill:#000000;stroke-linecap:round;stroke-linejoin:round;enable-background:accumulate;stop-color:#000000;stop-opacity:1;opacity:1"
       d="M 2.4804688,5.25 A 0.75,0.75 0 0 0 1.7304687,6 0.75,0.75 0 0 0 2.4804688,6.75 H 21.519531 a 0.75,0.75 0 0 0 0.75,-0.75 0.75,0.75 0 0 0 -0.75,-0.75 z"
       id="path8" />
    <path
       style="baseline-shift:baseline;display:inline;overflow:visible;vector-effect:none;fill:#000000;stroke-linecap:round;stroke-linejoin:round;enable-background:accumulate;stop-color:#000000;stop-opacity:1;opacity:1"
       d="M 1.6914062,15.75 A 0.75,0.75 0 0 0 0.94140625,16.5 0.75,0.75 0 0 0 1.6914062,17.25 H 9.75 A 0.75,0.75 0 0 0 10.5,16.5 0.75,0.75 0 0 0 9.75,15.75 Z"
       id="path9" />
    <path
       style="baseline-shift:baseline;display:inline;overflow:visible;vector-effect:none;fill:#000000;stroke-linecap:round;stroke-linejoin:round;enable-background:accumulate;stop-color:#000000;stop-opacity:1;opacity:1"
       d="M 14.3125,0.44335938 A 0.75,0.75 0 0 0 14.074219,1.4765625 c 0.890456,1.4277145 1.506412,3.008639 1.818359,4.6621094 A 0.75,0.75 0 0 0 16.769531,6.7363281 0.75,0.75 0 0 0 17.367187,5.859375 C 17.020734,4.0230053 16.334647,2.2672661 15.345703,0.68164062 A 0.75,0.75 0 0 0 14.3125,0.44335938 Z"
       id="path10" />
  </g>
  <defs
     id="defs10">
    <clipPath
       id="clip0_430_6317">
      <rect
         width="24"
         height="24"
         fill="white"
         id="rect10" />
    </clipPath>
  </defs>
</svg>
