<?xml version="1.0" encoding="UTF-8" standalone="no"?>
<svg
   width="20"
   height="20"
   viewBox="0 0 20 20"
   fill="none"
   version="1.1"
   id="svg3"
   sodipodi:docname="instagram.svg"
   inkscape:version="1.4.3 (0d15f75, 2025-12-25)"
   xmlns:inkscape="http://www.inkscape.org/namespaces/inkscape"
   xmlns:sodipodi="http://sodipodi.sourceforge.net/DTD/sodipodi-0.dtd"
   xmlns="http://www.w3.org/2000/svg"
   xmlns:svg="http://www.w3.org/2000/svg">
  <defs
     id="defs3" />
  <sodipodi:namedview
     id="namedview3"
     pagecolor="#ffffff"
     bordercolor="#000000"
     borderopacity="0.25"
     inkscape:showpageshadow="2"
     inkscape:pageopacity="0.0"
     inkscape:pagecheckerboard="0"
     inkscape:deskcolor="#d1d1d1"
     inkscape:zoom="5.6808659"
     inkscape:cx="1.8483098"
     inkscape:cy="19.363245"
     inkscape:window-width="1083"
     inkscape:window-height="505"
     inkscape:window-x="0"
     inkscape:window-y="157"
     inkscape:window-maximized="0"
     inkscape:current-layer="svg3" />
  <g
     id="path1"
     style="opacity:1">
    <path
       style="baseline-shift:baseline;display:inline;overflow:visible;vector-effect:none;fill:#ffffff;enable-background:accumulate;stop-color:#000000;stop-opacity:1"
       d="m 5.83374,2.22266 h 8.33296 c 1.9907,0 3.6114,1.62065 3.6114,3.61132 V 14.167 c 0,1.9907 -1.6207,3.6113 -3.6114,3.6113 H 5.83374 c -1.99067,0 -3.61133,-1.6206 -3.61133,-3.6113 V 5.83398 c 0,-1.99067 1.62066,-3.61132 3.61133,-3.61132 z m 0,0.27734 C 3.99525,2.5 2.49976,3.99549 2.49976,5.83398 V 14.167 c 0,1.8385 1.49549,3.333 3.33398,3.333 h 8.33296 c 1.8385,0 3.3331,-1.4945 3.3331,-3.333 V 5.83398 C 17.4998,3.99549 16.0052,2.5 14.1667,2.5 Z"
       id="path4" />
    <path
       style="baseline-shift:baseline;display:inline;overflow:visible;vector-effect:none;fill:#ffffff;enable-background:accumulate;stop-color:#000000;stop-opacity:1"
       d="m 5.8339844,1.6679687 c -2.2921967,0 -4.1679688,1.8738171 -4.1679688,4.1660157 v 8.3339846 c 0,2.292224 1.8757814,4.166015 4.1679688,4.166015 h 8.3320316 c 2.292212,0 4.167968,-1.873784 4.167968,-4.166015 V 5.8339844 c 0,-2.292206 -1.875746,-4.1660157 -4.167968,-4.1660157 z m 0,1.3867188 h 8.3320316 c 1.53723,0 2.777343,1.2418991 2.777343,2.7792969 v 8.3339846 c 0,1.537409 -1.239914,2.777343 -2.777343,2.777343 H 5.8339844 c -1.537418,0 -2.7792969,-1.240113 -2.7792969,-2.777343 V 5.8339844 c 0,-1.5372185 1.2420784,-2.7792969 2.7792969,-2.7792969 z"
       id="path5" />
  </g>
  <g
     id="path2"
     style="opacity:1">
    <path
       style="baseline-shift:baseline;display:inline;overflow:visible;vector-effect:none;fill:#ffffff;enable-background:accumulate;stop-color:#000000;stop-opacity:1"
       d="m 9.99902,6.52832 c 1.91398,0 3.47238,1.55778 3.47268,3.47168 0,1.9141 -1.5586,3.4727 -3.47268,3.4727 C 8.08512,13.4724 6.52734,11.914 6.52734,10 6.52758,8.08624 8.08527,6.52856 9.99902,6.52832 Z m 0,0.21387 C 8.20254,6.74242 6.74145,8.20352 6.74121,10 c 0,1.7967 1.46119,3.2576 3.25781,3.2578 1.79678,0 3.25778,-1.461 3.25778,-3.2578 -2e-4,-1.79663 -1.4611,-3.25781 -3.25778,-3.25781 z"
       id="path6" />
    <path
       style="baseline-shift:baseline;display:inline;overflow:visible;vector-effect:none;fill:#ffffff;enable-background:accumulate;stop-color:#000000;stop-opacity:1"
       d="M 9.9980469,5.9726562 C 7.7828753,5.9729341 5.9729341,7.7848181 5.9726562,10 c 0,2.215439 1.8099628,4.026996 4.0253907,4.027344 2.2156651,0 4.0292971,-1.811662 4.0292971,-4.027344 C 14.026996,7.7845722 12.213469,5.9726562 9.9980469,5.9726562 Z m 0,1.3242188 H 10 C 11.494566,7.2979269 12.701005,8.5051489 12.701172,10 12.701172,11.494995 11.49472,12.702073 10,12.703125 8.5045084,12.702959 7.296875,11.495492 7.296875,10 7.2970747,8.5053564 8.5036587,7.2981181 9.9980469,7.296875 Z"
       id="path7" />
  </g>
  <g
     id="path3"
     style="opacity:1">
    <path
       style="baseline-shift:baseline;display:inline;overflow:visible;vector-effect:none;fill:#ffffff;enable-background:accumulate;stop-color:#000000;stop-opacity:1"
       d="m 14.5842,5 c 0.2299,2.3e-4 0.416,0.18702 0.416,0.41699 -2e-4,0.22978 -0.1862,0.41578 -0.416,0.41602 -0.2299,0 -0.4167,-0.1861 -0.417,-0.41602 C 14.1672,5.18687 14.3541,5 14.5842,5 Z"
       id="path8" />
    <path
       style="baseline-shift:baseline;display:inline;overflow:visible;vector-effect:none;fill:#ffffff;enable-background:accumulate;stop-color:#000000;stop-opacity:1"
       d="m 14.583984,4.4453125 c -0.530886,0 -0.972656,0.4397742 -0.972656,0.9707031 v 0.00195 c 6.92e-4,0.5304376 0.442948,0.9707032 0.972656,0.9707032 0.529264,-5.528e-4 0.972196,-0.4413811 0.972657,-0.9707032 v -0.00195 c 0,-0.5296867 -0.442137,-0.9701724 -0.972657,-0.9707031 z m 0,0.8320312 c 0.06991,0 0.13858,0.068074 0.138672,0.1386719 0,0.070689 -0.06799,0.1386719 -0.138672,0.1386719 -0.07072,-7.07e-5 -0.138671,-0.068925 -0.138671,-0.1386719 6e-5,-0.069762 0.06901,-0.1385991 0.138671,-0.1386719 z"
       id="path9" />
  </g>
</svg>
