<svg viewBox="0 0 24 24" fill="currentColor" width="32" height="32" clip-rule="evenodd" fill-rule="evenodd" xmlns="http://www.w3.org/2000/svg" xmlns:xlink="http://www.w3.org/1999/xlink">
    <path d="M16 7c0-0.2652 0.1054-0.5196 0.2929-0.7071S16.7348 6 17 6s0.5196 0.1054 0.7071 0.2929C17.8946 6.4804 18 6.7348 18 7s-0.1054 0.5196-0.2929 0.7071S17.2652 8 17 8s-0.5196-0.1054-0.7071-0.2929C16.1054 7.5196 16 7.2652 16 7z" fill-rule="nonzero" />
    <path d="M12 7.25c-1.2598 0-2.468 0.5004-3.3588 1.3912C7.7505 9.532 7.25 10.7402 7.25 12s0.5004 2.468 1.3912 3.3588C9.532 16.2496 10.7402 16.75 12 16.75s2.468-0.5004 3.3588-1.3912S16.75 13.2598 16.75 12s-0.5004-2.468-1.3912-3.3588C14.468 7.7505 13.2598 7.25 12 7.25zM8.75 12c0-0.862 0.3424-1.6886 0.9519-2.2981C10.3114 9.0924 11.138 8.75 12 8.75s1.6886 0.3424 2.2981 0.9519S15.25 11.138 15.25 12s-0.3424 1.6886-0.9519 2.2981S12.862 15.25 12 15.25s-1.6886-0.3424-2.2981-0.9519S8.75 12.862 8.75 12z" />
    <path d="M17.258 2.8327c-3.4946-0.3876-7.0214-0.3876-10.516 0-2.012 0.225-3.637 1.81-3.873 3.832-0.4139 3.5446-0.4139 7.1253 0 10.67 0.236 2.022 1.86 3.607 3.873 3.832 3.4947 0.3867 7.0213 0.3867 10.516 0 2.012-0.225 3.637-1.81 3.873-3.832 0.4139-3.5447 0.4139-7.1254 0-10.67-0.236-2.022-1.86-3.607-3.873-3.832zM6.908 4.3227c3.3843-0.3753 6.7997-0.3753 10.184 0 1.33 0.15 2.395 1.199 2.55 2.517 0.4012 3.4283 0.4012 6.8917 0 10.32-0.0802 0.645-0.3754 1.2442-0.8381 1.7007s-1.0658 0.7438-1.7119 0.8153c-3.3843 0.3753-6.7997 0.3753-10.184 0-0.6461-0.0715-1.2491-0.3588-1.7118-0.8153-0.4627-0.4565-0.758-1.0557-0.8382-1.7007-0.4011-3.4283-0.4011-6.8917 0-10.32 0.0802-0.6451 0.3755-1.2443 0.8382-1.7008C5.6589 4.6824 6.262 4.3942 6.908 4.3227z" />
</svg>