<svg viewBox="0 0 24 24" fill="none" width="32" height="32" xmlns="http://www.w3.org/2000/svg" xmlns:xlink="http://www.w3.org/1999/xlink">
    <path fill="currentColor" d="M13.0286 2c1.125 3e-3 1.696 9e-3 2.189 0.023l0.194 7e-3c0.224 8e-3 0.445 0.018 0.712 0.03 1.064 0.05 1.79 0.218 2.427 0.465 0.66 0.254 1.216 0.598 1.772 1.153 0.5087 0.4997 0.9022 1.1045 1.153 1.772 0.247 0.637 0.415 1.363 0.465 2.428 0.012 0.266 0.022 0.487 0.03 0.712l6e-3 0.194c0.015 0.492 0.021 1.063 0.023 2.188l1e-3 0.746v1.31c24e-4 0.7294-53e-4 1.4588-0.023 2.188l-6e-3 0.194c-8e-3 0.225-0.018 0.446-0.03 0.712-0.05 1.065-0.22 1.79-0.466 2.428-0.2508 0.6675-0.6443 1.2723-1.153 1.772-0.4998 0.5087-1.1045 0.9022-1.772 1.153-0.637 0.247-1.363 0.415-2.427 0.465l-0.712 0.03-0.194 6e-3c-0.493 0.014-1.064 0.021-2.189 0.023L12.2826 22h-1.309c-0.7298 26e-4-1.4595-51e-4-2.189-0.023l-0.194-6e-3c-0.2374-9e-3-0.4748-0.0193-0.712-0.031-1.064-0.05-1.79-0.218-2.428-0.465-0.6672-0.2509-1.2716-0.6444-1.771-1.153-0.5091-0.4996-0.9029-1.1044-1.154-1.772-0.247-0.637-0.415-1.363-0.465-2.428l-0.03-0.712-5e-3-0.194c-0.0185-0.7292-0.0268-1.4586-0.025-2.188l0-2.056c-28e-4-0.7294 45e-4-1.4588 0.022-2.188l7e-3-0.194c8e-3-0.225 0.018-0.446 0.03-0.712 0.05-1.065 0.218-1.79 0.465-2.428 0.2517-0.6678 0.6462-1.2726 1.156-1.772 0.4991-0.5084 1.1032-0.9019 1.77-1.153 0.638-0.247 1.363-0.415 2.428-0.465 0.266-0.012 0.488-0.022 0.712-0.03l0.194-6e-3c0.7292-0.0178 1.4586-0.0254 2.188-0.023zM12.0006 7C10.6745 7 9.4027 7.5268 8.465 8.4645 7.5274 9.4022 7.0006 10.6739 7.0006 12c0 1.3261 0.5267 2.5979 1.4644 3.5355C9.4027 16.4732 10.6745 17 12.0006 17s2.5978-0.5268 3.5355-1.4645c0.9377-0.9376 1.4645-2.2094 1.4645-3.5355s-0.5268-2.5978-1.4645-3.5355C14.5984 7.5268 13.3267 7 12.0006 7zM12.0006 9c0.3939-1e-4 0.7841 0.0775 1.1481 0.2282 0.364 0.1507 0.6947 0.3716 0.9733 0.6501 0.2787 0.2786 0.4997 0.6092 0.6505 0.9732 0.1508 0.3639 0.2285 0.754 0.2286 1.148 0 0.394-0.0775 0.7841-0.2282 1.1481s-0.3716 0.6947-0.6502 0.9734c-0.2785 0.2786-0.6092 0.4996-0.9731 0.6504-0.364 0.1509-0.7541 0.2285-1.148 0.2286-0.7957 0-1.5587-0.3161-2.1214-0.8787C9.3176 13.5587 9.0016 12.7956 9.0016 12c0-0.7956 0.316-1.5587 0.8787-2.1213C10.4429 9.3161 11.2059 9 12.0016 9M17.2516 5.5c-0.3316 0-0.6495 0.1317-0.8839 0.3661-0.2344 0.2344-0.3661 0.5524-0.3661 0.8839s0.1317 0.6495 0.3661 0.8839C16.6021 7.8683 16.92 8 17.2516 8c0.3315 0 0.6494-0.1317 0.8839-0.3661 0.2344-0.2344 0.3661-0.5524 0.3661-0.8839s-0.1317-0.6495-0.3661-0.8839C17.901 5.6317 17.5831 5.5 17.2516 5.5z" />
</svg>