<svg width="24" height="24" viewBox="0 0 24 24" fill="none" xmlns="http://www.w3.org/2000/svg">
<path fill-rule="evenodd" clip-rule="evenodd" d="M23 12C23 18.075 18.075 23 12 23C5.925 23 1 18.075 1 12C1 5.925 5.925 1 12 1C18.075 1 23 5.925 23 12ZM6.25 17.5V5.5H8.75V17.5H6.25ZM13.25 8.79C13.8573 8.54432 14.5157 8.45158 15.1673 8.51993C15.8189 8.58828 16.4437 8.81563 16.9869 9.18201C17.53 9.54838 17.9748 10.0426 18.2823 10.6211C18.5897 11.1996 18.7503 11.8448 18.75 12.5V17.5H16.25V12.5C16.25 12.1022 16.092 11.7206 15.8107 11.4393C15.5294 11.158 15.1478 11 14.75 11C14.3522 11 13.9706 11.158 13.6893 11.4393C13.408 11.7206 13.25 12.1022 13.25 12.5V17.5H10.75V8.5H13.25V8.79Z" fill="white"/>
</svg>
