<?xml version="1.0" encoding="UTF-8" standalone="no"?>
<svg
   viewBox="0 0 24 24"
   fill="none"
   width="32"
   height="32"
   version="1.1"
   id="svg1"
   sodipodi:docname="lock-alt.svg"
   inkscape:version="1.4.3 (0d15f75, 2025-12-25)"
   xmlns:inkscape="http://www.inkscape.org/namespaces/inkscape"
   xmlns:sodipodi="http://sodipodi.sourceforge.net/DTD/sodipodi-0.dtd"
   xmlns="http://www.w3.org/2000/svg"
   xmlns:svg="http://www.w3.org/2000/svg">
  <defs
     id="defs1" />
  <sodipodi:namedview
     id="namedview1"
     pagecolor="#ffffff"
     bordercolor="#000000"
     borderopacity="0.25"
     inkscape:showpageshadow="2"
     inkscape:pageopacity="0.0"
     inkscape:pagecheckerboard="0"
     inkscape:deskcolor="#d1d1d1"
     inkscape:zoom="4.3984681"
     inkscape:cx="19.438586"
     inkscape:cy="10.91289"
     inkscape:window-width="1083"
     inkscape:window-height="517"
     inkscape:window-x="0"
     inkscape:window-y="157"
     inkscape:window-maximized="0"
     inkscape:current-layer="svg1" />
  <path
     style="baseline-shift:baseline;display:inline;overflow:visible;vector-effect:none;fill:currentColor;stroke-linecap:round;stroke-linejoin:round;enable-background:accumulate;stop-color:#000000;stop-opacity:1;opacity:1"
     d="M 12,2 C 8.6981495,2 6,4.6981495 6,8 V 9.2480469 C 5.7313013,9.3100491 5.4303634,9.3098419 5.1835937,9.4355469 4.4310366,9.8189577 3.8189577,10.431037 3.4355469,11.183594 2.948319,12.139872 3,13.120581 3,14.800781 v 1.398438 c 0,1.6802 -0.051681,2.660909 0.4355469,3.617187 0.3834108,0.752557 0.9954897,1.364636 1.7480468,1.748047 C 6.1398716,22.051681 7.1205812,22 8.8007813,22 h 6.3984377 c 1.6802,0 2.660909,0.05168 3.617187,-0.435547 0.752557,-0.383411 1.364636,-0.99549 1.748047,-1.748047 C 21.051681,18.860128 21,17.879419 21,16.199219 v -1.398438 c 0,-1.6802 0.05168,-2.660909 -0.435547,-3.617187 C 20.181042,10.431037 19.568963,9.8189577 18.816406,9.4355469 18.569637,9.3098419 18.268699,9.3100491 18,9.2480469 V 8 C 18,4.6981495 15.30185,2 12,2 Z m 0,2 c 2.22095,0 4,1.7790505 4,4 V 9.0136719 C 15.729179,9.0113865 15.520767,9 15.199219,9 H 8.8007813 C 8.479233,9 8.270821,9.0113865 8,9.0136719 V 8 C 8,5.7790505 9.7790505,4 12,4 Z m -3.1992187,7 h 6.3984377 c 0.7474,0 1.318771,0.0016 1.740234,0.02734 0.52595,0.03209 0.786951,0.0988 0.96875,0.191406 0.376443,0.191789 0.681258,0.496604 0.873047,0.873047 C 18.948022,12.419119 19,13.120581 19,14.800781 v 1.398438 c 0,1.6802 -0.05198,2.381662 -0.21875,2.708984 -0.191789,0.376443 -0.496604,0.681258 -0.873047,0.873047 C 17.580881,19.948022 16.879419,20 15.199219,20 H 8.8007813 C 7.1205812,20 6.419119,19.948022 6.0917969,19.78125 5.715354,19.589461 5.4105391,19.284646 5.21875,18.908203 5.0519779,18.580881 5,17.879419 5,16.199219 v -1.398438 c 0,-1.6802 0.051978,-2.381662 0.21875,-2.708984 0.1917891,-0.376443 0.496604,-0.681258 0.8730469,-0.873047 0.1817995,-0.09261 0.4428005,-0.159311 0.96875,-0.191406 C 7.4820101,11.001595 8.0533812,11 8.8007813,11 Z M 12,13.5 a 1,1 0 0 0 -1,1 v 2 a 1,1 0 0 0 1,1 1,1 0 0 0 1,-1 v -2 a 1,1 0 0 0 -1,-1 z"
     id="path1" />
</svg>
