<?xml version="1.0" encoding="UTF-8" standalone="no"?>
<svg
   viewBox="0 0 24 24"
   fill="none"
   width="32"
   height="32"
   version="1.1"
   id="svg1"
   sodipodi:docname="monitor.svg"
   inkscape:version="1.4.3 (0d15f75, 2025-12-25)"
   xmlns:inkscape="http://www.inkscape.org/namespaces/inkscape"
   xmlns:sodipodi="http://sodipodi.sourceforge.net/DTD/sodipodi-0.dtd"
   xmlns="http://www.w3.org/2000/svg"
   xmlns:svg="http://www.w3.org/2000/svg">
  <defs
     id="defs1" />
  <sodipodi:namedview
     id="namedview1"
     pagecolor="#ffffff"
     bordercolor="#000000"
     borderopacity="0.25"
     inkscape:showpageshadow="2"
     inkscape:pageopacity="0.0"
     inkscape:pagecheckerboard="0"
     inkscape:deskcolor="#d1d1d1"
     inkscape:zoom="4.5579299"
     inkscape:cx="19.416709"
     inkscape:cy="19.416709"
     inkscape:window-width="1083"
     inkscape:window-height="564"
     inkscape:window-x="0"
     inkscape:window-y="157"
     inkscape:window-maximized="0"
     inkscape:current-layer="svg1" />
  <path
     style="baseline-shift:baseline;display:inline;overflow:visible;vector-effect:none;fill:currentColor;stroke-linecap:round;stroke-linejoin:round;enable-background:accumulate;stop-color:#000000;stop-opacity:1;opacity:1"
     d="m 6.1992187,2 c -1.1201,0 -1.8181451,-0.052144 -2.5605468,0.3261719 -0.5644414,0.2875456 -1.0249544,0.7480586 -1.3125,1.3125 C 1.9478559,4.3810736 2,5.0791187 2,6.1992187 V 12 14.800781 c 0,1.1201 -0.052144,1.818145 0.3261719,2.560547 0.2875456,0.564441 0.7480586,1.024955 1.3125,1.3125 C 4.3810736,19.052144 5.0791187,19 6.1992187,19 H 8 v 1 H 7 a 1,1 0 0 0 -1,1 1,1 0 0 0 1,1 h 2 6 2 a 1,1 0 0 0 1,-1 1,1 0 0 0 -1,-1 h -1 v -1 h 1.800781 c 1.1201,0 1.818145,0.05214 2.560547,-0.326172 0.564441,-0.287545 1.024955,-0.748059 1.3125,-1.3125 C 22.052144,16.618926 22,15.920881 22,14.800781 V 12 6.1992187 C 22,5.0791188 22.052144,4.3810736 21.673828,3.6386719 21.386283,3.0742305 20.925769,2.6137175 20.361328,2.3261719 19.618926,1.9478559 18.920881,2 17.800781,2 Z m 0,2 H 17.800781 c 1.1201,0 1.539146,0.051691 1.652344,0.109375 0.188159,0.095854 0.341646,0.2493414 0.4375,0.4375 C 19.948309,4.6600733 20,5.0791188 20,6.1992187 V 11 H 4 V 6.1992187 C 4,5.0791187 4.051691,4.6600733 4.109375,4.546875 4.2052294,4.3587164 4.3587164,4.2052294 4.546875,4.109375 4.6600733,4.051691 5.0791187,4 6.1992187,4 Z M 4,13 h 16 v 1.800781 c 0,1.1201 -0.05169,1.539146 -0.109375,1.652344 -0.09585,0.188159 -0.249341,0.341646 -0.4375,0.4375 C 19.339927,16.948309 18.920881,17 17.800781,17 H 15 9 6.1992187 c -1.1201,0 -1.5391454,-0.05169 -1.6523437,-0.109375 -0.1881586,-0.09585 -0.3416456,-0.249341 -0.4375,-0.4375 C 4.051691,16.339927 4,15.920881 4,14.800781 Z m 8,1 a 1,1 0 0 0 -1,1 1,1 0 0 0 1,1 h 0.0098 a 1,1 0 0 0 1,-1 1,1 0 0 0 -1,-1 z m -2,5 h 4 v 1 h -4 z"
     id="path1" />
</svg>
