<?xml version="1.0" encoding="UTF-8" standalone="no"?>
<svg
   viewBox="0 0 24 24"
   fill="none"
   width="32"
   height="32"
   version="1.1"
   id="svg1"
   sodipodi:docname="phone1.svg"
   inkscape:version="1.4.3 (0d15f75, 2025-12-25)"
   xmlns:inkscape="http://www.inkscape.org/namespaces/inkscape"
   xmlns:sodipodi="http://sodipodi.sourceforge.net/DTD/sodipodi-0.dtd"
   xmlns="http://www.w3.org/2000/svg"
   xmlns:svg="http://www.w3.org/2000/svg">
  <defs
     id="defs1" />
  <sodipodi:namedview
     id="namedview1"
     pagecolor="#ffffff"
     bordercolor="#000000"
     borderopacity="0.25"
     inkscape:showpageshadow="2"
     inkscape:pageopacity="0.0"
     inkscape:pagecheckerboard="0"
     inkscape:deskcolor="#d1d1d1"
     inkscape:zoom="3.2092691"
     inkscape:cx="21.344424"
     inkscape:cy="9.6595202"
     inkscape:window-width="1083"
     inkscape:window-height="597"
     inkscape:window-x="0"
     inkscape:window-y="157"
     inkscape:window-maximized="0"
     inkscape:current-layer="svg1" />
  <path
     style="baseline-shift:baseline;display:inline;overflow:visible;vector-effect:none;fill:currentColor;stroke-linecap:round;stroke-linejoin:round;enable-background:accumulate;stop-color:#000000;stop-opacity:1;opacity:1"
     d="M 4.5625,2.25 C 4.0824,2.25 3.7219713,2.2253128 3.3105469,2.4238281 2.9797329,2.5833173 2.7361209,2.808358 2.5527344,3.1269531 2.3354019,3.5046159 2.3248649,3.8618278 2.2929688,4.296875 2.263829,4.6943495 2.25,5.0955452 2.25,5.5 c 0,8.965732 7.2842685,16.25 16.25,16.25 0.404455,0 0.805651,-0.01383 1.203125,-0.04297 0.435047,-0.0319 0.792259,-0.04243 1.169922,-0.259765 0.318595,-0.183387 0.543636,-0.426999 0.703125,-0.757813 C 21.774687,20.278029 21.75,19.9176 21.75,19.4375 v -2.816406 c 0,-0.4038 0.01943,-0.693413 -0.117188,-1.048828 -0.102803,-0.266972 -0.268899,-0.506126 -0.484375,-0.69336 -0.287368,-0.249779 -0.565952,-0.328811 -0.945312,-0.466797 l -3.207031,-1.166015 c -0.44147,-0.160489 -0.741824,-0.299669 -1.175781,-0.271485 -0.323385,0.02101 -0.634451,0.131296 -0.898438,0.31836 -0.354939,0.251484 -0.50245,0.55024 -0.744141,0.953125 L 13.763672,14.9375 C 11.755769,13.877646 10.123755,12.244341 9.0625,10.236328 L 9.7539063,9.8222656 C 10.15662,9.5806173 10.455435,9.4332227 10.707031,9.078125 10.894095,8.8141376 11.00438,8.5030721 11.025391,8.1796875 11.053575,7.7457299 10.914395,7.4453763 10.753906,7.0039062 L 9.5878906,3.796875 C 9.4499051,3.4175148 9.3708726,3.1389314 9.1210938,2.8515625 8.9331266,2.6352428 8.6951771,2.4698617 8.4277344,2.3671875 8.0723195,2.2305685 7.7827062,2.25 7.3789062,2.25 Z m 0,1.5 h 2.8164062 c 0.4038001,0 0.5191806,0.019244 0.5097657,0.015625 a 0.750075,0.750075 0 0 0 0,0.00195 c 0.038357,0.014726 0.072776,0.037479 0.099609,0.068359 -0.00658,-0.00757 0.051439,0.093217 0.1894532,0.4726562 L 9.34375,7.515625 c 0.1605109,0.4415299 0.1826093,0.583517 0.1835938,0.5683594 -0.00299,0.046015 -0.017986,0.08894 -0.044922,0.1269531 0.009,-0.012698 -0.097114,0.082467 -0.5,0.3242188 L 7.6132812,9.3574219 a 0.750075,0.750075 0 0 0 -0.296875,0.9531251 c 1.277716,2.815993 3.5570688,5.096848 6.3749998,6.373047 a 0.750075,0.750075 0 0 0 0.951172,-0.296875 l 0.822266,-1.369141 c 0.241709,-0.402916 0.336758,-0.508884 0.324219,-0.5 0.03801,-0.02694 0.08094,-0.04193 0.126953,-0.04492 -0.01516,9.85e-4 0.126829,0.02308 0.568359,0.183594 l 3.207031,1.166016 c 0.37944,0.138014 0.480225,0.196032 0.472656,0.189453 0.03103,0.02696 0.05388,0.06183 0.06836,0.09961 a 0.750075,0.750075 0 0 0 0.002,0 c -0.0036,-0.0094 0.01563,0.105966 0.01563,0.509766 V 19.4375 c 0,0.4801 -0.02531,0.599434 -0.02539,0.599609 a 0.750075,0.750075 0 0 0 0,0.002 c -0.0049,0.01019 -0.0902,0.102009 -0.09961,0.107422 -0.01854,0.01067 -0.0961,0.03255 -0.53125,0.06445 C 19.232824,20.237398 18.867945,20.25 18.5,20.25 10.344932,20.25 3.75,13.655068 3.75,5.5 c 0,-0.3679452 0.012602,-0.7328245 0.039063,-1.09375 0.031904,-0.4351528 0.053786,-0.5127128 0.064453,-0.53125 0.00541,-0.0094 0.097236,-0.094699 0.1074219,-0.099609 a 0.750075,0.750075 0 0 0 0.00195,0 C 3.9630662,3.7753059 4.0824,3.75 4.5625,3.75 Z"
     id="path1" />
</svg>
