<svg width="32" height="32" viewBox="0 0 32 32" fill="none" xmlns="http://www.w3.org/2000/svg">
<path fill-rule="evenodd" clip-rule="evenodd" d="M16 29.3337C23.3637 29.3337 29.3334 23.364 29.3334 16.0003C29.3334 8.63669 23.3637 2.66699 16 2.66699C8.63638 2.66699 2.66669 8.63669 2.66669 16.0003C2.66669 23.364 8.63638 29.3337 16 29.3337ZM7.08366 15.3215C7.02625 15.344 6.97688 15.3832 6.94189 15.4339C6.9069 15.4847 6.88788 15.5447 6.88729 15.6064C6.88729 15.73 6.9685 15.8464 7.08366 15.89L10.7043 17.2112L18.1637 13.3603C18.2031 13.342 18.2477 13.3381 18.2897 13.3491C18.3318 13.3602 18.3686 13.3856 18.394 13.4209C18.4177 13.4573 18.428 13.5008 18.4231 13.5439C18.4183 13.5871 18.3985 13.6271 18.3673 13.6573L13.3467 18.1603L18.9721 22.69C19.0534 22.7482 19.1624 22.7627 19.2558 22.7288C19.3023 22.711 19.3438 22.6822 19.3767 22.6448C19.4097 22.6075 19.4331 22.5627 19.4449 22.5143L22.4243 9.98336C22.4366 9.92974 22.4343 9.8738 22.4177 9.82136C22.4011 9.76892 22.3707 9.7219 22.3297 9.68517C22.2881 9.64921 22.2375 9.62508 22.1834 9.61527C22.1292 9.60546 22.0735 9.61035 22.0218 9.62942L7.08366 15.3215Z" fill="#5454E3"/>
</svg>
