<svg viewBox="0 0 24 24" fill="currentColor" width="32" height="32" xmlns="http://www.w3.org/2000/svg" xmlns:xlink="http://www.w3.org/1999/xlink">
    <path d="M11.7912 2.0176c0.1383-0.0235 0.2812-0.0235 0.4196 0l8.9276 1.5626C21.6384 3.6662 22 4.0529 22 4.4983c0 0.4453-0.3616 0.8321-0.8616 0.9181L17.7147 6.018v2.2307c0 2.7619-2.5578 5.0004-5.7137 5.0004-3.156 0-5.7138-2.2385-5.7138-5.0004l0-2.2307-2.1426-0.3751v2.5432 3.0629H2.7162l0-3.0629 0-2.8049C2.2921 5.2523 2.002 4.9007 2.002 4.4983 2.002 4.0529 2.3635 3.6662 2.8635 3.5802zM6.997 14.8001c0.4687-0.1328 0.9731 0.0156 1.3124 0.332l3.1693 2.9495c0.2812 0.2618 0.7588 0.2618 1.0401 0l3.1693-2.9495c0.3392-0.3164 0.8437-0.4648 1.3124-0.332C19.902 15.6166 22 17.9918 22 20.8007 22 21.4648 21.384 22 20.6296 22H3.3724C2.618 22 2.002 21.4609 2.002 20.8007c-1e-4-2.8089 2.098-5.1841 4.995-6.0006z" />
    <circle cx="3.5" cy="10.5" r="1.5" />
</svg>