<svg width="40" height="40" viewBox="0 0 40 40" fill="none" xmlns="http://www.w3.org/2000/svg">
<path fill-rule="evenodd" clip-rule="evenodd" d="M2.67291 13.9925C2.74161 13.4972 3.10042 13.0104 3.75011 12.6027C5.75059 11.3474 7.82534 10.0472 10.2185 8.84867C12.6116 7.65009 15.2076 6.61098 17.714 5.60909C19.5333 4.88187 22.1414 4.88229 23.9659 5.60624L24.1004 5.65961C26.5847 6.64529 29.1574 7.66601 31.5185 8.84867C33.88 10.0313 35.918 11.3198 37.886 12.564L37.9925 12.6314C39.438 13.5451 39.4388 14.8514 37.9868 15.7625C35.9865 17.0178 33.9117 18.318 31.5185 19.5166C31.3097 19.6212 31.0991 19.7247 30.8871 19.827C28.8243 20.8231 26.6334 21.7117 24.494 22.5678L24.0231 22.7561C22.2038 23.4834 19.5957 23.4829 17.7712 22.759L17.6367 22.7056C15.4629 21.8431 13.2216 20.9538 11.1133 19.9527L10.85 19.8268C10.638 19.7246 10.4274 19.6212 10.2185 19.5166C9.03271 18.9227 7.92848 18.3022 6.87371 17.6739V27.9898C7.87605 28.6747 8.53394 29.8267 8.53394 31.1322C8.53394 33.2327 6.83122 34.9353 4.73082 34.9353C2.63044 34.9353 0.927734 33.2327 0.927734 31.1322C0.927734 29.8267 1.58563 28.6747 2.588 27.9898V14.5918C2.588 14.3838 2.61764 14.1827 2.67291 13.9925ZM10.6179 23.6586C10.6461 24.4913 10.7051 25.3081 10.778 26.1044C11.0925 29.5399 13.8755 32.3176 17.3031 32.645C18.4523 32.7547 19.6458 32.8362 20.8685 32.8362C22.0913 32.8362 23.2847 32.7547 24.434 32.645C27.8615 32.3176 30.6445 29.5399 30.9591 26.1044C31.032 25.3089 31.0908 24.4928 31.1191 23.6609C29.1845 24.5392 27.2099 25.3284 25.3745 26.0621L25.3487 26.0724C22.6766 27.1406 19.1227 27.1376 16.4539 26.0786L16.2605 26.0018C14.4581 25.2868 12.5169 24.5167 10.6179 23.6586Z" fill="white"/>
</svg>
