<svg width="40" height="40" viewBox="0 0 40 40" fill="none" xmlns="http://www.w3.org/2000/svg">
<path d="M19.6523 3.3623C19.8829 3.32324 20.121 3.32324 20.3516 3.3623L35.2311 5.96673C36.0643 6.10997 36.6669 6.75456 36.6669 7.49683C36.6669 8.23909 36.0643 8.88368 35.2311 9.02692L29.5248 10.0296V13.7474C29.5248 18.3507 25.2618 22.0816 20.0019 22.0816C14.742 22.0816 10.4791 18.3507 10.4791 13.7474V10.0296L6.90799 9.40456V13.6433V18.7479H4.52728V13.6433V8.96832C3.8205 8.75346 3.33691 8.16746 3.33691 7.49683C3.33691 6.75456 3.93954 6.10997 4.77279 5.96673L19.6523 3.3623ZM11.662 24.6665C12.4432 24.4451 13.2838 24.6925 13.8493 25.2199L19.1315 30.1357C19.6002 30.572 20.3962 30.572 20.8649 30.1357L26.1472 25.2199C26.7126 24.6925 27.5533 24.4451 28.3344 24.6665C33.1703 26.0273 36.6669 29.986 36.6669 34.6674C36.6669 35.7743 35.6403 36.6663 34.3829 36.6663H5.62091C4.3636 36.6663 3.33691 35.7678 3.33691 34.6674C3.33691 29.986 6.8336 26.0273 11.662 24.6665Z" fill="white"/>
<circle cx="5.8335" cy="17.5" r="2.5" fill="white"/>
</svg>
