<svg width="40" height="40" viewBox="0 0 40 40" fill="none" xmlns="http://www.w3.org/2000/svg">
<path d="M19.9998 32.8744C19.8054 32.8744 19.6248 32.8536 19.4582 32.8119C19.2915 32.7703 19.1388 32.6939 18.9998 32.5828C17.7776 31.7773 16.479 31.1453 15.104 30.6869C13.729 30.2286 12.3054 29.9994 10.8332 29.9994C9.6665 29.9994 8.52067 30.1523 7.39567 30.4578C6.27067 30.7633 5.19428 31.1939 4.1665 31.7494C3.58317 32.055 3.02067 32.0411 2.479 31.7078C1.93734 31.3744 1.6665 30.8883 1.6665 30.2494V10.1661C1.6665 9.86059 1.7429 9.56892 1.89567 9.29109C2.04845 9.01334 2.27761 8.80501 2.58317 8.66609C3.86095 7.99946 5.19428 7.49946 6.58317 7.16612C7.97206 6.83279 9.38875 6.66612 10.8332 6.66612C12.4443 6.66612 14.0207 6.87446 15.5623 7.29112C17.104 7.70779 18.5832 8.33279 19.9998 9.16609V30.2494C21.4165 29.3328 22.9026 28.6453 24.4582 28.1869C26.0138 27.7286 27.5832 27.4994 29.1665 27.4994C30.1665 27.4994 31.2568 27.5967 32.4373 27.7911C33.6179 27.9856 34.7498 28.3883 35.8332 28.9994V7.95779C36.1109 8.0689 36.3817 8.18002 36.6457 8.29113C36.9096 8.40226 37.1665 8.52726 37.4165 8.66609C37.6943 8.83276 37.9165 9.04809 38.0832 9.31192C38.2498 9.57584 38.3332 9.86059 38.3332 10.1661V30.2494C38.3332 30.8883 38.0623 31.3744 37.5207 31.7078C36.979 32.0411 36.4165 32.055 35.8332 31.7494C34.8054 31.1939 33.729 30.7633 32.604 30.4578C31.479 30.1523 30.3332 29.9994 29.1665 29.9994C27.6943 29.9994 26.2707 30.2286 24.8957 30.6869C23.5207 31.1453 22.2221 31.7773 20.9998 32.5828C20.8609 32.6939 20.7082 32.7703 20.5415 32.8119C20.3748 32.8536 20.1943 32.8744 19.9998 32.8744ZM23.5415 25.4578C23.3193 25.6244 23.0901 25.6592 22.854 25.5619C22.6179 25.4648 22.4998 25.2773 22.4998 24.9994V11.9161C22.4998 11.8328 22.5138 11.7564 22.5415 11.6869C22.5693 11.6175 22.6109 11.555 22.6665 11.4994L32.2498 1.91612C32.4443 1.72168 32.6734 1.67307 32.9373 1.77029C33.2013 1.86752 33.3332 2.05502 33.3332 2.33279V16.6661C33.3332 16.7494 33.3123 16.8328 33.2707 16.9161C33.229 16.9994 33.1804 17.0689 33.1248 17.1244L23.5415 25.4578Z" fill="white"/>
</svg>
