<svg width="40" height="40" viewBox="0 0 40 40" fill="none" xmlns="http://www.w3.org/2000/svg">
<g clip-path="url(#clip0_195_1014)">
<path d="M19.9999 2.57812H27.6221C28.221 2.57812 28.711 3.06813 28.711 3.66701V8.02257C28.711 8.62146 28.221 9.11146 27.6221 9.11146H22.2253L28.3231 13.467H35.2443C37.6467 13.467 39.5999 15.4202 39.5999 17.8226V33.067C39.5999 35.4694 37.6467 37.4226 35.2443 37.4226H23.2666V29.8003C23.2666 27.9969 21.8034 26.5337 19.9999 26.5337C18.1964 26.5337 16.7332 27.9969 16.7332 29.8003V37.4226H4.75546C2.3531 37.4226 0.399902 35.4694 0.399902 33.067V17.8226C0.399902 15.4202 2.3531 13.467 4.75546 13.467H11.6767L17.8221 9.07743V4.7559C17.8221 3.55132 18.7953 2.57812 19.9999 2.57812ZM23.2666 18.9115C23.2666 16.3968 20.5443 14.8251 18.3666 16.0824C17.3559 16.666 16.7332 17.7444 16.7332 18.9115C16.7332 21.4261 19.4555 22.9978 21.6332 21.7405C22.6439 21.1569 23.2666 20.0785 23.2666 18.9115ZM5.84435 17.8226C5.24546 17.8226 4.75546 18.3126 4.75546 18.9115V23.267C4.75546 23.8659 5.24546 24.3559 5.84435 24.3559H8.02213C8.62101 24.3559 9.11101 23.8659 9.11101 23.267V18.9115C9.11101 18.3126 8.62101 17.8226 8.02213 17.8226H5.84435ZM30.8888 18.9115V23.267C30.8888 23.8659 31.3788 24.3559 31.9777 24.3559H34.1555C34.7543 24.3559 35.2443 23.8659 35.2443 23.267V18.9115C35.2443 18.3126 34.7543 17.8226 34.1555 17.8226H31.9777C31.3788 17.8226 30.8888 18.3126 30.8888 18.9115ZM5.84435 26.5337C5.24546 26.5337 4.75546 27.0237 4.75546 27.6226V31.9781C4.75546 32.577 5.24546 33.067 5.84435 33.067H8.02213C8.62101 33.067 9.11101 32.577 9.11101 31.9781V27.6226C9.11101 27.0237 8.62101 26.5337 8.02213 26.5337H5.84435ZM31.9777 26.5337C31.3788 26.5337 30.8888 27.0237 30.8888 27.6226V31.9781C30.8888 32.577 31.3788 33.067 31.9777 33.067H34.1555C34.7543 33.067 35.2443 32.577 35.2443 31.9781V27.6226C35.2443 27.0237 34.7543 26.5337 34.1555 26.5337H31.9777Z" fill="white"/>
</g>
<defs>
<clipPath id="clip0_195_1014">
<rect width="40" height="40" fill="white"/>
</clipPath>
</defs>
</svg>
