<svg width="74" height="74" viewBox="0 0 74 74" fill="none" xmlns="http://www.w3.org/2000/svg">
<path d="M37 32.0663V61.6663M37 32.0663C37 25.159 37 21.7054 35.6557 19.0671C34.4733 16.7465 32.5865 14.8597 30.2659 13.6773C27.6276 12.333 24.174 12.333 17.2667 12.333H14.1833C12.4565 12.333 11.5931 12.333 10.9335 12.6691C10.3534 12.9647 9.88167 13.4364 9.58606 14.0165C9.25 14.6761 9.25 15.5395 9.25 17.2663V50.5663C9.25 52.2932 9.25 53.1566 9.58606 53.8161C9.88167 54.3963 10.3534 54.868 10.9335 55.1636C11.5931 55.4997 12.4565 55.4997 14.1833 55.4997H23.2689C24.9345 55.4997 25.7673 55.4997 26.5726 55.6432C27.2874 55.7706 27.9846 55.9817 28.65 56.2722C29.3997 56.5995 30.0926 57.0614 31.4785 57.9853L37 61.6663M37 32.0663C37 25.159 37 21.7054 38.3443 19.0671C39.5267 16.7465 41.4135 14.8597 43.7341 13.6773C46.3724 12.333 49.826 12.333 56.7333 12.333H59.8167C61.5435 12.333 62.4069 12.333 63.0665 12.6691C63.6466 12.9647 64.1183 13.4364 64.4139 14.0165C64.75 14.6761 64.75 15.5395 64.75 17.2663V50.5663C64.75 52.2932 64.75 53.1566 64.4139 53.8161C64.1183 54.3963 63.6466 54.868 63.0665 55.1636C62.4069 55.4997 61.5435 55.4997 59.8167 55.4997H50.7311C49.0655 55.4997 48.2327 55.4997 47.4274 55.6432C46.7126 55.7706 46.0154 55.9817 45.35 56.2722C44.6003 56.5995 43.9074 57.0614 42.5215 57.9853L37 61.6663" stroke="white" stroke-width="4" stroke-linecap="round" stroke-linejoin="round"/>
</svg>
