<svg width="94" height="145" viewBox="0 0 94 145" fill="none" xmlns="http://www.w3.org/2000/svg">
<path d="M73.3755 88.7917V111.917M73.3755 88.7917C54.7294 88.7917 39.1758 75.5506 35.6048 57.9583M73.3755 88.7917C92.0216 88.7917 107.575 75.5506 111.146 57.9583M111.917 19.4167H133.115C134.906 19.4167 135.801 19.4167 136.546 19.5648C139.604 20.173 141.994 22.5634 142.602 25.6212C142.75 26.3658 142.75 27.2612 142.75 29.0521C142.75 34.4247 142.75 37.1109 142.306 39.3448C140.481 48.5183 133.31 55.6893 124.137 57.514C121.903 57.9583 119.217 57.9583 113.844 57.9583H111.917H111.146M34.8338 19.4167H13.6359C11.845 19.4167 10.9496 19.4167 10.205 19.5648C7.14718 20.173 4.75684 22.5634 4.1486 25.6212C4.00049 26.3658 4.00049 27.2612 4.00049 29.0521C4.00049 34.4247 4.00049 37.1109 4.44483 39.3448C6.26955 48.5183 13.4406 55.6893 22.614 57.514C24.8479 57.9583 27.5342 57.9583 32.9067 57.9583H34.8338H35.6048M73.3755 111.917C80.544 111.917 84.1283 111.917 87.069 112.705C95.0493 114.843 101.283 121.076 103.421 129.056C104.209 131.997 104.209 135.581 104.209 142.75H42.5422C42.5422 135.581 42.5422 131.997 43.3301 129.056C45.4684 121.076 51.7017 114.843 59.682 112.705C62.6227 111.917 66.207 111.917 73.3755 111.917ZM35.6048 57.9583C35.0992 55.4677 34.8338 52.8898 34.8338 50.25V16.1131C34.8338 12.0037 34.8338 9.94896 35.5972 8.36381C36.3549 6.79048 37.6243 5.52104 39.1976 4.76336C40.7828 4 42.8375 4 46.9469 4H99.8041C103.913 4 105.968 4 107.553 4.76336C109.127 5.52104 110.396 6.79048 111.154 8.36381C111.917 9.94896 111.917 12.0037 111.917 16.1131V50.25C111.917 52.8898 111.652 55.4677 111.146 57.9583" stroke="#F5F5F5" stroke-width="8" stroke-linecap="round" stroke-linejoin="round"/>
</svg>
