<svg width="94" height="145" viewBox="0 0 94 145" fill="none" xmlns="http://www.w3.org/2000/svg">
<path d="M73.3755 119.625C111.69 119.625 142.75 88.5652 142.75 50.2505C142.75 36.0659 138.493 22.8756 131.187 11.8874M73.3755 119.625C49.3223 119.625 28.1281 107.384 15.6828 88.7922M73.3755 119.625V142.75M34.8338 142.75H111.917M142.75 4.00049L131.188 11.7088M15.563 88.7922L4.00049 96.5005M111.917 50.2505C111.917 71.5365 94.6615 88.7922 73.3755 88.7922C52.0895 88.7922 34.8338 71.5365 34.8338 50.2505C34.8338 28.9645 52.0895 11.7088 73.3755 11.7088C94.6615 11.7088 111.917 28.9645 111.917 50.2505Z" stroke="#F5F5F5" stroke-width="8" stroke-linecap="round" stroke-linejoin="round"/>
</svg>
