<svg width="43" height="31" viewBox="0 0 43 31" fill="none" xmlns="http://www.w3.org/2000/svg">
<g clip-path="url(#clip0_528_11495)">
<path d="M53.7202 12.5457V3.08458H50.5212V0.154104H59.9958V3.08458H56.7654V12.5457H53.7219H53.7202ZM70.3899 12.5457H67.3925L66.6434 10.1464H63.0848L62.3197 12.5457H59.2916L63.2871 0.154104H66.3927L70.3882 12.5457H70.3899ZM65.9574 7.30112L64.8499 3.34267L63.7252 7.30112H65.9574ZM78.6931 12.2199C79.4218 11.8879 79.9978 11.4237 80.4217 10.8273C80.8455 10.231 81.0575 9.52873 81.0575 8.72439C81.0575 8.06224 80.9378 7.47277 80.698 6.95846C80.4581 6.44416 80.0884 6.01567 79.5853 5.67239C79.0822 5.3291 78.439 5.0898 77.6545 4.95324L75.9761 4.65255C75.5032 4.56735 75.1739 4.43329 74.9893 4.25413C74.9019 4.17424 74.8317 4.07404 74.7837 3.96074C74.7357 3.84744 74.7112 3.72386 74.7118 3.59888C74.7118 3.34267 74.8235 3.11339 75.048 2.89664C75.2725 2.6799 75.6639 2.57027 76.2268 2.57027C76.5754 2.57027 76.8723 2.61725 77.1201 2.71122C77.3679 2.80519 77.5639 2.95052 77.7086 3.14409C77.8533 3.33766 77.9433 3.59262 77.9747 3.90709H80.9874C80.9715 3.14096 80.78 2.4644 80.4103 1.87618C80.0405 1.28795 79.5112 0.82815 78.8213 0.496138C78.1314 0.164127 77.2967 0 76.3122 0C75.412 0 74.6002 0.155356 73.8766 0.467322C73.1531 0.779288 72.5811 1.23032 72.16 1.82168C71.739 2.41304 71.5271 3.12592 71.5271 3.95908C71.5271 4.66257 71.653 5.26458 71.9059 5.76761C72.1589 6.27063 72.5229 6.67782 73.0015 6.98916C73.4801 7.3005 74.0544 7.52163 74.7261 7.65255L76.6535 8.02967C77.0227 8.10359 77.3434 8.20758 77.6129 8.34289C77.8824 8.4782 78.0185 8.72439 78.0185 9.08459C78.0185 9.3596 77.9348 9.57446 77.7645 9.73107C77.5941 9.88768 77.3862 10.0004 77.1372 10.0656C76.8943 10.1301 76.6453 10.1632 76.3954 10.1639C75.984 10.1639 75.6314 10.1082 75.3385 9.99731C75.0457 9.88643 74.8115 9.72669 74.6395 9.52184C74.4656 9.31198 74.3468 9.05409 74.2959 8.77576H71.2052C71.2519 9.44354 71.4285 10.0261 71.7356 10.5204C72.0427 11.0146 72.4346 11.4243 72.9109 11.7507C73.3872 12.0771 73.9091 12.3189 74.48 12.4799C75.0508 12.6409 75.6263 12.7192 76.2085 12.7192C77.1343 12.7192 77.9616 12.5538 78.6908 12.2224L78.6931 12.2199ZM85.9036 12.5457V7.57613H89.7977V12.5457H92.8338V0.154104H89.7977V4.8505H85.9036V0.154104H82.8675V12.5457H85.9036ZM98.249 12.5457V9.30635L99.6534 7.31866L102.167 12.5463H105.428L101.823 4.88496L104.921 0.154104H101.511L98.2479 5.15808V0.154104H95.095V12.5457H98.2479H98.249ZM115.286 12.5457V9.76866H109.971V7.66132H114.396V4.96952H109.995V2.91356H115.254L115.27 0.154104H106.935V12.5457H115.286ZM120.233 12.5457V5.15934L124.954 12.5457H127.693V0.154104H124.658V7.05995L120.256 0.154104H117.197V12.5457H120.233ZM135.38 12.5457V3.08458H138.611V0.154104H129.137V3.08458H132.336V12.5457H135.379H135.38ZM153.419 0.173523V7.36314C153.419 8.39551 153.265 9.31825 152.961 10.1057C152.644 10.9232 152.115 11.5697 151.388 12.027C150.673 12.4755 149.705 12.7035 148.513 12.7035C147.321 12.7035 146.356 12.4755 145.64 12.027C144.911 11.5697 144.382 10.9232 144.067 10.1057C143.762 9.31825 143.608 8.39551 143.608 7.36314V0.173523H147.158V7.49156C147.158 8.18628 147.293 8.67177 147.559 8.93675C147.838 9.21426 148.15 9.34957 148.513 9.34957C148.747 9.35178 148.977 9.28999 149.184 9.16978C149.383 9.05577 149.54 8.87348 149.669 8.61163C149.801 8.34101 149.868 7.96515 149.868 7.49219V0.175402H153.418L153.419 0.173523ZM152.757 0.901443H150.531V7.49156C150.531 8.08667 150.438 8.57968 150.254 8.95554C150.063 9.34456 149.808 9.63335 149.493 9.81439C149.191 9.98879 148.856 10.0791 148.515 10.0775C147.987 10.0775 147.516 9.87515 147.116 9.47674C146.706 9.0683 146.497 8.40177 146.497 7.49281V0.902696H144.272V7.36502C144.272 8.29904 144.408 9.12656 144.678 9.82253C144.939 10.5003 145.362 11.0146 145.971 11.3961C146.584 11.7808 147.44 11.9756 148.515 11.9756C149.59 11.9756 150.446 11.7808 151.059 11.3961C151.667 11.0146 152.09 10.5003 152.352 9.82253C152.622 9.12468 152.758 8.29904 152.758 7.36502V0.902696L152.757 0.901443ZM165.55 0.173523V12.5413H162.472L158.54 6.39091V12.5413H155.026V0.173523H158.403L162.034 5.87097V0.173523H165.549H165.55ZM164.887 0.901443H162.698V8.17939L158.06 0.901443H155.69V11.8133H157.879V4.08687L162.817 11.8133H164.887V0.901443ZM170.868 0.173523V12.5413H167.354V0.173523H170.868ZM170.205 0.901443H168.016V11.8133H170.205V0.901443ZM182.989 0.173523L179.189 12.5406H175.575L171.775 0.173523H175.165L177.382 7.37066L179.593 0.173523H182.989ZM182.066 0.901443H180.068L177.382 9.64337L174.688 0.901443H172.698L176.052 11.8133H178.714L182.067 0.901443H182.066ZM192.402 9.20612V12.5413H183.895V0.173523H192.389L192.37 3.49301H187.432V4.69765H191.566V7.95262H187.41V9.20549H192.403H192.402V9.20612ZM191.739 9.93404H186.746V7.22595H190.903V5.42557H186.768V2.76509H191.712L191.722 0.900816H184.557V11.8127H191.739V9.93153V9.93279V9.93404ZM203.534 12.5413H199.875L198.336 8.5327H197.392V12.5413H193.877V0.173523H199.018C199.988 0.173523 200.787 0.355816 201.394 0.716017C202.012 1.08311 202.47 1.59178 202.754 2.22385C203.029 2.83776 203.169 3.53248 203.169 4.28859C203.169 4.92505 203.089 5.48195 202.932 5.94175C202.772 6.40594 202.55 6.80874 202.271 7.1395C202.061 7.38642 201.829 7.60836 201.578 7.80165L203.535 12.5406H203.534V12.5413ZM200.314 11.8133H202.504L200.733 7.52727L200.984 7.35938C201.283 7.1583 201.553 6.91774 201.783 6.64587C202.003 6.38402 202.181 6.06203 202.309 5.68617C202.437 5.31031 202.504 4.83735 202.504 4.28921C202.504 3.64586 202.387 3.06014 202.156 2.54647C201.93 2.04532 201.578 1.6563 201.075 1.35749C200.566 1.05555 199.874 0.902069 199.015 0.902069H194.538V11.814H196.727V7.80541H198.773L200.312 11.814L200.314 11.8133ZM199.806 3.02882C200.135 3.38464 200.3 3.82064 200.3 4.32179C200.3 4.78347 200.153 5.21196 199.859 5.59471C199.553 5.99625 199.16 6.19985 198.694 6.19985H196.728V2.4951H198.694C199.105 2.4951 199.479 2.67614 199.806 3.0307V3.02882ZM199.638 4.32054C199.64 4.17561 199.615 4.03178 199.564 3.89817C199.512 3.76456 199.437 3.64409 199.341 3.54438C199.14 3.32513 198.928 3.21989 198.694 3.21989H197.39V5.4713H198.694C198.82 5.47458 198.946 5.44511 199.06 5.38527C199.175 5.32542 199.275 5.23688 199.352 5.12676C199.544 4.87619 199.638 4.61246 199.638 4.32242V4.32054ZM214.226 8.58845C214.226 9.42412 214.001 10.1646 213.558 10.7885C213.126 11.3968 212.535 11.8754 211.799 12.208C211.079 12.5356 210.251 12.7023 209.342 12.7023C208.767 12.7019 208.194 12.6225 207.637 12.4661C207.071 12.3064 206.543 12.0614 206.07 11.7382C205.585 11.4062 205.182 10.9833 204.868 10.4797C204.548 9.96411 204.361 9.35333 204.313 8.66425L204.286 8.27273H207.814L207.87 8.56026C207.911 8.77137 207.991 8.94489 208.113 9.09148C208.234 9.23807 208.41 9.35646 208.633 9.44041C208.873 9.53124 209.171 9.57697 209.518 9.57697C209.722 9.57697 209.929 9.55003 210.137 9.49428C210.32 9.44604 210.471 9.36649 210.591 9.25623C210.648 9.20361 210.711 9.11967 210.711 8.9261C210.711 8.69933 210.636 8.61727 210.525 8.56151C210.296 8.44876 210.019 8.35792 209.7 8.29403L207.891 7.93946C207.224 7.80854 206.642 7.58365 206.159 7.27043C205.66 6.94593 205.272 6.51432 205.008 5.98623C204.745 5.4619 204.611 4.83108 204.611 4.11256C204.611 3.24933 204.834 2.49948 205.275 1.87994C205.705 1.2748 206.296 0.809357 207.027 0.493006C207.743 0.185425 208.552 0.0288161 209.435 0.0288161C210.4 0.0288161 211.238 0.196701 211.925 0.525581C212.626 0.86323 213.175 1.34183 213.556 1.94822C213.937 2.55461 214.141 3.26687 214.157 4.0543L214.165 4.42578H210.7L210.667 4.10128C210.645 3.8789 210.587 3.70287 210.492 3.57696C210.394 3.44603 210.262 3.34893 210.086 3.2819C209.891 3.20798 209.644 3.16914 209.356 3.16914C208.776 3.16914 208.551 3.3032 208.469 3.38401C208.266 3.58197 208.265 3.72417 208.265 3.77115C208.265 3.90959 208.311 4.01483 208.414 4.11569C208.485 4.18397 208.678 4.31239 209.176 4.40323L210.751 4.68512C211.528 4.82043 212.18 5.06537 212.687 5.41116C213.209 5.76698 213.601 6.22115 213.852 6.76239C214.1 7.29486 214.226 7.90877 214.226 8.58657V8.58782V8.58845ZM213.563 8.58845C213.563 8.02716 213.462 7.52476 213.262 7.09628C213.066 6.67469 212.755 6.31762 212.338 6.03259C211.906 5.73754 211.337 5.52705 210.647 5.4074L209.07 5.12551C208.556 5.03279 208.199 4.88182 207.975 4.66445C207.858 4.55493 207.764 4.41876 207.7 4.26538C207.636 4.112 207.602 3.94507 207.603 3.77616C207.603 3.43162 207.747 3.1184 208.029 2.8434C208.305 2.57591 208.739 2.44624 209.356 2.44624C209.719 2.44624 210.038 2.4976 210.304 2.59846C210.593 2.70934 210.83 2.88349 211.004 3.1184C211.13 3.28997 211.222 3.48896 211.273 3.70224H213.472C213.414 3.20798 213.261 2.75945 213.013 2.36543C212.703 1.87117 212.248 1.47839 211.661 1.19649C211.057 0.907707 210.309 0.760495 209.437 0.760495C208.636 0.760495 207.907 0.90019 207.269 1.17457C206.649 1.44206 206.154 1.83108 205.798 2.33223C205.445 2.82648 205.274 3.41032 205.274 4.11632C205.274 4.71143 205.38 5.22448 205.587 5.63856C205.795 6.05263 206.1 6.39028 206.497 6.64838C206.909 6.91774 207.417 7.11131 208.006 7.22658L209.817 7.58114C210.19 7.65631 210.52 7.76343 210.797 7.90125C211.169 8.08668 211.372 8.45063 211.372 8.92923C211.372 9.29257 211.249 9.59827 211.018 9.81501C210.806 10.0055 210.558 10.1391 210.291 10.2053C210.033 10.2736 209.772 10.308 209.517 10.308C209.095 10.308 208.724 10.2485 208.416 10.1314C208.089 10.0073 207.822 9.82378 207.624 9.58574C207.482 9.41597 207.373 9.22115 207.298 9.00315H205.019C205.083 9.38552 205.217 9.74949 205.414 10.0725C205.675 10.4928 206.013 10.8455 206.419 11.1236C206.846 11.4133 207.312 11.6294 207.799 11.7645C208.305 11.9067 208.823 11.9781 209.34 11.9781C210.163 11.9781 210.905 11.8303 211.545 11.5396C212.173 11.2546 212.673 10.8518 213.034 10.3431C213.389 9.8432 213.561 9.27064 213.561 8.59033L213.563 8.58908V8.58845ZM219.121 0.173523V12.5413H215.607V0.173523H219.121ZM218.458 0.901443H216.269V11.8133H218.458V0.901443ZM229.719 0.173523V3.65401H226.684V12.5413H223.162V3.65401H220.156V0.173523H229.719ZM229.056 0.901443H220.819V2.92609H223.824V11.8133H226.021V2.92609H229.056V0.901443ZM241.674 0.173523L237.64 7.4333V12.5413H234.117V7.4333L230.131 0.173523H233.992L235.891 3.92275L237.772 0.173523H241.674ZM240.494 0.901443H238.165L235.896 5.42682L233.604 0.901443H231.307L234.783 7.22971V11.8133H236.979V7.22971L240.496 0.901443H240.494ZM61.3472 23.7207C61.3472 24.9792 61.1227 26.0961 60.6817 27.0402C60.2356 27.9942 59.5924 28.7447 58.7703 29.2715C57.9533 29.794 56.9819 30.0602 55.8835 30.0602C54.785 30.0602 53.7983 29.7952 52.9784 29.2728C52.1552 28.7472 51.5091 27.998 51.0602 27.047C50.6152 26.1055 50.3913 24.9879 50.3913 23.7232C50.3913 22.4584 50.6209 21.3283 51.0721 20.378C51.5081 19.443 52.178 18.6645 53.0029 18.1341C53.825 17.606 54.7953 17.3379 55.8829 17.3379C56.9705 17.3379 57.9322 17.6054 58.7492 18.1354C59.5696 18.6666 60.2157 19.4214 60.6681 20.3792C61.117 21.3289 61.3449 22.454 61.3449 23.7244L61.3466 23.72L61.3472 23.7207ZM60.6817 23.7207C60.6817 22.5686 60.4795 21.5576 60.0801 20.7131C59.6847 19.8775 59.1241 19.221 58.4125 18.7612C57.7009 18.3014 56.8469 18.0646 55.8835 18.0646C54.9201 18.0646 54.0575 18.2995 53.3379 18.7612C52.6209 19.2227 52.0387 19.8999 51.6601 20.7131C51.2579 21.5576 51.0545 22.5699 51.0545 23.7207C51.0545 24.8714 51.2544 25.8725 51.6498 26.7094C52.0401 27.5357 52.599 28.1859 53.3123 28.6401C54.0296 29.0974 54.8944 29.3292 55.884 29.3292C56.8737 29.3292 57.7214 29.0974 58.4364 28.6401C59.1469 28.1859 59.7035 27.535 60.0909 26.7063C60.484 25.8675 60.6823 24.862 60.6823 23.72L60.6817 23.7207ZM57.9636 21.5645C58.1504 22.1226 58.245 22.8643 58.245 23.7689C58.245 24.6735 58.1504 25.3682 57.9624 25.9051C57.7641 26.4732 57.4776 26.8948 57.1129 27.1542C56.7535 27.4104 56.3398 27.5401 55.8846 27.5401C55.4294 27.5401 55.0158 27.4104 54.6563 27.1542C54.2917 26.8948 54.0039 26.4751 53.8028 25.9069C53.6097 25.3613 53.5163 24.6622 53.5163 23.7683C53.5163 22.8743 53.612 22.1207 53.8017 21.5626C54.0017 20.9744 54.2865 20.5371 54.6483 20.264C55.0101 19.9909 55.4248 19.8524 55.884 19.8524C56.3432 19.8524 56.758 19.9902 57.1204 20.264C57.4827 20.5377 57.767 20.9762 57.9641 21.5638L57.963 21.5651L57.9636 21.5645ZM57.5796 23.7689C57.5796 22.9501 57.4992 22.2936 57.3386 21.8163C57.1893 21.3722 56.9882 21.0514 56.7421 20.8654C56.4902 20.6743 56.2088 20.5822 55.8835 20.5822C55.5771 20.5757 55.2765 20.6747 55.0238 20.8654C54.7759 21.052 54.5737 21.374 54.4233 21.8182C54.2615 22.2936 54.1794 22.952 54.1794 23.7689C54.1794 24.5858 54.2609 25.1884 54.4221 25.6426C54.5714 26.0654 54.7725 26.3674 55.0175 26.5428C55.2761 26.7248 55.5782 26.8179 55.8852 26.8103C56.2156 26.8103 56.4988 26.7219 56.7512 26.5428C56.9962 26.3692 57.1944 26.0654 57.3426 25.6445C57.5009 25.1903 57.5813 24.5595 57.5813 23.7689H57.5796ZM66.1363 20.7914V22.1602H70.2457V25.3926H66.1363V29.8967H62.6125V17.4951H71.0719L71.0525 20.7914H66.1363ZM65.472 22.8906V20.0629H70.3922L70.4024 18.2262H63.2768V29.1682H65.472V24.6641H69.582V22.8913L65.472 22.8906ZM82.4317 29.8998V20.4356H85.6637V17.5039H76.1863V20.4356H79.387V29.8998H82.4317ZM95.4608 29.8998V27.1228H90.1441V25.0136H94.5703V22.3225H90.1674V20.2646H95.4283L95.4442 17.5052H87.1068V29.9011H95.4596L95.4608 29.8998ZM104.555 29.6894C105.155 29.4344 105.634 29.0842 105.996 28.6344C106.358 28.1856 106.637 27.6631 106.816 27.0965C107.004 26.5044 107.136 25.8928 107.21 25.2711H104.041C103.988 25.6409 103.88 25.9984 103.72 26.3291C103.565 26.6524 103.36 26.9105 103.107 27.1053C102.854 27.3001 102.554 27.3972 102.206 27.3972C101.634 27.3972 101.161 27.1066 100.792 26.5271C100.423 25.9476 100.239 24.9679 100.239 23.591C100.239 22.6827 100.323 21.966 100.493 21.4436C100.662 20.9211 100.895 20.5509 101.192 20.3329C101.488 20.1149 101.827 20.0071 102.206 20.0071C102.554 20.0071 102.855 20.0823 103.107 20.2352C103.36 20.387 103.572 20.6102 103.72 20.8817C103.876 21.1623 103.983 21.4937 104.041 21.8758H107.21C107.127 20.9844 106.866 20.197 106.429 19.5148C105.992 18.8326 105.419 18.297 104.713 17.9111C104.006 17.5252 103.203 17.3329 102.308 17.3329C101.21 17.3329 100.257 17.5891 99.4472 18.1003C98.6376 18.6114 98.012 19.3318 97.5693 20.2602C97.1266 21.1886 96.9056 22.2824 96.9056 23.5384C96.9056 24.7944 97.1289 25.9163 97.5773 26.8992C98.0257 27.8821 98.6535 28.6564 99.4631 29.222C100.273 29.7877 101.22 30.069 102.308 30.069C103.208 30.069 103.958 29.9424 104.557 29.6875L104.555 29.6894ZM112.12 29.8998V24.9284H116.015V29.8998H119.053V17.5039H116.015V22.2016H112.12V17.5039H109.083V29.8998H112.12ZM131.722 17.5095V29.8998H128.64L124.701 23.7369V29.8998H121.181V17.5095H124.564L128.201 23.217V17.5095H131.722ZM131.059 18.2387H128.866V25.5311L124.218 18.2387H121.843V29.1707H124.036V21.4298L128.985 29.1707H131.059V18.2387ZM143.933 23.7294C143.933 24.9867 143.71 26.1018 143.269 27.0458C142.823 27.9999 142.181 28.7491 141.36 29.274C140.543 29.7965 139.573 30.0615 138.476 30.0615C137.38 30.0615 136.392 29.7965 135.574 29.274C134.75 28.7484 134.106 28.0011 133.657 27.0496C133.214 26.1099 132.988 24.9917 132.988 23.7288C132.988 22.4659 133.216 21.3352 133.669 20.3868C134.124 19.4283 134.774 18.6735 135.599 18.1441C136.424 17.6148 137.388 17.3479 138.476 17.3479C139.565 17.3479 140.523 17.6154 141.34 18.1441C142.157 18.6728 142.805 19.4283 143.258 20.3868C143.706 21.3352 143.934 22.4603 143.934 23.7288L143.933 23.7294ZM143.269 23.7294C143.269 22.5787 143.067 21.5676 142.667 20.7232C142.272 19.8888 141.712 19.2322 141.001 18.7724C140.288 18.3114 139.437 18.0777 138.475 18.0777C137.512 18.0777 136.65 18.3114 135.932 18.7743C135.215 19.2351 134.633 19.9121 134.255 20.725C133.854 21.5682 133.651 22.5793 133.651 23.7294C133.651 24.8796 133.851 25.8794 134.245 26.7157C134.634 27.5413 135.192 28.1909 135.906 28.6451C136.622 29.1024 137.487 29.3342 138.475 29.3342C139.463 29.3342 140.311 29.1024 141.026 28.6463C141.736 28.1919 142.31 27.5205 142.679 26.7138C143.072 25.875 143.271 24.8714 143.271 23.7307L143.269 23.7294ZM140.554 21.5751C140.74 22.1333 140.835 22.8737 140.835 23.7783C140.835 24.6829 140.743 25.3688 140.552 25.9126C140.354 26.4807 140.069 26.9011 139.703 27.1598C139.344 27.416 138.93 27.5457 138.476 27.5457C138.023 27.5457 137.609 27.416 137.249 27.1611C136.885 26.9017 136.599 26.482 136.397 25.9151C136.204 25.3694 136.111 24.6703 136.111 23.7789C136.111 22.8875 136.207 22.1326 136.396 21.5745C136.596 20.9863 136.881 20.549 137.243 20.2759C137.605 20.0028 138.02 19.8643 138.478 19.8643C138.935 19.8643 139.35 20.0021 139.712 20.2746C140.074 20.5471 140.358 20.985 140.555 21.5745H140.554V21.5751ZM140.17 23.7783C140.17 22.9608 140.089 22.3043 139.93 21.8276C139.781 21.3834 139.58 21.0639 139.333 20.876C139.081 20.6861 138.781 20.5875 138.475 20.5941C138.169 20.5877 137.869 20.6862 137.617 20.876C137.369 21.0627 137.167 21.3828 137.016 21.8288C136.854 22.3043 136.772 22.9608 136.772 23.7783C136.772 24.5958 136.854 25.1978 137.013 25.6507C137.163 26.0736 137.364 26.3755 137.609 26.549C137.862 26.7301 138.145 26.8165 138.475 26.8165C138.804 26.8165 139.087 26.7282 139.341 26.549C139.585 26.3755 139.783 26.0736 139.931 25.652C140.089 25.1991 140.17 24.5689 140.17 23.7783ZM152.964 26.591V29.9005H145.197V17.5095H148.718V26.5904H152.964V26.591ZM152.3 27.3202H148.055V18.2387H145.862V29.1707H152.3V27.3202ZM164.287 23.7301C164.287 24.9873 164.063 26.1024 163.622 27.0464C163.176 28.0005 162.533 28.751 161.714 29.2747C160.895 29.7984 159.927 30.0621 158.83 30.0621C157.733 30.0621 156.746 29.7971 155.928 29.2747C155.104 28.7491 154.46 28.0017 154.011 27.0502C153.567 26.1105 153.342 24.9923 153.342 23.7294C153.342 22.4665 153.57 21.3358 154.023 20.3874C154.478 19.4289 155.127 18.6741 155.952 18.1447C156.773 17.6167 157.742 17.3485 158.83 17.3485C159.918 17.3485 160.876 17.616 161.693 18.1447C162.51 18.6735 163.159 19.4289 163.611 20.3874C164.06 21.3358 164.288 22.4609 164.288 23.7294L164.287 23.7301ZM163.622 23.7301C163.622 22.5793 163.42 21.5682 163.021 20.7238C162.625 19.8894 162.065 19.2329 161.354 18.7731C160.643 18.3133 159.79 18.0783 158.827 18.0783C157.864 18.0783 157.002 18.312 156.286 18.7749C155.569 19.2358 154.987 19.9127 154.609 20.7257C154.208 21.5689 154.004 22.5799 154.004 23.7301C154.004 24.8802 154.204 25.88 154.598 26.7163C154.987 27.5419 155.546 28.1915 156.259 28.6457C156.973 29.0999 157.84 29.3348 158.828 29.3348C159.816 29.3348 160.664 29.103 161.379 28.647C162.089 28.1925 162.664 27.5211 163.033 26.7144C163.425 25.8756 163.624 24.8721 163.624 23.7313L163.622 23.7301ZM160.906 21.5757C161.095 22.1408 161.187 22.8618 161.187 23.7789C161.187 24.696 161.095 25.3694 160.905 25.9132C160.706 26.4814 160.419 26.9017 160.055 27.1604C159.695 27.4166 159.282 27.5463 158.827 27.5463C158.372 27.5463 157.959 27.4166 157.6 27.1604C157.236 26.9011 156.949 26.4826 156.748 25.9144C156.555 25.3688 156.462 24.6716 156.462 23.7783C156.462 22.885 156.555 22.1395 156.747 21.5739C156.947 20.9856 157.232 20.5484 157.594 20.2765C157.955 20.0046 158.371 19.8649 158.828 19.8649C159.286 19.8649 159.701 20.0028 160.063 20.2753C160.425 20.5478 160.709 20.9863 160.906 21.5757ZM160.523 23.7789C160.523 22.9602 160.443 22.3037 160.283 21.8282C160.135 21.3841 159.933 21.0646 159.687 20.8766C159.434 20.6867 159.134 20.5882 158.828 20.5947C158.522 20.5883 158.223 20.6868 157.97 20.8766C157.722 21.0633 157.52 21.3834 157.37 21.8295C157.207 22.3049 157.126 22.9614 157.126 23.7789C157.126 24.5964 157.207 25.1984 157.367 25.6513C157.516 26.0742 157.717 26.3761 157.962 26.5497C158.215 26.7307 158.499 26.8171 158.828 26.8171C159.157 26.8171 159.441 26.7288 159.695 26.5497C159.939 26.3761 160.137 26.0742 160.285 25.6526C160.443 25.1997 160.523 24.5695 160.523 23.7789ZM175.631 23.0128V29.8998H173.095V29.078L173.004 29.1619C172.73 29.4125 172.38 29.6273 171.965 29.7996C171.55 29.9719 171.019 30.0602 170.393 30.0602C169.327 30.0602 168.381 29.7883 167.577 29.2527C166.773 28.7171 166.141 27.9629 165.697 27.0101C165.259 26.0673 165.038 24.9679 165.038 23.7432C165.038 22.5185 165.275 21.3521 165.742 20.3968C166.212 19.434 166.873 18.6778 167.702 18.1454C168.532 17.6129 169.496 17.3454 170.569 17.3454C171.321 17.3454 172.008 17.472 172.611 17.7244C173.214 17.9769 173.742 18.3252 174.175 18.7599C174.608 19.1947 174.947 19.6983 175.181 20.2508C175.415 20.8033 175.539 21.3872 175.55 21.9779L175.556 22.3494H171.961L171.904 22.0631C171.848 21.7881 171.759 21.5407 171.636 21.3239C171.52 21.1203 171.371 20.965 171.183 20.8453C171 20.7301 170.77 20.6718 170.496 20.6718C170.21 20.6713 169.93 20.7601 169.689 20.928C169.444 21.0934 169.239 21.3866 169.078 21.8006C168.908 22.2391 168.822 22.8599 168.822 23.6461C168.822 24.3183 168.884 24.8608 169.006 25.2592C169.124 25.6407 169.272 25.9314 169.446 26.1205C169.619 26.3097 169.805 26.435 170.001 26.4977C170.404 26.6273 170.775 26.6386 171.069 26.5277C171.209 26.4751 171.332 26.4068 171.439 26.3229C171.539 26.2449 171.629 26.1515 171.705 26.0454C171.758 25.9702 171.798 25.8931 171.827 25.8173H170.103V22.974L175.628 23.0109H175.631V23.0128ZM174.967 23.7376L170.77 23.7088V25.0901H172.745L172.479 25.9871C172.428 26.1594 172.345 26.3285 172.232 26.4914C172.117 26.6532 171.981 26.796 171.829 26.9155C171.663 27.0454 171.48 27.1476 171.287 27.2187C170.861 27.3797 170.353 27.3722 169.815 27.1986C169.499 27.0919 169.213 26.9 168.981 26.6405C168.732 26.3711 168.53 25.9852 168.378 25.4941C168.233 25.0199 168.159 24.3991 168.159 23.6474C168.159 22.7503 168.26 22.0537 168.469 21.5169C168.684 20.9618 168.977 20.5559 169.341 20.3091C169.7 20.0667 170.087 19.9445 170.496 19.9445C170.904 19.9445 171.228 20.0353 171.513 20.2151C171.797 20.3949 172.025 20.6367 172.199 20.9387C172.32 21.152 172.416 21.3817 172.484 21.6221H174.861C174.819 21.2606 174.725 20.9042 174.578 20.5584C174.382 20.0942 174.096 19.6701 173.726 19.2999C173.356 18.9297 172.9 18.6277 172.375 18.4085C171.849 18.1892 171.24 18.0783 170.569 18.0783C169.614 18.0783 168.762 18.3133 168.037 18.7787C167.313 19.2441 166.738 19.9038 166.326 20.7451C165.912 21.592 165.701 22.6031 165.701 23.7451C165.701 24.8871 165.899 25.8412 166.289 26.68C166.674 27.51 167.224 28.1665 167.922 28.6307C168.62 29.0949 169.451 29.331 170.393 29.331C170.938 29.331 171.388 29.2584 171.73 29.1174C172.073 28.9765 172.362 28.7998 172.579 28.6019L173.188 27.9911L173.757 27.3471V29.17H174.966V23.7363H174.967V23.7376ZM186.758 17.5102L182.716 24.7837V29.9005H179.187V24.7825L175.193 17.5102H179.06L180.964 21.2669L182.848 17.5102H186.757H186.758ZM185.574 18.2393H183.239L180.966 22.7735L178.668 18.2393H176.367L179.848 24.5801V29.1725H182.049V24.5801L185.572 18.2406L185.574 18.2393ZM0 0.150971V7.58678H7.21162V29.8967H14.4346V7.58678H19.622L22.0342 0.150971H0ZM27.4028 7.58678H22.2154L24.6276 0.150971H42.7832L40.3709 7.58678H35.1836V29.8967H27.4028V7.58678Z" fill="#E54519"/>
</g>
<defs>
<clipPath id="clip0_528_11495">
<rect width="42.8812" height="30.198" fill="white"/>
</clipPath>
</defs>
</svg>
