<svg width="95" height="145" viewBox="0 0 95 145" fill="none" xmlns="http://www.w3.org/2000/svg">
<path d="M57.9583 108.71V127.33C57.9583 135.845 64.8606 142.747 73.375 142.747C81.8894 142.747 88.7917 135.845 88.7917 127.33L88.7917 108.71M73.375 4V11.7083M122.433 24.3172L116.982 29.7678M24.3172 24.3172L29.7678 29.7678M11.7083 73.375H4M142.75 73.375H135.042M111.917 73.375C111.917 94.661 94.661 111.917 73.375 111.917C52.089 111.917 34.8333 94.661 34.8333 73.375C34.8333 52.089 52.089 34.8333 73.375 34.8333C94.661 34.8333 111.917 52.089 111.917 73.375Z" stroke="#F5F5F5" stroke-width="8" stroke-linecap="round" stroke-linejoin="round"/>
</svg>
