<svg width="25" height="25" viewBox="0 0 25 25" fill="none" xmlns="http://www.w3.org/2000/svg">
<path d="M10.076 16.7098V19.1438C10.076 20.2567 10.9782 21.1589 12.0911 21.1589C13.2041 21.1589 14.1063 20.2567 14.1063 19.1438L14.1063 16.7098M12.0911 3.02295V4.03052M18.5036 5.67866L17.7911 6.39112M5.67866 5.67866L6.39112 6.39112M4.03052 12.0911H3.02295M21.1593 12.0911H20.1517M17.129 12.0911C17.129 14.8735 14.8735 17.129 12.0911 17.129C9.30879 17.129 7.05325 14.8735 7.05325 12.0911C7.05325 9.30879 9.30879 7.05325 12.0911 7.05325C14.8735 7.05325 17.129 9.30879 17.129 12.0911Z" stroke="white" stroke-width="2" stroke-linecap="round" stroke-linejoin="round"/>
</svg>
