<svg width="333" height="251" viewBox="0 0 333 251" fill="none" xmlns="http://www.w3.org/2000/svg">
<g style="mix-blend-mode:overlay" clip-path="url(#clip0_150_81617)">
<path d="M422.021 104.629V25.725H395.341V1.28521H474.358V25.725H447.418V104.629H422.035H422.021ZM561.044 104.629H536.047L529.799 84.6199H500.121L493.74 104.629H468.486L501.808 1.28521H527.708L561.03 104.629H561.044ZM524.078 60.8906L514.841 27.8775L505.461 60.8906H524.078ZM630.292 101.913C636.369 99.1438 641.173 95.2725 644.708 90.2988C648.243 85.3252 650.011 79.4686 650.011 72.7605C650.011 67.2383 649.013 62.3221 647.013 58.0328C645.012 53.7436 641.928 50.1701 637.733 47.3071C633.537 44.4441 628.173 42.4484 621.63 41.3095L607.632 38.8018C603.689 38.0912 600.942 36.9732 599.403 35.479C598.674 34.8127 598.088 33.9771 597.688 33.0322C597.288 32.0872 597.083 31.0566 597.089 30.0143C597.089 27.8775 598.02 25.9654 599.892 24.1577C601.764 22.3501 605.029 21.4358 609.723 21.4358C612.631 21.4358 615.106 21.8276 617.173 22.6113C619.24 23.3949 620.875 24.607 622.082 26.2214C623.288 27.8357 624.039 29.962 624.301 32.5847H649.426C649.293 26.1952 647.697 20.5529 644.613 15.6471C641.529 10.7414 637.115 6.90668 631.361 4.13774C625.607 1.3688 618.646 0 610.436 0C602.928 0 596.158 1.29566 590.123 3.89742C584.089 6.49918 579.318 10.2608 575.807 15.1926C572.296 20.1245 570.528 26.0698 570.528 33.0183C570.528 38.8853 571.578 43.906 573.688 48.1012C575.797 52.2964 578.834 55.6923 582.825 58.2888C586.816 60.8854 591.606 62.7296 597.208 63.8215L613.282 66.9666C616.361 67.5831 619.036 68.4503 621.283 69.5788C623.531 70.7073 624.666 72.7605 624.666 75.7645C624.666 78.058 623.968 79.85 622.547 81.1561C621.127 82.4622 619.392 83.4026 617.316 83.946C615.29 84.4844 613.214 84.7597 611.129 84.7662C607.699 84.7662 604.758 84.3012 602.315 83.3765C599.873 82.4518 597.92 81.1195 596.485 79.4112C595.035 77.661 594.045 75.5102 593.62 73.1889H567.844C568.233 78.7581 569.706 83.6168 572.267 87.7389C574.828 91.8609 578.097 95.2777 582.069 97.9996C586.042 100.722 590.394 102.738 595.155 104.081C599.916 105.424 604.715 106.077 609.571 106.077C617.292 106.077 624.191 104.697 630.273 101.934L630.292 101.913ZM690.427 104.629V63.1841H722.903V104.629H748.224V1.28521H722.903V40.4527H690.427V1.28521H665.106V104.629H690.427ZM793.386 104.629V77.614L805.099 61.0369L826.062 104.635H853.26L823.192 40.74L849.031 1.28521H820.589L793.377 43.0179V1.28521H767.082V104.629H793.377H793.386ZM935.47 104.629V81.4696H891.148V63.8946H928.048V41.4453H891.343V24.2988H935.208L935.337 1.28521H865.827V104.629H935.47ZM976.727 104.629V43.0283L1016.11 104.629H1038.95V1.28521H1013.63V58.8792L976.921 1.28521H951.411V104.629H976.727ZM1103.06 104.629V25.725H1130V1.28521H1050.99V25.725H1077.67V104.629H1103.05H1103.06ZM1253.5 1.44716V61.4078C1253.5 70.0177 1252.21 77.7132 1249.67 84.2803C1247.03 91.0982 1242.62 96.4898 1236.56 100.304C1230.59 104.044 1222.53 105.946 1212.58 105.946C1202.64 105.946 1194.59 104.044 1188.62 100.304C1182.54 96.4898 1178.13 91.0982 1175.5 84.2803C1172.96 77.7132 1171.67 70.0177 1171.67 61.4078V1.44716H1201.29V62.4788C1201.29 68.2727 1202.41 72.3216 1204.63 74.5315C1206.95 76.846 1209.56 77.9744 1212.58 77.9744C1214.53 77.9929 1216.46 77.4775 1218.18 76.475C1219.84 75.5242 1221.15 74.0039 1222.23 71.8201C1223.33 69.5631 1223.88 66.4285 1223.88 62.484V1.46284H1253.49L1253.5 1.44716ZM1247.97 7.51794H1229.41V62.4788C1229.41 67.442 1228.64 71.5536 1227.1 74.6883C1225.51 77.9326 1223.38 80.3411 1220.75 81.851C1218.24 83.3055 1215.44 84.0589 1212.6 84.0452C1208.19 84.0452 1204.27 82.3577 1200.93 79.035C1197.51 75.6287 1195.77 70.0699 1195.77 62.4893V7.52839H1177.21V61.4235C1177.21 69.2131 1178.35 76.1145 1180.6 81.9189C1182.78 87.5717 1186.3 91.8609 1191.38 95.0426C1196.5 98.2504 1203.63 99.8752 1212.6 99.8752C1221.57 99.8752 1228.7 98.2504 1233.82 95.0426C1238.89 91.8609 1242.41 87.5717 1244.6 81.9189C1246.85 76.0989 1247.98 69.2131 1247.98 61.4235V7.52839L1247.97 7.51794ZM1354.67 1.44716V104.593H1329L1296.21 53.2995V104.593H1266.9V1.44716H1295.07L1325.35 48.9632V1.44716H1354.66H1354.67ZM1349.14 7.51794H1330.89V68.2152L1292.2 7.51794H1272.44V98.5221H1290.69V34.0841L1331.88 98.5221H1349.14V7.51794ZM1399.02 1.44716V104.593H1369.71V1.44716H1399.02ZM1393.49 7.51794H1375.24V98.5221H1393.49V7.51794ZM1500.11 1.44716L1468.41 104.588H1438.28L1406.58 1.44716H1434.85L1453.35 61.4705L1471.79 1.44716H1500.11ZM1492.41 7.51794H1475.74L1453.35 80.4247L1430.88 7.51794H1414.28L1442.25 98.5221H1464.46L1492.42 7.51794H1492.41ZM1578.61 76.7781V104.593H1507.66V1.44716H1578.5L1578.35 29.1314H1537.16V39.1779H1571.64V66.324H1536.98V76.7728H1578.62H1578.61V76.7781ZM1573.08 82.8488H1531.44V60.2637H1566.11V45.2487H1531.63V23.0606H1572.86L1572.94 7.51271H1513.19V98.5169H1573.08V82.8279V82.8384V82.8488ZM1671.45 104.593H1640.94L1628.1 71.1618H1620.23V104.593H1590.92V1.44716H1633.79C1641.88 1.44716 1648.54 2.96747 1653.6 5.97151C1658.76 9.03302 1662.58 13.2752 1664.95 18.5467C1667.24 23.6666 1668.41 29.4605 1668.41 35.7664C1668.41 41.0744 1667.74 45.7189 1666.43 49.5536C1665.1 53.4249 1663.25 56.7842 1660.91 59.5427C1659.17 61.6019 1657.23 63.4529 1655.14 65.0649L1671.46 104.588H1671.45V104.593ZM1644.59 98.5221H1662.86L1648.1 62.7766L1650.19 61.3765C1652.68 59.6994 1654.93 57.6933 1656.85 55.4259C1658.69 53.242 1660.17 50.5567 1661.24 47.422C1662.31 44.2874 1662.86 40.343 1662.86 35.7716C1662.86 30.4061 1661.88 25.5213 1659.96 21.2373C1658.08 17.0577 1655.14 13.8134 1650.94 11.3213C1646.7 8.80314 1640.93 7.52316 1633.76 7.52316H1596.42V98.5273H1614.68V65.0963H1631.75L1644.58 98.5273L1644.59 98.5221ZM1640.36 25.2601C1643.1 28.2275 1644.48 31.8637 1644.48 36.0433C1644.48 39.8937 1643.25 43.4672 1640.81 46.6593C1638.25 50.0081 1634.98 51.7061 1631.08 51.7061H1614.69V20.8089H1631.08C1634.51 20.8089 1637.64 22.3187 1640.36 25.2757V25.2601ZM1638.96 36.0328C1638.98 34.8242 1638.76 33.6247 1638.34 32.5104C1637.91 31.3961 1637.28 30.3913 1636.48 29.5598C1634.81 27.7312 1633.04 26.8535 1631.08 26.8535H1620.21V45.6301H1631.08C1632.14 45.6574 1633.19 45.4116 1634.14 44.9125C1635.1 44.4135 1635.93 43.675 1636.58 42.7566C1638.18 40.6669 1638.96 38.4674 1638.96 36.0485V36.0328ZM1760.62 71.6268C1760.62 78.5961 1758.75 84.7714 1755.05 89.9749C1751.45 95.0478 1746.52 99.0393 1740.38 101.813C1734.37 104.546 1727.47 105.936 1719.89 105.936C1715.09 105.932 1710.32 105.271 1705.67 103.966C1700.95 102.634 1696.55 100.591 1692.6 97.8951C1688.56 95.1262 1685.19 91.5997 1682.58 87.3993C1679.91 83.0996 1678.35 78.0058 1677.95 72.2589L1677.72 68.9937H1707.15L1707.61 71.3917C1707.96 73.1523 1708.62 74.5995 1709.64 75.822C1710.65 77.0445 1712.12 78.0319 1713.97 78.732C1715.97 79.4895 1718.46 79.8709 1721.36 79.8709C1723.06 79.8709 1724.79 79.6463 1726.52 79.1813C1728.04 78.779 1729.31 78.1155 1730.31 77.196C1730.78 76.7571 1731.31 76.0571 1731.31 74.4427C1731.31 72.5515 1730.68 71.8671 1729.75 71.4021C1727.85 70.4617 1725.53 69.7042 1722.87 69.1713L1707.79 66.2143C1702.23 65.1224 1697.37 63.2468 1693.35 60.6346C1689.19 57.9283 1685.95 54.3287 1683.75 49.9245C1681.55 45.5517 1680.43 40.2907 1680.43 34.2983C1680.43 27.0991 1682.3 20.8454 1685.97 15.6785C1689.56 10.6317 1694.48 6.74995 1700.58 4.11162C1706.55 1.54643 1713.3 0.240323 1720.67 0.240323C1728.71 0.240323 1735.7 1.64047 1741.43 4.38329C1747.28 7.19925 1751.86 11.1907 1755.04 16.2479C1758.22 21.3052 1759.92 27.2453 1760.04 33.8124L1760.11 36.9105H1731.21L1730.94 34.2043C1730.76 32.3496 1730.27 30.8815 1729.48 29.8314C1728.66 28.7395 1727.56 27.9297 1726.1 27.3707C1724.47 26.7542 1722.41 26.4303 1720.01 26.4303C1715.17 26.4303 1713.29 27.5484 1712.61 28.2223C1710.91 29.8732 1710.91 31.0592 1710.91 31.451C1710.91 32.6056 1711.29 33.4833 1712.15 34.3244C1712.74 34.8939 1714.35 35.9649 1718.5 36.7224L1731.64 39.0734C1738.12 40.2019 1743.56 42.2446 1747.79 45.1285C1752.14 48.096 1755.41 51.8837 1757.5 56.3976C1759.57 60.8383 1760.62 65.9583 1760.62 71.6111V71.6215V71.6268ZM1755.09 71.6268C1755.09 66.9457 1754.25 62.7557 1752.58 59.1822C1750.95 55.6662 1748.36 52.6883 1744.87 50.3111C1741.27 47.8504 1736.52 46.095 1730.77 45.0972L1717.62 42.7462C1713.33 41.973 1710.36 40.7139 1708.49 38.901C1707.52 37.9876 1706.73 36.852 1706.2 35.5728C1705.66 34.2936 1705.38 32.9015 1705.38 31.4928C1705.38 28.6194 1706.59 26.0072 1708.94 23.7136C1711.24 21.4828 1714.86 20.4014 1720.01 20.4014C1723.04 20.4014 1725.7 20.8298 1727.92 21.6709C1730.32 22.5956 1732.3 24.048 1733.75 26.0072C1734.81 27.438 1735.57 29.0976 1735.99 30.8763H1754.33C1753.85 26.7542 1752.57 23.0136 1750.51 19.7274C1747.92 15.6053 1744.13 12.3296 1739.23 9.97864C1734.2 7.57018 1727.96 6.34244 1720.68 6.34244C1714 6.34244 1707.93 7.50749 1702.6 9.79578C1697.43 12.0266 1693.31 15.271 1690.33 19.4505C1687.39 23.5726 1685.96 28.4417 1685.96 34.3297C1685.96 39.2929 1686.85 43.5716 1688.58 47.025C1690.31 50.4783 1692.85 53.2943 1696.16 55.4468C1699.6 57.6932 1703.84 59.3076 1708.75 60.2689L1723.85 63.2259C1726.96 63.8528 1729.71 64.7462 1732.03 65.8956C1735.13 67.442 1736.82 70.4774 1736.82 74.4689C1736.82 77.499 1735.8 80.0485 1733.86 81.8562C1732.1 83.4448 1730.03 84.5593 1727.81 85.111C1725.65 85.6805 1723.48 85.9678 1721.35 85.9678C1717.83 85.9678 1714.74 85.4715 1712.17 84.4945C1709.44 83.4601 1707.21 81.9293 1705.56 79.944C1704.38 78.5282 1703.47 76.9034 1702.84 75.0853H1683.84C1684.37 78.2742 1685.49 81.3097 1687.13 84.0034C1689.3 87.509 1692.13 90.4503 1695.51 92.77C1699.08 95.1859 1702.96 96.9882 1707.02 98.1146C1711.24 99.3005 1715.56 99.8961 1719.88 99.8961C1726.74 99.8961 1732.92 98.6631 1738.26 96.239C1743.5 93.8619 1747.67 90.5026 1750.68 86.2604C1753.64 82.0913 1755.08 77.3162 1755.08 71.6424L1755.09 71.632V71.6268ZM1801.45 1.44716V104.593H1772.14V1.44716H1801.45ZM1795.92 7.51794H1777.66V98.5221H1795.92V7.51794ZM1889.83 1.44716V30.474H1864.52V104.593H1835.15V30.474H1810.08V1.44716H1889.83ZM1884.3 7.51794H1815.6V24.4033H1840.67V98.5221H1858.99V24.4033H1884.3V7.51794ZM1989.54 1.44716L1955.89 61.9929V104.593H1926.51V61.9929L1893.27 1.44716H1925.47L1941.31 32.7153L1956.99 1.44716H1989.54ZM1979.7 7.51794H1960.27L1941.35 45.2591L1922.23 7.51794H1903.08L1932.06 60.295V98.5221H1950.38V60.295L1979.71 7.51794H1979.7ZM485.629 197.828C485.629 208.324 483.757 217.639 480.079 225.512C476.359 233.469 470.994 239.728 464.138 244.121C457.324 248.479 449.223 250.699 440.062 250.699C430.901 250.699 422.672 248.489 415.835 244.132C408.969 239.749 403.58 233.5 399.836 225.569C396.125 217.717 394.258 208.397 394.258 197.849C394.258 187.301 396.173 177.876 399.936 169.95C403.572 162.152 409.159 155.66 416.039 151.236C422.895 146.832 430.987 144.596 440.057 144.596C449.128 144.596 457.149 146.827 463.962 151.247C470.804 155.677 476.192 161.973 479.965 169.961C483.709 177.881 485.61 187.264 485.61 197.859L485.624 197.823L485.629 197.828ZM480.079 197.828C480.079 188.22 478.392 179.788 475.062 172.745C471.764 165.776 467.089 160.301 461.154 156.466C455.219 152.631 448.097 150.657 440.062 150.657C432.027 150.657 424.834 152.616 418.833 156.466C412.852 160.315 407.997 165.963 404.84 172.745C401.485 179.788 399.789 188.231 399.789 197.828C399.789 207.425 401.457 215.774 404.754 222.754C408.009 229.645 412.67 235.067 418.619 238.855C424.601 242.669 431.814 244.602 440.067 244.602C448.32 244.602 455.391 242.669 461.354 238.855C467.279 235.067 471.921 229.639 475.152 222.727C478.43 215.732 480.084 207.347 480.084 197.823L480.079 197.828ZM457.41 179.845C458.968 184.5 459.757 190.686 459.757 198.23C459.757 205.774 458.968 211.568 457.4 216.045C455.747 220.784 453.357 224.3 450.316 226.463C447.318 228.6 443.868 229.681 440.072 229.681C436.275 229.681 432.826 228.6 429.828 226.463C426.787 224.3 424.387 220.8 422.71 216.061C421.099 211.511 420.32 205.68 420.32 198.225C420.32 190.77 421.118 184.485 422.7 179.83C424.368 174.924 426.744 171.277 429.761 168.999C432.778 166.722 436.237 165.567 440.067 165.567C443.897 165.567 447.356 166.716 450.378 168.999C453.4 171.283 455.771 174.94 457.415 179.84L457.405 179.851L457.41 179.845ZM454.207 198.23C454.207 191.402 453.537 185.927 452.197 181.946C450.953 178.241 449.275 175.567 447.223 174.015C445.123 172.421 442.775 171.653 440.062 171.653C437.507 171.6 435 172.425 432.892 174.015C430.825 175.572 429.139 178.257 427.884 181.961C426.535 185.927 425.851 191.417 425.851 198.23C425.851 205.043 426.53 210.069 427.875 213.856C429.12 217.383 430.797 219.901 432.84 221.364C434.997 222.882 437.516 223.659 440.077 223.595C442.832 223.595 445.194 222.858 447.299 221.364C449.342 219.917 450.995 217.383 452.231 213.872C453.552 210.084 454.222 204.823 454.222 198.23H454.207ZM525.57 173.398V184.814H559.842V211.772H525.57V249.335H496.182V145.908H566.732L566.57 173.398H525.57ZM520.029 190.905V167.322H561.063L561.149 152.004H501.722V243.259H520.029V205.696H554.307V190.911L520.029 190.905ZM661.471 249.361V170.431H688.426V145.981H609.386V170.431H636.079V249.361H661.471ZM770.133 249.361V226.202H725.792V208.611H762.706V186.167H725.987V169.005H769.862L769.995 145.991H700.462V249.372H770.123L770.133 249.361ZM845.98 247.606C850.979 245.48 854.98 242.559 857.997 238.808C861.016 235.065 863.339 230.708 864.834 225.982C866.399 221.044 867.501 215.943 868.122 210.758H841.69C841.248 213.842 840.344 216.824 839.015 219.582C837.718 222.278 836.012 224.431 833.902 226.055C831.792 227.68 829.293 228.49 826.385 228.49C821.615 228.49 817.676 226.066 814.597 221.233C811.518 216.401 809.978 208.23 809.978 196.746C809.978 189.171 810.682 183.194 812.098 178.837C813.514 174.48 815.452 171.392 817.928 169.574C820.403 167.756 823.226 166.857 826.385 166.857C829.293 166.857 831.802 167.484 833.902 168.759C836.011 170.026 837.776 171.887 839.015 174.151C840.317 176.491 841.21 179.255 841.69 182.442H868.122C867.428 175.008 865.252 168.44 861.608 162.751C857.964 157.062 853.184 152.595 847.292 149.377C841.4 146.158 834.7 144.554 827.241 144.554C818.08 144.554 810.131 146.691 803.379 150.954C796.627 155.217 791.41 161.226 787.718 168.968C784.026 176.711 782.182 185.833 782.182 196.308C782.182 206.782 784.045 216.139 787.784 224.337C791.524 232.534 796.76 238.991 803.512 243.709C810.264 248.426 818.165 250.772 827.241 250.772C834.743 250.772 840.996 249.717 845.995 247.59L845.98 247.606ZM909.066 249.361V207.9H941.556V249.361H966.886V145.981H941.556V185.159H909.066V145.981H883.74V249.361H909.066ZM1072.55 146.028V249.361H1046.84L1014 197.964V249.361H984.633V146.028H1012.85L1043.19 193.627V146.028H1072.55ZM1067.01 152.109H1048.73V212.926L1009.96 152.109H990.159V243.28H1008.45V178.722L1049.72 243.28H1067.01V152.109ZM1174.39 197.901C1174.39 208.386 1172.53 217.686 1168.85 225.559C1165.13 233.516 1159.78 239.764 1152.93 244.142C1146.12 248.499 1138.02 250.709 1128.88 250.709C1119.73 250.709 1111.5 248.499 1104.67 244.142C1097.8 239.759 1092.43 233.526 1088.69 225.59C1084.99 217.754 1083.11 208.428 1083.11 197.896C1083.11 187.363 1085.01 177.933 1088.79 170.023C1092.58 162.03 1098 155.735 1104.88 151.32C1111.76 146.905 1119.8 144.68 1128.88 144.68C1137.95 144.68 1145.95 146.911 1152.76 151.32C1159.57 155.729 1164.98 162.03 1168.75 170.023C1172.5 177.933 1174.4 187.316 1174.4 197.896L1174.39 197.901ZM1168.85 197.901C1168.85 188.304 1167.16 179.872 1163.83 172.829C1160.53 165.87 1155.86 160.395 1149.94 156.56C1143.99 152.715 1136.89 150.766 1128.86 150.766C1120.84 150.766 1113.65 152.715 1107.66 156.576C1101.68 160.419 1096.83 166.064 1093.67 172.845C1090.33 179.877 1088.63 188.309 1088.63 197.901C1088.63 207.493 1090.3 215.831 1093.59 222.806C1096.83 229.692 1101.49 235.109 1107.44 238.897C1113.41 242.711 1120.62 244.644 1128.86 244.644C1137.1 244.644 1144.18 242.711 1150.14 238.907C1156.06 235.117 1160.85 229.518 1163.93 222.79C1167.21 215.795 1168.86 207.425 1168.86 197.911L1168.85 197.901ZM1146.2 179.934C1147.76 184.589 1148.55 190.764 1148.55 198.308C1148.55 205.853 1147.78 211.573 1146.19 216.108C1144.54 220.847 1142.16 224.352 1139.11 226.51C1136.11 228.647 1132.66 229.728 1128.88 229.728C1125.1 229.728 1121.64 228.647 1118.64 226.52C1115.61 224.357 1113.22 220.857 1111.54 216.129C1109.93 211.578 1109.15 205.748 1109.15 198.314C1109.15 190.879 1109.95 184.584 1111.53 179.929C1113.19 175.023 1115.57 171.377 1118.59 169.099C1121.61 166.821 1125.07 165.666 1128.89 165.666C1132.7 165.666 1136.17 166.816 1139.18 169.088C1142.2 171.361 1144.57 175.013 1146.21 179.929H1146.2V179.934ZM1143 198.308C1143 191.491 1142.33 186.015 1141 182.04C1139.76 178.336 1138.08 175.671 1136.02 174.104C1133.92 172.52 1131.42 171.698 1128.86 171.753C1126.31 171.699 1123.81 172.521 1121.71 174.104C1119.64 175.661 1117.95 178.33 1116.7 182.05C1115.35 186.015 1114.67 191.491 1114.67 198.308C1114.67 205.126 1115.35 210.147 1116.68 213.924C1117.92 217.451 1119.6 219.969 1121.64 221.416C1123.75 222.926 1126.12 223.647 1128.86 223.647C1131.61 223.647 1133.97 222.91 1136.09 221.416C1138.12 219.969 1139.78 217.451 1141.01 213.935C1142.33 210.157 1143 204.902 1143 198.308ZM1249.7 221.766V249.367H1184.93V146.028H1214.3V221.761H1249.7V221.766ZM1244.17 227.847H1208.76V152.109H1190.47V243.28H1244.17V227.847ZM1344.13 197.906C1344.13 208.392 1342.27 217.691 1338.59 225.564C1334.87 233.521 1329.51 239.78 1322.68 244.148C1315.84 248.515 1307.77 250.715 1298.62 250.715C1289.48 250.715 1281.24 248.505 1274.42 244.148C1267.55 239.764 1262.18 233.531 1258.43 225.596C1254.74 217.759 1252.85 208.433 1252.85 197.901C1252.85 187.369 1254.75 177.938 1258.53 170.029C1262.33 162.035 1267.74 155.74 1274.62 151.325C1281.47 146.921 1289.55 144.685 1298.62 144.685C1307.7 144.685 1315.69 146.916 1322.5 151.325C1329.31 155.735 1334.73 162.035 1338.5 170.029C1342.24 177.938 1344.14 187.322 1344.14 197.901L1344.13 197.906ZM1338.59 197.906C1338.59 188.309 1336.91 179.877 1333.58 172.834C1330.28 165.875 1325.61 160.4 1319.68 156.565C1313.75 152.731 1306.64 150.771 1298.6 150.771C1290.57 150.771 1283.38 152.72 1277.4 156.581C1271.43 160.424 1266.57 166.07 1263.42 172.85C1260.08 179.882 1258.38 188.314 1258.38 197.906C1258.38 207.498 1260.04 215.836 1263.33 222.811C1266.58 229.697 1271.24 235.114 1277.19 238.902C1283.13 242.69 1290.37 244.649 1298.61 244.649C1306.85 244.649 1313.92 242.716 1319.89 238.913C1325.81 235.123 1330.6 229.523 1333.68 222.795C1336.95 215.8 1338.61 207.43 1338.61 197.917L1338.59 197.906ZM1315.94 179.939C1317.52 184.652 1318.29 190.665 1318.29 198.314C1318.29 205.962 1317.52 211.578 1315.93 216.113C1314.27 220.852 1311.88 224.357 1308.84 226.515C1305.84 228.652 1302.4 229.733 1298.6 229.733C1294.8 229.733 1291.36 228.652 1288.37 226.515C1285.33 224.352 1282.94 220.862 1281.26 216.124C1279.65 211.573 1278.87 205.758 1278.87 198.308C1278.87 190.858 1279.65 184.641 1281.25 179.924C1282.92 175.018 1285.3 171.371 1288.31 169.104C1291.33 166.837 1294.79 165.672 1298.61 165.672C1302.43 165.672 1305.89 166.821 1308.91 169.094C1311.92 171.366 1314.29 175.023 1315.94 179.939ZM1312.75 198.314C1312.75 191.485 1312.08 186.01 1310.75 182.045C1309.51 178.341 1307.83 175.676 1305.77 174.109C1303.66 172.525 1301.16 171.703 1298.61 171.758C1296.06 171.704 1293.56 172.526 1291.45 174.109C1289.39 175.666 1287.7 178.336 1286.45 182.055C1285.09 186.021 1284.41 191.496 1284.41 198.314C1284.41 205.132 1285.09 210.152 1286.42 213.929C1287.67 217.456 1289.34 219.974 1291.39 221.421C1293.5 222.931 1295.86 223.652 1298.61 223.652C1301.36 223.652 1303.72 222.915 1305.84 221.421C1307.87 219.974 1309.52 217.456 1310.76 213.94C1312.08 210.163 1312.75 204.907 1312.75 198.314ZM1438.75 191.924V249.361H1417.59V242.507L1416.83 243.207C1414.55 245.297 1411.63 247.089 1408.17 248.526C1404.71 249.962 1400.28 250.699 1395.06 250.699C1386.17 250.699 1378.28 248.432 1371.57 243.965C1364.87 239.498 1359.6 233.208 1355.9 225.261C1352.24 217.398 1350.4 208.23 1350.4 198.016C1350.4 187.802 1352.37 178.074 1356.27 170.107C1360.19 162.077 1365.7 155.771 1372.62 151.33C1379.54 146.89 1387.58 144.659 1396.52 144.659C1402.8 144.659 1408.53 145.714 1413.56 147.82C1418.59 149.925 1422.99 152.83 1426.6 156.456C1430.21 160.081 1433.04 164.282 1434.99 168.89C1436.94 173.498 1437.98 178.367 1438.07 183.293L1438.12 186.392H1408.14L1407.66 184.004C1407.2 181.71 1406.45 179.647 1405.42 177.839C1404.46 176.141 1403.22 174.846 1401.65 173.848C1400.13 172.886 1398.2 172.401 1395.92 172.401C1393.53 172.396 1391.2 173.137 1389.19 174.537C1387.14 175.917 1385.44 178.362 1384.09 181.815C1382.68 185.472 1381.96 190.649 1381.96 197.206C1381.96 202.812 1382.47 207.336 1383.49 210.659C1384.47 213.841 1385.71 216.265 1387.16 217.843C1388.61 219.42 1390.15 220.465 1391.79 220.988C1395.15 222.069 1398.24 222.163 1400.7 221.238C1401.86 220.8 1402.89 220.23 1403.78 219.53C1404.62 218.88 1405.36 218.101 1406 217.216C1406.44 216.589 1406.78 215.946 1407.02 215.314H1392.64V191.6L1438.72 191.909H1438.75V191.924ZM1433.21 197.969L1398.2 197.729V209.248H1414.68L1412.46 216.73C1412.03 218.166 1411.34 219.577 1410.4 220.935C1409.44 222.285 1408.3 223.476 1407.03 224.472C1405.65 225.556 1404.13 226.408 1402.52 227.001C1398.97 228.344 1394.73 228.281 1390.24 226.834C1387.6 225.943 1385.21 224.343 1383.29 222.179C1381.21 219.932 1379.52 216.714 1378.25 212.618C1377.04 208.663 1376.43 203.486 1376.43 197.217C1376.43 189.735 1377.27 183.926 1379.01 179.448C1380.81 174.819 1383.25 171.434 1386.29 169.376C1389.28 167.354 1392.51 166.335 1395.92 166.335C1399.32 166.335 1402.03 167.093 1404.4 168.592C1406.77 170.091 1408.67 172.108 1410.12 174.626C1411.13 176.405 1411.93 178.321 1412.5 180.326H1432.32C1431.97 177.312 1431.19 174.339 1429.96 171.455C1428.33 167.584 1425.94 164.047 1422.86 160.959C1419.77 157.871 1415.97 155.353 1411.59 153.525C1407.21 151.696 1402.13 150.771 1396.52 150.771C1388.56 150.771 1381.46 152.731 1375.41 156.612C1369.37 160.494 1364.57 165.995 1361.14 173.012C1357.69 180.075 1355.93 188.507 1355.93 198.032C1355.93 207.556 1357.58 215.512 1360.83 222.508C1364.04 229.43 1368.63 234.906 1374.45 238.777C1380.27 242.648 1387.2 244.618 1395.06 244.618C1399.6 244.618 1403.36 244.012 1406.21 242.836C1409.07 241.661 1411.48 240.187 1413.29 238.536L1418.37 233.443L1423.12 228.072V243.275H1433.2V197.958H1433.21V197.969ZM1531.54 146.033L1497.83 206.694V249.367H1468.4V206.683L1435.09 146.033H1467.34L1483.22 177.364L1498.93 146.033H1531.53H1531.54ZM1521.67 152.114H1502.2L1483.24 189.928L1464.08 152.114H1444.88L1473.92 204.996V243.296H1492.27V204.996L1521.65 152.125L1521.67 152.114ZM-26 1.25908V63.2729H34.1441V249.335H94.3833V63.2729H137.645L157.763 1.25908H-26ZM202.536 63.2729H159.274L179.392 1.25908H330.807L310.689 63.2729H267.427V249.335H202.536V63.2729Z" fill="#E54519"/>
</g>
<defs>
<clipPath id="clip0_150_81617">
<rect width="359" height="250.772" fill="white" transform="translate(-26)"/>
</clipPath>
</defs>
</svg>
