<svg width="40" height="40" viewBox="0 0 40 40" fill="none" xmlns="http://www.w3.org/2000/svg">
<path d="M19.652 3.36279C19.8827 3.32373 20.1207 3.32373 20.3514 3.36279L35.2308 5.96722C36.0641 6.11046 36.6667 6.75505 36.6667 7.49731C36.6667 8.23958 36.0641 8.88417 35.2308 9.02741L29.5245 10.0301V13.7479C29.5245 18.3512 25.2616 22.0821 20.0017 22.0821C14.7418 22.0821 10.4788 18.3512 10.4788 13.7479V10.0301L6.90774 9.40505V13.6437V18.7484H4.52703V13.6437V8.96881C3.82025 8.75395 3.33667 8.16795 3.33667 7.49731C3.33667 6.75505 3.93929 6.11046 4.77254 5.96722L19.652 3.36279ZM11.6617 24.667C12.4429 24.4456 13.2836 24.693 13.849 25.2204L19.1312 30.1362C19.5999 30.5725 20.396 30.5725 20.8647 30.1362L26.1469 25.2204C26.7123 24.693 27.553 24.4456 28.3342 24.667C33.17 26.0278 36.6667 29.9865 36.6667 34.6679C36.6667 35.7748 35.64 36.6668 34.3827 36.6668H5.62067C4.36336 36.6668 3.33667 35.7683 3.33667 34.6679C3.33667 29.9865 6.83335 26.0278 11.6617 24.667Z" fill="#E54519"/>
<circle cx="5.83325" cy="17.5" r="2.5" fill="#E54519"/>
</svg>
