<svg width="40" height="40" viewBox="0 0 40 40" fill="none" xmlns="http://www.w3.org/2000/svg">
<path d="M19.9999 2.57764H27.6221C28.221 2.57764 28.711 3.06764 28.711 3.66653V8.02208C28.711 8.62097 28.221 9.11097 27.6221 9.11097H22.2253L28.3231 13.4665H35.2443C37.6467 13.4665 39.5999 15.4197 39.5999 17.8221V33.0665C39.5999 35.4689 37.6467 37.4221 35.2443 37.4221H23.2666V29.7999C23.2666 27.9964 21.8034 26.5332 19.9999 26.5332C18.1964 26.5332 16.7332 27.9964 16.7332 29.7999V37.4221H4.75546C2.3531 37.4221 0.399902 35.4689 0.399902 33.0665V17.8221C0.399902 15.4197 2.3531 13.4665 4.75546 13.4665H11.6767L17.8221 9.07694V4.75541C17.8221 3.55083 18.7953 2.57764 19.9999 2.57764ZM23.2666 18.911C23.2666 16.3963 20.5443 14.8246 18.3666 16.082C17.3559 16.6655 16.7332 17.7439 16.7332 18.911C16.7332 21.4256 19.4555 22.9973 21.6332 21.74C22.6439 21.1564 23.2666 20.078 23.2666 18.911ZM5.84435 17.8221C5.24546 17.8221 4.75546 18.3121 4.75546 18.911V23.2665C4.75546 23.8654 5.24546 24.3554 5.84435 24.3554H8.02213C8.62101 24.3554 9.11101 23.8654 9.11101 23.2665V18.911C9.11101 18.3121 8.62101 17.8221 8.02213 17.8221H5.84435ZM30.8888 18.911V23.2665C30.8888 23.8654 31.3788 24.3554 31.9777 24.3554H34.1555C34.7543 24.3554 35.2443 23.8654 35.2443 23.2665V18.911C35.2443 18.3121 34.7543 17.8221 34.1555 17.8221H31.9777C31.3788 17.8221 30.8888 18.3121 30.8888 18.911ZM5.84435 26.5332C5.24546 26.5332 4.75546 27.0232 4.75546 27.6221V31.9776C4.75546 32.5765 5.24546 33.0665 5.84435 33.0665H8.02213C8.62101 33.0665 9.11101 32.5765 9.11101 31.9776V27.6221C9.11101 27.0232 8.62101 26.5332 8.02213 26.5332H5.84435ZM31.9777 26.5332C31.3788 26.5332 30.8888 27.0232 30.8888 27.6221V31.9776C30.8888 32.5765 31.3788 33.0665 31.9777 33.0665H34.1555C34.7543 33.0665 35.2443 32.5765 35.2443 31.9776V27.6221C35.2443 27.0232 34.7543 26.5332 34.1555 26.5332H31.9777Z" fill="#5454E3"/>
</svg>
