<svg width="40" height="40" viewBox="0 0 40 40" fill="none" xmlns="http://www.w3.org/2000/svg">
<path d="M20.0001 32.8749C19.8057 32.8749 19.6251 32.8541 19.4584 32.8124C19.2917 32.7707 19.139 32.6944 19.0001 32.5832C17.7778 31.7777 16.4792 31.1457 15.1042 30.6874C13.7292 30.2291 12.3057 29.9999 10.8334 29.9999C9.66675 29.9999 8.52091 30.1527 7.39591 30.4582C6.27091 30.7638 5.19452 31.1944 4.16675 31.7499C3.58341 32.0555 3.02091 32.0416 2.47925 31.7082C1.93758 31.3749 1.66675 30.8888 1.66675 30.2499V10.1666C1.66675 9.86108 1.74314 9.56941 1.89591 9.29158C2.04869 9.01383 2.27786 8.8055 2.58341 8.66658C3.86119 7.99995 5.19452 7.49995 6.58341 7.16661C7.97231 6.83328 9.389 6.66661 10.8334 6.66661C12.4445 6.66661 14.0209 6.87495 15.5626 7.29161C17.1042 7.70828 18.5834 8.33328 20.0001 9.16658V30.2499C21.4167 29.3332 22.9028 28.6457 24.4584 28.1874C26.014 27.7291 27.5834 27.4999 29.1667 27.4999C30.1667 27.4999 31.257 27.5972 32.4376 27.7916C33.6182 27.9861 34.7501 28.3888 35.8334 28.9999V7.95828C36.1112 8.06939 36.382 8.1805 36.6459 8.29161C36.9098 8.40275 37.1667 8.52775 37.4167 8.66658C37.6945 8.83325 37.9167 9.04858 38.0834 9.31241C38.2501 9.57633 38.3334 9.86108 38.3334 10.1666V30.2499C38.3334 30.8888 38.0626 31.3749 37.5209 31.7082C36.9792 32.0416 36.4167 32.0555 35.8334 31.7499C34.8057 31.1944 33.7292 30.7638 32.6042 30.4582C31.4792 30.1527 30.3334 29.9999 29.1667 29.9999C27.6945 29.9999 26.2709 30.2291 24.8959 30.6874C23.5209 31.1457 22.2223 31.7777 21.0001 32.5832C20.8612 32.6944 20.7084 32.7707 20.5417 32.8124C20.3751 32.8541 20.1945 32.8749 20.0001 32.8749ZM23.5417 25.4582C23.3195 25.6249 23.0903 25.6597 22.8542 25.5624C22.6182 25.4652 22.5001 25.2777 22.5001 24.9999V11.9166C22.5001 11.8332 22.514 11.7569 22.5417 11.6874C22.5695 11.618 22.6112 11.5555 22.6667 11.4999L32.2501 1.91661C32.4445 1.72217 32.6737 1.67355 32.9376 1.77078C33.2015 1.868 33.3334 2.0555 33.3334 2.33328V16.6666C33.3334 16.7499 33.3126 16.8332 33.2709 16.9166C33.2292 16.9999 33.1807 17.0694 33.1251 17.1249L23.5417 25.4582Z" fill="#1C7776"/>
</svg>
