<svg width="26" height="18" viewBox="0 0 26 18" fill="none" xmlns="http://www.w3.org/2000/svg">
<g clip-path="url(#clip0_792_518)">
<path d="M31.7037 7.40399V1.82041H29.8158V0.0909463H35.4073V1.82041H33.5009V7.40399H31.7047H31.7037ZM41.5416 7.40399H39.7727L39.3305 5.98804H37.2304L36.7788 7.40399H34.9918L37.3498 0.0909463H39.1826L41.5406 7.40399H41.5416ZM38.9257 4.30886L38.272 1.97272L37.6083 4.30886H38.9257ZM46.4418 7.21175C46.8719 7.01581 47.2118 6.74186 47.462 6.3899C47.7121 6.03795 47.8372 5.62352 47.8372 5.14882C47.8372 4.75805 47.7666 4.41016 47.625 4.10663C47.4835 3.80311 47.2653 3.55023 46.9684 3.34764C46.6715 3.14504 46.2919 3.00382 45.8289 2.92322L44.8383 2.74577C44.5593 2.69549 44.3649 2.61637 44.256 2.51064C44.2044 2.46349 44.163 2.40435 44.1346 2.33749C44.1063 2.27062 44.0919 2.19769 44.0922 2.12393C44.0922 1.97272 44.1581 1.83741 44.2906 1.7095C44.4231 1.58158 44.6541 1.51688 44.9863 1.51688C45.1921 1.51688 45.3672 1.54461 45.5135 1.60006C45.6598 1.65552 45.7754 1.74129 45.8608 1.85553C45.9462 1.96976 45.9994 2.12023 46.0178 2.30582H47.7958C47.7864 1.85368 47.6735 1.4544 47.4552 1.10725C47.237 0.760104 46.9247 0.488744 46.5175 0.292803C46.1103 0.0968616 45.6177 0 45.0367 0C44.5055 0 44.0263 0.0916857 43.5993 0.275797C43.1723 0.459907 42.8347 0.726092 42.5863 1.07509C42.3378 1.42409 42.2127 1.84481 42.2127 2.33651C42.2127 2.75168 42.287 3.10696 42.4363 3.40383C42.5856 3.7007 42.8004 3.94101 43.0829 4.12475C43.3653 4.30849 43.7042 4.43899 44.1006 4.51626L45.2381 4.73882C45.456 4.78245 45.6453 4.84382 45.8043 4.92367C45.9634 5.00353 46.0437 5.14882 46.0437 5.3614C46.0437 5.5237 45.9943 5.6505 45.8938 5.74293C45.7932 5.83535 45.6705 5.9019 45.5236 5.94035C45.3802 5.97845 45.2333 5.99793 45.0858 5.99839C44.843 5.99839 44.6349 5.96549 44.4621 5.90005C44.2893 5.83461 44.1511 5.74034 44.0495 5.61945C43.9469 5.4956 43.8768 5.3434 43.8468 5.17913H42.0227C42.0503 5.57324 42.1545 5.91706 42.3358 6.20875C42.517 6.50044 42.7483 6.74223 43.0294 6.93484C43.3105 7.12746 43.6185 7.27016 43.9554 7.36517C44.2923 7.46019 44.6319 7.5064 44.9755 7.5064C45.5219 7.5064 46.0101 7.4088 46.4405 7.21323L46.4418 7.21175ZM50.6972 7.40399V4.47116H52.9953V7.40399H54.7871V0.0909463H52.9953V2.86259H50.6972V0.0909463H48.9054V7.40399H50.6972ZM57.983 7.40399V5.49227L58.8118 4.31921L60.2953 7.40436H62.2199L60.0922 2.88292L61.9207 0.0909463H59.908L57.9824 3.04411V0.0909463H56.1216V7.40399H57.9824H57.983ZM68.0374 7.40399V5.76511H64.901V4.52144H67.5122V2.93283H64.9148V1.71948H68.0189L68.028 0.0909463H63.1092V7.40399H68.0374ZM70.9569 7.40399V3.04485L73.7436 7.40399H75.3599V0.0909463H73.5684V4.16653L70.9707 0.0909463H69.1655V7.40399H70.9569ZM79.8967 7.40399V1.82041H81.8031V0.0909463H76.2119V1.82041H78.0998V7.40399H79.896H79.8967ZM90.5425 0.102407V4.34546C90.5425 4.95473 90.4514 5.4993 90.2718 5.96401C90.0849 6.44647 89.7728 6.828 89.3435 7.09788C88.9215 7.36259 88.3506 7.49716 87.6472 7.49716C86.9438 7.49716 86.3739 7.36259 85.9512 7.09788C85.5212 6.828 85.2092 6.44647 85.0229 5.96401C84.8433 5.4993 84.7522 4.95473 84.7522 4.34546V0.102407H86.8476V4.42125C86.8476 4.83125 86.9273 5.11776 87.084 5.27415C87.2487 5.43793 87.433 5.51778 87.6472 5.51778C87.7851 5.51908 87.9211 5.48262 88.0429 5.41168C88.1603 5.34439 88.2534 5.23681 88.3294 5.08227C88.4074 4.92256 88.4464 4.70074 88.4464 4.42162V0.103516H90.5418L90.5425 0.102407ZM90.1514 0.531999H88.8381V4.42125C88.8381 4.77246 88.783 5.06342 88.6744 5.28524C88.5621 5.51482 88.4111 5.68526 88.2252 5.7921C88.0473 5.89502 87.8492 5.94834 87.6482 5.94737C87.3365 5.94737 87.0588 5.82796 86.8224 5.59283C86.5803 5.35179 86.4573 4.95842 86.4573 4.42199V0.532739H85.1439V4.34657C85.1439 4.89779 85.2243 5.38617 85.3837 5.7969C85.538 6.19692 85.7875 6.50044 86.1466 6.72559C86.5087 6.95259 87.0137 7.06757 87.6482 7.06757C88.2827 7.06757 88.7877 6.95259 89.1498 6.72559C89.5086 6.50044 89.758 6.19692 89.9127 5.7969C90.0717 5.38506 90.1521 4.89779 90.1521 4.34657V0.532739L90.1514 0.531999ZM97.7015 0.102407V7.40141H95.8852L93.5649 3.77168V7.40141H91.491V0.102407H93.4838L95.6267 3.46483V0.102407H97.7009H97.7015ZM97.3105 0.531999H96.0187V4.82718L93.2811 0.531999H91.8827V6.97181H93.1745V2.41193L96.089 6.97181H97.3105V0.531999ZM100.84 0.102407V7.40141H98.7661V0.102407H100.84ZM100.449 0.531999H99.1571V6.97181H100.449V0.531999ZM107.994 0.102407L105.751 7.40103H103.618L101.375 0.102407H103.376L104.684 4.3499L105.989 0.102407H107.994ZM107.449 0.531999H106.269L104.684 5.69117L103.095 0.531999H101.92L103.899 6.97181H105.471L107.45 0.531999H107.449ZM113.549 5.43312V7.40141H108.528V0.102407H113.541L113.53 2.06145H110.616V2.77238H113.056V4.69335H110.603V5.43275H113.549H113.549V5.43312ZM113.158 5.86271H110.211V4.2645H112.664V3.20198H110.224V1.63186H113.141L113.147 0.531629H108.919V6.97144H113.158V5.86123V5.86197V5.86271ZM120.118 7.40141H117.959L117.051 5.03569H116.494V7.40141H114.419V0.102407H117.453C118.026 0.102407 118.497 0.20999 118.855 0.422568C119.22 0.639212 119.49 0.939409 119.658 1.31244C119.82 1.67474 119.903 2.08474 119.903 2.53097C119.903 2.90659 119.856 3.23525 119.763 3.50661C119.669 3.78056 119.538 4.01828 119.373 4.21348C119.249 4.3592 119.112 4.49018 118.964 4.60425L120.119 7.40103H120.118V7.40141ZM118.218 6.97181H119.51L118.466 4.44232L118.614 4.34324C118.79 4.22457 118.949 4.0826 119.085 3.92215C119.215 3.76762 119.32 3.57759 119.396 3.35577C119.471 3.13395 119.51 2.85483 119.51 2.53134C119.51 2.15166 119.441 1.80599 119.305 1.50283C119.172 1.20707 118.964 0.977488 118.667 0.801141C118.367 0.622945 117.958 0.532369 117.452 0.532369H114.809V6.97218H116.101V4.60647H117.309L118.217 6.97218L118.218 6.97181ZM117.919 1.7875C118.112 1.99749 118.21 2.2548 118.21 2.55056C118.21 2.82303 118.123 3.07591 117.95 3.3018C117.769 3.53877 117.537 3.65893 117.262 3.65893H116.102V1.47252H117.262C117.504 1.47252 117.726 1.57936 117.919 1.78861V1.7875ZM117.819 2.54982C117.82 2.4643 117.805 2.37941 117.775 2.30056C117.745 2.22171 117.7 2.15061 117.644 2.09177C117.525 1.96237 117.4 1.90026 117.262 1.90026H116.493V3.22896H117.262C117.337 3.2309 117.411 3.21351 117.478 3.17819C117.546 3.14287 117.605 3.09062 117.651 3.02563C117.764 2.87775 117.819 2.72211 117.819 2.55093V2.54982ZM126.428 5.06859C126.428 5.56178 126.296 5.99876 126.034 6.36698C125.779 6.72596 125.43 7.00841 124.996 7.20472C124.571 7.39808 124.082 7.49642 123.546 7.49642C123.207 7.49618 122.869 7.44936 122.54 7.35704C122.206 7.26277 121.895 7.11821 121.615 6.92745C121.329 6.73151 121.091 6.48196 120.906 6.18472C120.717 5.88046 120.606 5.52 120.578 5.11333L120.562 4.88227H122.644L122.677 5.05196C122.702 5.17655 122.749 5.27895 122.82 5.36546C122.892 5.45197 122.996 5.52185 123.127 5.57139C123.269 5.62499 123.445 5.65198 123.65 5.65198C123.77 5.65198 123.893 5.63609 124.015 5.60318C124.123 5.57471 124.213 5.52776 124.283 5.4627C124.317 5.43164 124.354 5.3821 124.354 5.26786C124.354 5.13403 124.31 5.0856 124.244 5.0527C124.109 4.98615 123.946 4.93254 123.757 4.89483L122.69 4.68558C122.296 4.60832 121.953 4.47559 121.668 4.29074C121.373 4.09924 121.144 3.84452 120.988 3.53286C120.833 3.22342 120.754 2.85113 120.754 2.42708C120.754 1.91764 120.886 1.47511 121.146 1.10947C121.4 0.752341 121.748 0.477653 122.18 0.290954C122.602 0.109431 123.08 0.0170062 123.601 0.0170062C124.17 0.0170062 124.665 0.116086 125.071 0.310179C125.484 0.509447 125.808 0.791899 126.033 1.14977C126.258 1.50764 126.379 1.92799 126.388 2.3927L126.392 2.61193H124.347L124.328 2.42043C124.315 2.28919 124.281 2.1853 124.225 2.11099C124.167 2.03372 124.089 1.97642 123.985 1.93686C123.87 1.89324 123.724 1.87032 123.554 1.87032C123.212 1.87032 123.079 1.94943 123.031 1.99712C122.911 2.11395 122.911 2.19787 122.911 2.2256C122.911 2.3073 122.938 2.36941 122.999 2.42893C123.04 2.46923 123.154 2.54502 123.448 2.59863L124.378 2.76499C124.836 2.84485 125.221 2.9894 125.52 3.19347C125.828 3.40346 126.059 3.6715 126.208 3.99092C126.354 4.30516 126.428 4.66747 126.428 5.06749V5.06822V5.06859ZM126.037 5.06859C126.037 4.73734 125.977 4.44084 125.86 4.18797C125.744 3.93916 125.56 3.72843 125.314 3.56022C125.059 3.38609 124.723 3.26187 124.316 3.19126L123.385 3.02489C123.082 2.97017 122.872 2.88108 122.739 2.75279C122.67 2.68816 122.615 2.6078 122.577 2.51727C122.539 2.42675 122.519 2.32824 122.52 2.22855C122.52 2.02522 122.605 1.84037 122.771 1.67807C122.934 1.52021 123.19 1.44368 123.554 1.44368C123.769 1.44368 123.957 1.474 124.114 1.53352C124.284 1.59895 124.424 1.70173 124.527 1.84037C124.602 1.94162 124.656 2.05906 124.686 2.18493H125.983C125.949 1.89324 125.859 1.62853 125.713 1.39599C125.53 1.1043 125.261 0.872493 124.915 0.706128C124.558 0.535696 124.117 0.448816 123.602 0.448816C123.129 0.448816 122.699 0.53126 122.323 0.693189C121.957 0.851051 121.665 1.08063 121.454 1.3764C121.246 1.66809 121.145 2.01265 121.145 2.4293C121.145 2.78052 121.208 3.0833 121.33 3.32767C121.453 3.57205 121.633 3.77132 121.867 3.92363C122.11 4.0826 122.41 4.19684 122.758 4.26487L123.826 4.47412C124.046 4.51848 124.241 4.5817 124.405 4.66303C124.624 4.77246 124.744 4.98726 124.744 5.26971C124.744 5.48414 124.672 5.66455 124.535 5.79247C124.41 5.90489 124.264 5.98375 124.106 6.02279C123.954 6.06309 123.8 6.08342 123.649 6.08342C123.4 6.08342 123.182 6.0483 123 5.97917C122.807 5.90597 122.649 5.79764 122.532 5.65716C122.449 5.55697 122.384 5.44199 122.34 5.31334H120.995C121.033 5.539 121.112 5.7538 121.228 5.94442C121.382 6.19248 121.581 6.40063 121.821 6.56477C122.073 6.73573 122.348 6.86327 122.635 6.94298C122.934 7.0269 123.24 7.06904 123.545 7.06904C124.031 7.06904 124.468 6.98179 124.846 6.81025C125.217 6.64204 125.512 6.40432 125.725 6.10413C125.935 5.8091 126.036 5.4712 126.036 5.0697L126.037 5.06896V5.06859ZM129.318 0.102407V7.40141H127.243V0.102407H129.318ZM128.926 0.531999H127.634V6.97181H128.926V0.531999ZM135.572 0.102407V2.15646H133.781V7.40141H131.702V2.15646H129.928V0.102407H135.572ZM135.18 0.531999H130.319V1.72687H132.093V6.97181H133.39V1.72687H135.18V0.531999ZM142.627 0.102407L140.246 4.38687V7.40141H138.168V4.38687L135.815 0.102407H138.094L139.215 2.31506L140.324 0.102407H142.627ZM141.931 0.531999H140.556L139.218 3.20272L137.865 0.531999H136.509L138.56 4.26671V6.97181H139.857V4.26671L141.932 0.531999H141.931ZM36.2049 13.9991C36.2049 14.7418 36.0724 15.401 35.8122 15.9581C35.5489 16.5212 35.1693 16.9641 34.6841 17.275C34.2019 17.5833 33.6287 17.7404 32.9804 17.7404C32.3322 17.7404 31.7498 17.5841 31.266 17.2757C30.7801 16.9656 30.3988 16.5234 30.1339 15.9622C29.8713 15.4065 29.7391 14.747 29.7391 14.0006C29.7391 13.2541 29.8746 12.5872 30.1409 12.0264C30.3982 11.4746 30.7936 11.0151 31.2804 10.7021C31.7656 10.3904 32.3382 10.2322 32.9801 10.2322C33.6219 10.2322 34.1895 10.3901 34.6717 10.7028C35.1558 11.0163 35.5371 11.4618 35.8041 12.0271C36.069 12.5876 36.2035 13.2515 36.2035 14.0013L36.2046 13.9987L36.2049 13.9991ZM35.8122 13.9991C35.8122 13.3192 35.6928 12.7225 35.4571 12.2241C35.2238 11.731 34.8929 11.3435 34.4729 11.0722C34.053 10.8008 33.549 10.6611 32.9804 10.6611C32.4118 10.6611 31.9028 10.7997 31.4781 11.0722C31.0549 11.3445 30.7114 11.7442 30.4879 12.2241C30.2505 12.7225 30.1305 13.3199 30.1305 13.9991C30.1305 14.6782 30.2485 15.269 30.4819 15.7629C30.7122 16.2506 31.042 16.6343 31.463 16.9023C31.8863 17.1722 32.3967 17.309 32.9807 17.309C33.5648 17.309 34.0651 17.1722 34.4871 16.9023C34.9064 16.6343 35.2349 16.2502 35.4635 15.7611C35.6955 15.266 35.8125 14.6727 35.8125 13.9987L35.8122 13.9991ZM34.208 12.7266C34.3183 13.056 34.3741 13.4937 34.3741 14.0275C34.3741 14.5614 34.3183 14.9714 34.2073 15.2882C34.0903 15.6235 33.9212 15.8724 33.706 16.0254C33.4938 16.1766 33.2497 16.2531 32.9811 16.2531C32.7124 16.2531 32.4683 16.1766 32.2562 16.0254C32.041 15.8724 31.8712 15.6247 31.7525 15.2893C31.6385 14.9673 31.5834 14.5547 31.5834 14.0272C31.5834 13.4996 31.6399 13.0549 31.7518 12.7255C31.8698 12.3783 32.038 12.1203 32.2515 11.9591C32.465 11.7979 32.7097 11.7162 32.9807 11.7162C33.2518 11.7162 33.4965 11.7975 33.7104 11.9591C33.9242 12.1206 34.092 12.3794 34.2083 12.7262L34.2077 12.7269L34.208 12.7266ZM33.9814 14.0275C33.9814 13.5443 33.934 13.1569 33.8391 12.8752C33.7511 12.6131 33.6324 12.4238 33.4871 12.314C33.3385 12.2012 33.1724 12.1469 32.9804 12.1469C32.7996 12.1431 32.6222 12.2015 32.473 12.314C32.3268 12.4242 32.2074 12.6142 32.1186 12.8763C32.0232 13.1569 31.9747 13.5455 31.9747 14.0275C31.9747 14.5096 32.0228 14.8653 32.118 15.1333C32.2061 15.3829 32.3248 15.5611 32.4693 15.6646C32.622 15.772 32.8003 15.827 32.9814 15.8224C33.1764 15.8224 33.3435 15.7703 33.4925 15.6646C33.6371 15.5622 33.7541 15.3829 33.8415 15.1344C33.935 14.8664 33.9824 14.4941 33.9824 14.0275H33.9814ZM39.0313 12.2704V13.0782H41.4565V14.9858H39.0313V17.644H36.9517V10.325H41.944L41.9326 12.2704H39.0313ZM38.6392 13.5092V11.8404H41.5429L41.549 10.7564H37.3437V17.214H38.6392V14.5559H41.0648V13.5096L38.6392 13.5092ZM48.6482 17.6458V12.0604H50.5556V10.3302H44.9624V12.0604H46.8514V17.6458H48.6482ZM56.3375 17.6458V16.0069H53.1998V14.7621H55.812V13.1739H53.2136V11.9594H56.3183L56.3278 10.3309H51.4073V17.6465H56.3368L56.3375 17.6458ZM61.7048 17.5216C62.0585 17.3711 62.3416 17.1645 62.5551 16.899C62.7688 16.6341 62.9332 16.3258 63.039 15.9914C63.1497 15.6419 63.2277 15.281 63.2716 14.9141H61.4012C61.3699 15.1323 61.306 15.3433 61.2119 15.5385C61.1201 15.7293 60.9994 15.8816 60.8501 15.9966C60.7008 16.1116 60.5239 16.1689 60.3182 16.1689C59.9806 16.1689 59.7018 15.9973 59.484 15.6553C59.2661 15.3134 59.1572 14.7352 59.1572 13.9226C59.1572 13.3865 59.2069 12.9635 59.3071 12.6552C59.4073 12.3469 59.5445 12.1284 59.7197 11.9997C59.8948 11.8711 60.0946 11.8075 60.3182 11.8075C60.5239 11.8075 60.7015 11.8519 60.8501 11.9421C60.9993 12.0317 61.1242 12.1634 61.2119 12.3236C61.304 12.4892 61.3672 12.6848 61.4012 12.9103H63.2716C63.2225 12.3842 63.0686 11.9195 62.8107 11.5169C62.5528 11.1143 62.2145 10.7982 61.7976 10.5705C61.3807 10.3427 60.9066 10.2292 60.3787 10.2292C59.7304 10.2292 59.1679 10.3805 58.6901 10.6821C58.2123 10.9838 57.8432 11.409 57.5819 11.9569C57.3206 12.5048 57.1902 13.1502 57.1902 13.8915C57.1902 14.6327 57.322 15.2949 57.5866 15.8749C57.8512 16.455 58.2218 16.912 58.6995 17.2458C59.1773 17.5796 59.7365 17.7456 60.3787 17.7456C60.9096 17.7456 61.3521 17.6709 61.7058 17.5205L61.7048 17.5216ZM66.169 17.6458V14.7119H68.4681V17.6458H70.2606V10.3302H68.4681V13.1026H66.169V10.3302H64.3768V17.6458H66.169ZM77.7377 10.3335V17.6458H75.9187L73.5943 14.0087V17.6458H71.5164V10.3335H73.5133L75.6598 13.7018V10.3335H77.7377ZM77.346 10.7638H76.0518V15.0675L73.3089 10.7638H71.9074V17.2155H73.2016V12.6471L76.1221 17.2155H77.346V10.7638ZM84.9442 14.0043C84.9442 14.7462 84.8124 15.4043 84.5525 15.9615C84.2892 16.5245 83.9103 16.9667 83.4258 17.2765C82.9436 17.5848 82.371 17.7412 81.7238 17.7412C81.0765 17.7412 80.4938 17.5848 80.011 17.2765C79.5248 16.9663 79.1445 16.5252 78.8796 15.9637C78.618 15.4091 78.4848 14.7492 78.4848 14.0039C78.4848 13.2586 78.6193 12.5913 78.8866 12.0315C79.1553 11.4659 79.5386 11.0204 80.0254 10.708C80.5123 10.3956 81.0816 10.2381 81.7238 10.2381C82.366 10.2381 82.9315 10.396 83.4137 10.708C83.8958 11.02 84.2785 11.4659 84.5454 12.0315C84.8104 12.5913 84.9449 13.2552 84.9449 14.0039L84.9442 14.0043ZM84.5525 14.0043C84.5525 13.3251 84.4328 12.7284 84.1971 12.2301C83.9637 11.7376 83.6332 11.3502 83.2139 11.0788C82.793 10.8067 82.2906 10.6688 81.7228 10.6688C81.1549 10.6688 80.6461 10.8067 80.2221 11.0799C79.7991 11.3519 79.4557 11.7514 79.2326 12.2312C78.9959 12.7288 78.8759 13.3255 78.8759 14.0043C78.8759 14.683 78.9939 15.2731 79.2266 15.7666C79.4559 16.2539 79.7857 16.6373 80.2067 16.9053C80.6293 17.1752 81.1397 17.312 81.7228 17.312C82.3058 17.312 82.8068 17.1752 83.2284 16.906C83.6473 16.6378 83.9863 16.2416 84.2042 15.7655C84.4361 15.2705 84.5532 14.6782 84.5532 14.005L84.5525 14.0043ZM82.9497 12.7329C83.06 13.0623 83.1158 13.4992 83.1158 14.0331C83.1158 14.5669 83.0616 14.9718 82.949 15.2927C82.832 15.628 82.6635 15.876 82.4477 16.0287C82.2358 16.1799 81.9914 16.2565 81.7238 16.2565C81.4561 16.2565 81.2117 16.1799 80.9995 16.0295C80.7847 15.8764 80.6155 15.6287 80.4968 15.2941C80.3829 14.9721 80.3277 14.5595 80.3277 14.0335C80.3277 13.5074 80.3842 13.0619 80.4962 12.7325C80.6139 12.3853 80.7823 12.1273 80.9958 11.9661C81.2093 11.8049 81.4544 11.7232 81.7244 11.7232C81.9944 11.7232 82.2395 11.8045 82.453 11.9654C82.6666 12.1262 82.834 12.3846 82.9503 12.7325H82.9497V12.7329ZM82.723 14.0331C82.723 13.5506 82.6756 13.1632 82.5815 12.8818C82.4937 12.6197 82.375 12.4312 82.2295 12.3203C82.0804 12.2082 81.9033 12.15 81.7228 12.1539C81.5423 12.1501 81.3653 12.2083 81.2164 12.3203C81.0701 12.4304 80.9508 12.6194 80.862 12.8826C80.7662 13.1632 80.7181 13.5506 80.7181 14.0331C80.7181 14.5156 80.7662 14.8708 80.8603 15.1381C80.9484 15.3877 81.0671 15.5659 81.2117 15.6683C81.361 15.7751 81.5284 15.8261 81.7228 15.8261C81.9171 15.8261 82.0842 15.774 82.2342 15.6683C82.3781 15.5659 82.4951 15.3877 82.5825 15.1389C82.6756 14.8716 82.723 14.4997 82.723 14.0331ZM90.2738 15.693V17.6462H85.6903V10.3335H87.7682V15.6927H90.2738V15.693ZM89.8821 16.1234H87.3765V10.7638H86.0823V17.2155H89.8821V16.1234ZM96.9561 14.0046C96.9561 14.7466 96.8243 15.4047 96.5641 15.9618C96.3008 16.5249 95.9212 16.9678 95.4377 17.2768C94.9542 17.5859 94.3829 17.7416 93.7357 17.7416C93.0884 17.7416 92.5057 17.5852 92.0229 17.2768C91.5367 16.9667 91.1564 16.5256 90.8915 15.964C90.6299 15.4095 90.4967 14.7496 90.4967 14.0043C90.4967 13.2589 90.6312 12.5916 90.8985 12.0319C91.1672 11.4663 91.5505 11.0208 92.0374 10.7084C92.5219 10.3967 93.0935 10.2385 93.7357 10.2385C94.3779 10.2385 94.9431 10.3963 95.4253 10.7084C95.9074 11.0204 96.2904 11.4663 96.5574 12.0319C96.8223 12.5916 96.9568 13.2556 96.9568 14.0043L96.9561 14.0046ZM96.5641 14.0046C96.5641 13.3255 96.4447 12.7288 96.209 12.2304C95.9757 11.738 95.6451 11.3505 95.2255 11.0792C94.8059 10.8078 94.3026 10.6692 93.734 10.6692C93.1654 10.6692 92.6571 10.8071 92.2341 11.0803C91.811 11.3522 91.4676 11.7517 91.2445 12.2315C91.0078 12.7292 90.8878 13.3259 90.8878 14.0046C90.8878 14.6834 91.0055 15.2734 91.2381 15.767C91.4678 16.2543 91.7976 16.6376 92.2186 16.9057C92.6396 17.1737 93.1516 17.3123 93.7347 17.3123C94.3177 17.3123 94.8183 17.1755 95.2403 16.9064C95.6592 16.6382 95.9982 16.242 96.2161 15.7659C96.4477 15.2709 96.5651 14.6786 96.5651 14.0054L96.5641 14.0046ZM94.9609 12.7332C95.0725 13.0667 95.127 13.4922 95.127 14.0335C95.127 14.5747 95.0725 14.9721 94.9602 15.293C94.8429 15.6284 94.6738 15.8764 94.4589 16.0291C94.2461 16.1803 94.0027 16.2568 93.734 16.2568C93.4654 16.2568 93.2219 16.1803 93.0101 16.0291C92.7949 15.876 92.6258 15.6291 92.5071 15.2938C92.3931 14.9718 92.338 14.5603 92.338 14.0331C92.338 13.5059 92.3931 13.066 92.5064 12.7321C92.6244 12.385 92.7925 12.1269 93.0061 11.9665C93.2196 11.806 93.4647 11.7236 93.7347 11.7236C94.0047 11.7236 94.2498 11.8049 94.4633 11.9657C94.6768 12.1265 94.8446 12.3853 94.9609 12.7332ZM94.735 14.0335C94.735 13.5503 94.6876 13.1628 94.5934 12.8822C94.5057 12.6201 94.387 12.4316 94.2414 12.3206C94.0923 12.2086 93.9152 12.1504 93.7347 12.1543C93.5543 12.1505 93.3773 12.2086 93.2283 12.3206C93.082 12.4308 92.9627 12.6197 92.8739 12.883C92.7781 13.1636 92.73 13.551 92.73 14.0335C92.73 14.5159 92.7781 14.8712 92.8722 15.1385C92.9603 15.388 93.079 15.5662 93.2236 15.6686C93.3729 15.7755 93.5403 15.8265 93.7347 15.8265C93.929 15.8265 94.0961 15.7744 94.2461 15.6686C94.39 15.5662 94.507 15.388 94.5944 15.1392C94.6876 14.8719 94.735 14.5 94.735 14.0335ZM103.651 13.5813V17.6458H102.154V17.1608L102.1 17.2103C101.939 17.3582 101.733 17.485 101.488 17.5867C101.242 17.6883 100.929 17.7404 100.56 17.7404C99.9308 17.7404 99.3723 17.58 98.8979 17.2639C98.4234 16.9478 98.0506 16.5027 97.7886 15.9404C97.5301 15.384 97.3993 14.7352 97.3993 14.0124C97.3993 13.2896 97.5391 12.6012 97.8149 12.0375C98.0926 11.4692 98.4823 11.023 98.9718 10.7087C99.4614 10.3945 100.03 10.2366 100.663 10.2366C101.107 10.2366 101.513 10.3113 101.869 10.4603C102.225 10.6093 102.536 10.8149 102.792 11.0714C103.047 11.328 103.248 11.6252 103.386 11.9513C103.523 12.2774 103.597 12.6219 103.603 12.9706L103.607 13.1898H101.485L101.452 13.0209C101.419 12.8586 101.366 12.7125 101.293 12.5846C101.225 12.4645 101.137 12.3728 101.026 12.3022C100.918 12.2341 100.782 12.1997 100.62 12.1997C100.452 12.1994 100.287 12.2519 100.144 12.351C99.9997 12.4486 99.879 12.6216 99.7838 12.8659C99.6836 13.1247 99.6325 13.4911 99.6325 13.9551C99.6325 14.3518 99.6692 14.6719 99.7411 14.9071C99.8107 15.1322 99.8982 15.3038 100.001 15.4154C100.103 15.5271 100.213 15.601 100.328 15.638C100.566 15.7145 100.785 15.7211 100.959 15.6557C101.041 15.6247 101.114 15.5844 101.177 15.5348C101.236 15.4888 101.289 15.4337 101.334 15.371C101.365 15.3267 101.389 15.2812 101.406 15.2365H100.389V13.5584L103.65 13.5802H103.651V13.5813ZM103.259 14.0091L100.782 13.9921V14.8072H101.948L101.791 15.3367C101.761 15.4383 101.712 15.5381 101.645 15.6343C101.577 15.7298 101.497 15.814 101.407 15.8846C101.309 15.9612 101.201 16.0215 101.087 16.0635C100.836 16.1585 100.536 16.1541 100.219 16.0517C100.032 15.9886 99.8631 15.8754 99.7267 15.7223C99.5798 15.5633 99.4604 15.3355 99.3706 15.0457C99.2849 14.7658 99.2415 14.3995 99.2415 13.9558C99.2415 13.4264 99.301 13.0153 99.4244 12.6985C99.5512 12.3709 99.7243 12.1314 99.9392 11.9857C100.151 11.8426 100.379 11.7705 100.62 11.7705C100.861 11.7705 101.053 11.8241 101.221 11.9302C101.388 12.0363 101.523 12.179 101.625 12.3572C101.697 12.4831 101.754 12.6187 101.794 12.7606H103.197C103.172 12.5473 103.116 12.3369 103.03 12.1328C102.914 11.8589 102.745 11.6086 102.527 11.3901C102.309 11.1716 102.039 10.9934 101.729 10.864C101.419 10.7346 101.06 10.6692 100.663 10.6692C100.1 10.6692 99.5972 10.8078 99.1695 11.0825C98.7419 11.3572 98.4026 11.7465 98.1598 12.243C97.9151 12.7428 97.791 13.3395 97.791 14.0135C97.791 14.6875 97.9073 15.2505 98.1376 15.7455C98.3649 16.2354 98.6894 16.6228 99.1013 16.8968C99.5132 17.1707 100.004 17.3101 100.56 17.3101C100.881 17.3101 101.147 17.2672 101.349 17.1841C101.551 17.1009 101.722 16.9966 101.85 16.8798L102.209 16.5193L102.545 16.1393V17.2151H103.258V14.0083H103.259V14.0091ZM110.218 10.3339L107.832 14.6265V17.6462H105.75V14.6257L103.393 10.3339H105.675L106.798 12.551L107.91 10.3339H110.217H110.218ZM109.519 10.7642H108.141L106.8 13.4401L105.444 10.7642H104.085L106.14 14.5063V17.2166H107.439V14.5063L109.518 10.7649L109.519 10.7642ZM0 0.0890978V4.47744H4.25604V17.644H8.5188V4.47744H11.5802L13.0038 0.0890978H0ZM16.1721 4.47744H13.1107L14.5343 0.0890978H25.2491L23.8255 4.47744H20.7641V17.644H16.1721V4.47744Z" fill="#CCCCCC"/>
</g>
<defs>
<clipPath id="clip0_792_518">
<rect width="25.3069" height="17.8218" fill="white"/>
</clipPath>
</defs>
</svg>
