<svg width="230" height="29" viewBox="0 0 230 29" fill="none" xmlns="http://www.w3.org/2000/svg">
<path d="M51.1253 11.922V2.93125H48.0808V0.146443H57.0977V2.93125H54.0234V11.922H51.1269H51.1253ZM66.9897 11.922H64.1372L63.4242 9.64205H60.0375L59.3093 11.922H56.4275L60.23 0.146443H63.1856L66.9881 11.922H66.9897ZM62.7713 6.9382L61.7173 3.17651L60.647 6.9382H62.7713ZM74.8918 11.6125C75.5853 11.297 76.1335 10.8559 76.5369 10.2891C76.9403 9.72241 77.142 9.05508 77.142 8.29072C77.142 7.66149 77.0281 7.10131 76.7999 6.61257C76.5716 6.12383 76.2197 5.71665 75.7409 5.39043C75.2622 5.0642 74.65 4.8368 73.9034 4.70702L72.3061 4.42128C71.856 4.34032 71.5426 4.21293 71.367 4.04267C71.2838 3.96675 71.2169 3.87153 71.1713 3.76386C71.1256 3.65619 71.1023 3.53875 71.1029 3.41999C71.1029 3.17651 71.2092 2.95863 71.4228 2.75266C71.6364 2.54669 72.0089 2.44251 72.5446 2.44251C72.8765 2.44251 73.159 2.48716 73.3948 2.57645C73.6307 2.66575 73.8172 2.80386 73.9549 2.9878C74.0926 3.17175 74.1783 3.41404 74.2081 3.71288H77.0753C77.0601 2.98483 76.8779 2.3419 76.5261 1.78292C76.1742 1.22393 75.6704 0.786984 75.0138 0.471476C74.3572 0.155968 73.5629 0 72.626 0C71.7693 0 70.9966 0.147634 70.308 0.444093C69.6194 0.740551 69.075 1.16917 68.6744 1.73113C68.2737 2.29309 68.072 2.97054 68.072 3.76229C68.072 4.43081 68.1918 5.00289 68.4325 5.48091C68.6733 5.95894 69.0197 6.34588 69.4752 6.64174C69.9306 6.93761 70.4772 7.14775 71.1164 7.27217L72.9507 7.63054C73.3021 7.70078 73.6074 7.7996 73.8638 7.92818C74.1203 8.05677 74.2499 8.29072 74.2499 8.63302C74.2499 8.89435 74.1702 9.09854 74.008 9.24737C73.8459 9.39619 73.648 9.50334 73.4111 9.56526C73.1799 9.6266 72.943 9.65797 72.7051 9.65872C72.3137 9.65872 71.978 9.60573 71.6993 9.50037C71.4206 9.395 71.1978 9.2432 71.034 9.04854C70.8685 8.84911 70.7555 8.60404 70.7071 8.33953H67.7656C67.8101 8.97412 67.9782 9.52775 68.2704 9.99744C68.5627 10.4671 68.9357 10.8565 69.389 11.1666C69.8423 11.4768 70.3389 11.7065 70.8822 11.8595C71.4255 12.0125 71.9731 12.0869 72.5273 12.0869C73.4084 12.0869 74.1956 11.9298 74.8897 11.6149L74.8918 11.6125ZM81.754 11.922V7.19954H85.46V11.922H88.3494V0.146443H85.46V4.6094H81.754V0.146443H78.8646V11.922H81.754ZM93.5031 11.922V8.84375L94.8397 6.95487L97.2319 11.9226H100.335L96.9044 4.64214L99.8529 0.146443H96.6072L93.502 4.90169V0.146443H90.5014V11.922H93.502H93.5031ZM109.717 11.922V9.28308H104.659V7.2805H108.87V4.7225H104.681V2.76873H109.687L109.702 0.146443H101.77V11.922H109.717ZM114.425 11.922V4.90288L118.919 11.922H121.525V0.146443H118.636V6.70901L114.447 0.146443H111.536V11.922H114.425ZM128.841 11.922V2.93125H131.915V0.146443H122.899V2.93125H125.943V11.922H128.84H128.841ZM146.008 0.164898V6.99714C146.008 7.97819 145.861 8.85506 145.572 9.60335C145.27 10.3802 144.767 10.9946 144.075 11.4291C143.394 11.8554 142.474 12.0721 141.339 12.0721C140.205 12.0721 139.286 11.8554 138.604 11.4291C137.911 10.9946 137.408 10.3802 137.107 9.60335C136.818 8.85506 136.671 7.97819 136.671 6.99714V0.164898H140.05V7.11917C140.05 7.77936 140.178 8.24072 140.431 8.49253C140.697 8.75624 140.994 8.88483 141.339 8.88483C141.562 8.88693 141.781 8.82821 141.978 8.71398C142.167 8.60563 142.317 8.4324 142.439 8.18357C142.565 7.9264 142.628 7.56922 142.628 7.11977V0.166684H146.007L146.008 0.164898ZM145.378 0.856634H143.26V7.11917C143.26 7.68471 143.171 8.15321 142.996 8.51039C142.815 8.88007 142.571 9.1545 142.271 9.32654C141.985 9.49227 141.665 9.57813 141.341 9.57657C140.838 9.57657 140.39 9.38428 140.009 9.00567C139.619 8.61754 139.42 7.98414 139.42 7.12036V0.857825H137.303V6.99892C137.303 7.88651 137.432 8.6729 137.689 9.33428C137.938 9.97839 138.34 10.4671 138.919 10.8297C139.503 11.1952 140.318 11.3803 141.341 11.3803C142.364 11.3803 143.179 11.1952 143.762 10.8297C144.341 10.4671 144.743 9.97839 144.993 9.33428C145.249 8.67112 145.379 7.88651 145.379 6.99892V0.857825L145.378 0.856634ZM157.553 0.164898V11.9179H154.624L150.882 6.07323V11.9179H147.538V0.164898H150.752L154.207 5.57914V0.164898H157.552H157.553ZM156.922 0.856634H154.839V7.77281L150.425 0.856634H148.17V11.2261H150.253V3.88373L154.953 11.2261H156.922V0.856634ZM162.614 0.164898V11.9179H159.27V0.164898H162.614ZM161.983 0.856634H159.9V11.2261H161.983V0.856634ZM174.15 0.164898L170.533 11.9173H167.094L163.477 0.164898H166.703L168.814 7.00428L170.918 0.164898H174.15ZM173.271 0.856634H171.37L168.814 9.16402L166.25 0.856634H164.355L167.547 11.2261H170.081L173.273 0.856634H173.271ZM183.108 8.7485V11.9179H175.012V0.164898H183.095L183.078 3.31938H178.378V4.46414H182.313V7.55731H178.357V8.74791H183.109L183.108 8.7485ZM182.477 9.44024H177.725V6.86677H181.681V5.15588H177.746V2.62765H182.451L182.461 0.856039H175.642V11.2255H182.477V9.43786V9.43905V9.44024ZM193.702 11.9179H190.22L188.755 8.10856H187.857V11.9179H184.512V0.164898H189.404C190.328 0.164898 191.088 0.33813 191.665 0.680426C192.254 1.02927 192.69 1.51265 192.96 2.11331C193.222 2.6967 193.355 3.35689 193.355 4.07541C193.355 4.68024 193.278 5.20946 193.129 5.64641C192.978 6.08752 192.766 6.4703 192.5 6.78462C192.301 7.01926 192.08 7.23017 191.841 7.41385L193.703 11.9173L193.702 11.9179ZM190.637 11.2261H192.722L191.037 7.15311L191.276 6.99357C191.56 6.80247 191.817 6.57388 192.036 6.31552C192.246 6.06669 192.415 5.7607 192.537 5.40352C192.659 5.04634 192.722 4.59689 192.722 4.07601C192.722 3.46464 192.61 2.90803 192.391 2.41989C192.176 1.94365 191.841 1.57397 191.362 1.29001C190.878 1.00308 190.219 0.85723 189.402 0.85723H185.14V11.2267H187.224V7.41742H189.171L190.636 11.2267L190.637 11.2261ZM190.155 2.87827C190.467 3.2164 190.625 3.63072 190.625 4.10696C190.625 4.5457 190.484 4.95288 190.205 5.31661C189.914 5.6982 189.54 5.89167 189.096 5.89167H187.225V2.37107H189.096C189.487 2.37107 189.844 2.54311 190.155 2.88005V2.87827ZM189.994 4.10577C189.996 3.96805 189.972 3.83137 189.924 3.70441C189.875 3.57744 189.803 3.46295 189.712 3.3682C189.52 3.15984 189.319 3.05983 189.096 3.05983H187.855V5.19934H189.096C189.216 5.20245 189.336 5.17445 189.445 5.11758C189.554 5.06071 189.649 4.97657 189.723 4.87192C189.905 4.6338 189.994 4.38318 189.994 4.10756V4.10577ZM203.878 8.16154C203.878 8.95567 203.664 9.65931 203.242 10.2522C202.831 10.8303 202.268 11.2851 201.568 11.6012C200.882 11.9125 200.095 12.0709 199.23 12.0709C198.682 12.0705 198.137 11.9951 197.607 11.8464C197.068 11.6946 196.566 11.4619 196.116 11.1547C195.654 10.8392 195.271 10.4374 194.972 9.95875C194.667 9.46882 194.489 8.8884 194.444 8.23357L194.418 7.86151H197.776L197.829 8.13475C197.868 8.33537 197.944 8.50027 198.06 8.63957C198.176 8.77886 198.343 8.89138 198.555 8.97115C198.783 9.05747 199.067 9.10092 199.397 9.10092C199.591 9.10092 199.789 9.07532 199.986 9.02234C200.16 8.97651 200.304 8.9009 200.418 8.79613C200.472 8.74612 200.533 8.66635 200.533 8.48241C200.533 8.26691 200.461 8.18892 200.355 8.13594C200.138 8.02879 199.874 7.94247 199.57 7.88175L197.849 7.54481C197.214 7.42039 196.66 7.20668 196.201 6.90903C195.726 6.60067 195.357 6.19051 195.105 5.68867C194.855 5.19041 194.727 4.59094 194.727 3.90813C194.727 3.08781 194.94 2.37524 195.359 1.78649C195.769 1.21143 196.331 0.769126 197.027 0.4685C197.708 0.176208 198.478 0.0273837 199.319 0.0273837C200.237 0.0273837 201.034 0.186924 201.688 0.499455C202.356 0.820321 202.878 1.27513 203.24 1.85138C203.603 2.42763 203.797 3.10448 203.812 3.85277L203.82 4.20578H200.522L200.491 3.89742C200.47 3.68609 200.414 3.51881 200.324 3.39915C200.231 3.27474 200.105 3.18247 199.938 3.11877C199.752 3.04852 199.517 3.01161 199.243 3.01161C198.691 3.01161 198.477 3.13901 198.399 3.2158C198.206 3.40392 198.205 3.53905 198.205 3.5837C198.205 3.71526 198.248 3.81527 198.347 3.91111C198.414 3.976 198.598 4.09803 199.071 4.18435L200.571 4.45224C201.31 4.58082 201.931 4.81358 202.414 5.14219C202.91 5.48032 203.283 5.91191 203.522 6.42625C203.758 6.93225 203.878 7.51564 203.878 8.15975V8.16154ZM203.247 8.16154C203.247 7.62815 203.15 7.15072 202.961 6.74354C202.774 6.3429 202.478 6.00358 202.081 5.73272C201.67 5.45234 201.128 5.25232 200.471 5.13862L198.971 4.87073C198.481 4.78263 198.142 4.63916 197.929 4.43259C197.818 4.32852 197.728 4.19912 197.667 4.05336C197.606 3.9076 197.574 3.74897 197.574 3.58846C197.574 3.26104 197.712 2.9634 197.98 2.70206C198.242 2.44787 198.656 2.32464 199.243 2.32464C199.589 2.32464 199.892 2.37345 200.146 2.4693C200.42 2.57467 200.645 2.74016 200.812 2.9634C200.932 3.12644 201.019 3.31553 201.067 3.51821H203.16C203.105 3.04852 202.959 2.62229 202.724 2.24785C202.429 1.77816 201.996 1.4049 201.437 1.13702C200.862 0.862587 200.15 0.722692 199.32 0.722692C198.558 0.722692 197.864 0.855444 197.257 1.11618C196.667 1.37038 196.196 1.74006 195.857 2.2163C195.521 2.68599 195.358 3.2408 195.358 3.91171C195.358 4.47724 195.459 4.96479 195.657 5.35828C195.854 5.75177 196.144 6.07264 196.522 6.3179C196.915 6.57388 197.398 6.75783 197.958 6.86736L199.681 7.2043C200.037 7.27574 200.35 7.37753 200.615 7.5085C200.969 7.68471 201.162 8.03057 201.162 8.48538C201.162 8.83066 201.045 9.12116 200.824 9.32714C200.623 9.50815 200.387 9.63515 200.133 9.69801C199.887 9.76289 199.639 9.79564 199.396 9.79564C198.995 9.79564 198.642 9.73908 198.349 9.62776C198.037 9.50989 197.783 9.33547 197.594 9.10926C197.46 8.94793 197.356 8.76279 197.284 8.55563H195.116C195.176 8.91899 195.304 9.26486 195.491 9.5718C195.74 9.97125 196.062 10.3064 196.448 10.5707C196.855 10.846 197.297 11.0514 197.761 11.1797C198.242 11.3148 198.736 11.3827 199.228 11.3827C200.011 11.3827 200.717 11.2422 201.326 10.966C201.924 10.6951 202.4 10.3124 202.743 9.82897C203.082 9.35392 203.245 8.80982 203.245 8.16333L203.247 8.16154ZM208.537 0.164898V11.9179H205.192V0.164898H208.537ZM207.906 0.856634H205.822V11.2261H207.906V0.856634ZM218.622 0.164898V3.47238H215.734V11.9179H212.382V3.47238H209.521V0.164898H218.622ZM217.991 0.856634H210.152V2.78064H213.013V11.2261H215.103V2.78064H217.991V0.856634ZM230 0.164898L226.161 7.06381V11.9179H222.808V7.06381L219.014 0.164898H222.689L224.497 3.72776L226.286 0.164898H230ZM228.877 0.856634H226.661L224.501 5.15707L222.32 0.856634H220.134L223.441 6.87034V11.2261H225.532V6.87034L228.879 0.856634H228.877ZM58.3838 22.5416C58.3838 23.7375 58.1702 24.7989 57.7505 25.6961C57.326 26.6027 56.7138 27.3159 55.9314 27.8165C55.1539 28.313 54.2294 28.566 53.184 28.566C52.1387 28.566 51.1996 28.3142 50.4193 27.8177C49.6358 27.3182 49.021 26.6063 48.5937 25.7026C48.1702 24.8079 47.9571 23.7459 47.9571 22.5439C47.9571 21.342 48.1757 20.2681 48.6051 19.3651C49.02 18.4765 49.6575 17.7367 50.4426 17.2327C51.225 16.7309 52.1484 16.4761 53.1835 16.4761C54.2186 16.4761 55.1338 16.7303 55.9113 17.2339C56.6921 17.7387 57.307 18.456 57.7375 19.3662C58.1647 20.2687 58.3816 21.3379 58.3816 22.5451L58.3838 22.5416ZM57.7505 22.5416C57.7505 21.4468 57.558 20.486 57.1779 19.6835C56.8016 18.8894 56.2681 18.2655 55.5909 17.8286C54.9137 17.3916 54.1009 17.1666 53.184 17.1666C52.2672 17.1666 51.4463 17.3899 50.7614 17.8286C50.079 18.2672 49.525 18.9108 49.1646 19.6835C48.7818 20.486 48.5883 21.448 48.5883 22.5416C48.5883 23.6351 48.7786 24.5864 49.1549 25.3817C49.5263 26.1669 50.0582 26.7849 50.737 27.2164C51.4197 27.651 52.2428 27.8713 53.1846 27.8713C54.1264 27.8713 54.9332 27.651 55.6137 27.2164C56.2898 26.7849 56.8195 26.1663 57.1882 25.3788C57.5624 24.5817 57.7505 23.6268 57.7505 22.5416ZM55.1636 20.4926C55.3415 21.023 55.4315 21.7278 55.4315 22.5874C55.4315 23.447 55.3415 24.1072 55.1625 24.6174C54.9739 25.1573 54.7011 25.5579 54.3541 25.8044C54.012 26.0479 53.6183 26.1711 53.1851 26.1711C52.7519 26.1711 52.3582 26.0479 52.0161 25.8044C51.6691 25.5579 51.3953 25.1591 51.2039 24.6192C51.0201 24.1007 50.9312 23.4363 50.9312 22.5868C50.9312 21.7373 51.0222 21.0212 51.2028 20.4908C51.3931 19.9318 51.6642 19.5163 52.0085 19.2567C52.3528 18.9972 52.7476 18.8656 53.1846 18.8656C53.6216 18.8656 54.0163 18.9966 54.3612 19.2567C54.706 19.5169 54.976 19.9342 55.1636 20.4926ZM54.7982 22.5874C54.7982 21.8094 54.7217 21.1855 54.5688 20.7319C54.4268 20.3098 54.2354 20.005 54.0011 19.8282C53.7615 19.6466 53.4936 19.5591 53.184 19.5591C52.8924 19.553 52.6064 19.6471 52.3658 19.8282C52.13 20.0056 51.9375 20.3116 51.7944 20.7336C51.6404 21.1855 51.5623 21.8111 51.5623 22.5874C51.5623 23.3637 51.6398 23.9364 51.7933 24.3679C51.9353 24.7698 52.1267 25.0567 52.3599 25.2234C52.606 25.3964 52.8935 25.4849 53.1857 25.4776C53.5001 25.4776 53.7696 25.3936 54.0098 25.2234C54.243 25.0585 54.4317 24.7698 54.5726 24.3697C54.7234 23.9381 54.7998 23.3387 54.7998 22.5874H54.7982ZM62.9416 19.758V21.0587H66.8525V24.1304H62.9416V28.4106H59.588V16.6255H67.6387L67.6203 19.758H62.9416ZM62.3094 21.7528V19.0656H66.9919L67.0016 17.3202H60.2203V27.7183H62.3094V23.4381H66.2209V21.7534L62.3094 21.7528ZM78.4498 28.4136V19.4198H81.5257V16.6338H72.5061V19.4198H75.5522V28.4136H78.4498ZM90.8495 28.4136V25.7746H85.7897V23.7703H90.0021V21.2129H85.8119V19.2573H90.8186L90.8338 16.635H82.8992V28.4148H90.8485L90.8495 28.4136ZM99.5048 28.2136C100.075 27.9713 100.532 27.6385 100.876 27.2111C101.221 26.7846 101.486 26.2881 101.656 25.7496C101.835 25.1869 101.961 24.6057 102.031 24.0149H99.0152C98.9648 24.3663 98.8616 24.7061 98.7099 25.0204C98.5619 25.3276 98.3672 25.5728 98.1265 25.758C97.8858 25.9431 97.6006 26.0354 97.2687 26.0354C96.7244 26.0354 96.2749 25.7592 95.9235 25.2085C95.5722 24.6579 95.3965 23.7268 95.3965 22.4183C95.3965 21.5552 95.4767 20.8741 95.6383 20.3777C95.7999 19.8812 96.0211 19.5294 96.3036 19.3222C96.5861 19.115 96.9082 19.0126 97.2687 19.0126C97.6006 19.0126 97.8869 19.0841 98.1265 19.2293C98.3672 19.3736 98.5686 19.5857 98.7099 19.8437C98.8585 20.1104 98.9604 20.4253 99.0152 20.7884H102.031C101.952 19.9413 101.704 19.193 101.288 18.5447C100.872 17.8965 100.327 17.3875 99.6545 17.0208C98.9821 16.6541 98.2176 16.4713 97.3663 16.4713C96.321 16.4713 95.4138 16.7148 94.6434 17.2006C93.8729 17.6863 93.2775 18.3709 92.8563 19.2531C92.435 20.1354 92.2246 21.1748 92.2246 22.3683C92.2246 23.5619 92.4371 24.6281 92.8638 25.5621C93.2906 26.4961 93.8881 27.2319 94.6586 27.7695C95.429 28.307 96.3307 28.5743 97.3663 28.5743C98.2225 28.5743 98.936 28.4541 99.5064 28.2118L99.5048 28.2136ZM106.704 28.4136V23.6893H110.411V28.4136H113.302V16.6338H110.411V21.098H106.704V16.6338H103.814V28.4136H106.704ZM125.359 16.6392V28.4136H122.426L118.678 22.557V28.4136H115.327V16.6392H118.547L122.009 22.063V16.6392H125.359ZM124.728 17.3321H122.641V24.262L118.217 17.3321H115.958V27.7207H118.044V20.3646L122.754 27.7207H124.728V17.3321ZM136.981 22.5499C136.981 23.7447 136.768 24.8043 136.349 25.7014C135.924 26.6081 135.313 27.32 134.532 27.8189C133.754 28.3154 132.831 28.5672 131.787 28.5672C130.744 28.5672 129.804 28.3154 129.025 27.8189C128.241 27.3194 127.628 26.6092 127.201 25.705C126.779 24.812 126.564 23.7494 126.564 22.5493C126.564 21.3492 126.781 20.2747 127.212 19.3734C127.645 18.4626 128.263 17.7453 129.049 17.2422C129.834 16.7392 130.752 16.4856 131.787 16.4856C132.823 16.4856 133.735 16.7398 134.512 17.2422C135.29 17.7447 135.907 18.4626 136.337 19.3734C136.765 20.2747 136.982 21.3438 136.982 22.5493L136.981 22.5499ZM136.349 22.5499C136.349 21.4563 136.156 20.4955 135.776 19.6931C135.399 18.9001 134.866 18.2763 134.19 17.8393C133.512 17.4012 132.701 17.1791 131.786 17.1791C130.87 17.1791 130.05 17.4012 129.366 17.8411C128.684 18.279 128.13 18.9223 127.77 19.6949C127.388 20.4961 127.195 21.4569 127.195 22.5499C127.195 23.6429 127.385 24.593 127.76 25.3877C128.13 26.1723 128.662 26.7896 129.341 27.2212C130.022 27.6558 130.845 27.876 131.786 27.876C132.726 27.876 133.534 27.6558 134.214 27.2224C134.889 26.7905 135.436 26.1525 135.787 25.3859C136.161 24.5888 136.35 23.6351 136.35 22.5511L136.349 22.5499ZM133.764 20.5027C133.942 21.0331 134.032 21.7367 134.032 22.5963C134.032 23.4559 133.945 24.1078 133.763 24.6245C133.574 25.1645 133.303 25.5639 132.955 25.8098C132.613 26.0532 132.219 26.1765 131.787 26.1765C131.356 26.1765 130.962 26.0532 130.619 25.8109C130.273 25.5645 130 25.1656 129.809 24.6269C129.625 24.1084 129.536 23.444 129.536 22.5969C129.536 21.7498 129.627 21.0325 129.808 20.5021C129.997 19.9431 130.269 19.5276 130.613 19.268C130.958 19.0085 131.353 18.8769 131.788 18.8769C132.224 18.8769 132.619 19.0079 132.963 19.2668C133.308 19.5258 133.578 19.9419 133.765 20.5021L133.764 20.5027ZM133.399 22.5963C133.399 21.8195 133.322 21.1956 133.17 20.7426C133.029 20.3205 132.838 20.0169 132.603 19.8383C132.362 19.6578 132.077 19.5642 131.786 19.5704C131.495 19.5643 131.209 19.658 130.969 19.8383C130.733 20.0157 130.541 20.3199 130.398 20.7438C130.243 21.1956 130.166 21.8195 130.166 22.5963C130.166 23.3732 130.243 23.9453 130.395 24.3757C130.537 24.7775 130.728 25.0644 130.962 25.2293C131.202 25.4014 131.472 25.4835 131.786 25.4835C132.099 25.4835 132.369 25.3996 132.61 25.2293C132.842 25.0644 133.031 24.7775 133.172 24.3769C133.322 23.9465 133.399 23.3476 133.399 22.5963ZM145.575 25.2692V28.4142H138.184V16.6392H141.535V25.2686L145.575 25.2692ZM144.943 25.9622H140.903V17.3321H138.816V27.7207H144.943V25.9622ZM156.351 22.5505C156.351 23.7453 156.138 24.8049 155.719 25.702C155.294 26.6086 154.682 27.3218 153.902 27.8195C153.123 28.3172 152.201 28.5678 151.158 28.5678C150.114 28.5678 149.174 28.316 148.396 27.8195C147.612 27.32 146.998 26.6098 146.571 25.7056C146.149 24.8126 145.935 23.75 145.935 22.5499C145.935 21.3498 146.151 20.2753 146.582 19.374C147.016 18.4632 147.634 17.7458 148.419 17.2428C149.2 16.741 150.122 16.4862 151.158 16.4862C152.193 16.4862 153.105 16.7404 153.882 17.2428C154.66 17.7453 155.277 18.4632 155.708 19.374C156.135 20.2753 156.352 21.3444 156.352 22.5499L156.351 22.5505ZM155.719 22.5505C155.719 21.4569 155.526 20.4961 155.146 19.6937C154.77 18.9007 154.237 18.2769 153.56 17.8399C152.883 17.403 152.072 17.1797 151.155 17.1797C150.238 17.1797 149.418 17.4018 148.736 17.8417C148.054 18.2796 147.5 18.9229 147.14 19.6954C146.759 20.4967 146.565 21.4575 146.565 22.5505C146.565 23.6435 146.755 24.5936 147.13 25.3883C147.5 26.1729 148.032 26.7902 148.711 27.2218C149.39 27.6534 150.216 27.8766 151.156 27.8766C152.096 27.8766 152.904 27.6564 153.584 27.223C154.259 26.7911 154.806 26.1531 155.158 25.3865C155.531 24.5894 155.72 23.6357 155.72 22.5517L155.719 22.5505ZM153.133 20.5033C153.313 21.0402 153.401 21.7254 153.401 22.5969C153.401 23.4684 153.313 24.1084 153.132 24.6251C152.943 25.1651 152.67 25.5645 152.324 25.8104C151.981 26.0538 151.588 26.1771 151.155 26.1771C150.722 26.1771 150.329 26.0538 149.988 25.8104C149.641 25.5639 149.368 25.1662 149.176 24.6263C148.993 24.1078 148.904 23.4452 148.904 22.5963C148.904 21.7474 148.993 21.039 149.175 20.5015C149.366 19.9425 149.637 19.527 149.981 19.2686C150.325 19.0103 150.721 18.8775 151.156 18.8775C151.591 18.8775 151.987 19.0085 152.331 19.2674C152.675 19.5264 152.946 19.9431 153.133 20.5033ZM152.769 22.5969C152.769 21.8189 152.693 21.195 152.541 20.7432C152.399 20.3211 152.208 20.0175 151.973 19.8389C151.733 19.6584 151.447 19.5648 151.156 19.571C150.865 19.5649 150.58 19.6585 150.339 19.8389C150.104 20.0163 149.911 20.3205 149.768 20.7444C149.613 21.1962 149.536 21.8201 149.536 22.5969C149.536 23.3738 149.613 23.9459 149.765 24.3763C149.907 24.7781 150.099 25.065 150.332 25.2299C150.573 25.402 150.843 25.4841 151.156 25.4841C151.469 25.4841 151.739 25.4002 151.981 25.2299C152.213 25.065 152.401 24.7781 152.542 24.3775C152.693 23.9471 152.769 23.3482 152.769 22.5969ZM167.147 21.8689V28.4136H164.733V27.6326L164.647 27.7123C164.386 27.9504 164.054 28.1546 163.658 28.3183C163.263 28.4821 162.758 28.566 162.162 28.566C161.148 28.566 160.247 28.3076 159.482 27.7986C158.717 27.2897 158.116 26.5729 157.693 25.6675C157.276 24.7716 157.066 23.7268 157.066 22.563C157.066 21.3992 157.291 20.2907 157.736 19.3829C158.184 18.4679 158.812 17.7494 159.601 17.2434C160.391 16.7374 161.308 16.4832 162.329 16.4832C163.045 16.4832 163.699 16.6035 164.273 16.8434C164.847 17.0833 165.349 17.4143 165.761 17.8274C166.174 18.2405 166.497 18.7192 166.719 19.2442C166.941 19.7693 167.059 20.3241 167.07 20.8854L167.076 21.2385H163.654L163.6 20.9664C163.547 20.7051 163.462 20.4699 163.345 20.264C163.235 20.0705 163.093 19.9229 162.914 19.8091C162.74 19.6996 162.521 19.6443 162.26 19.6443C161.988 19.6437 161.722 19.7282 161.492 19.8877C161.259 20.0449 161.064 20.3235 160.911 20.717C160.749 21.1337 160.667 21.7236 160.667 22.4707C160.667 23.1095 160.726 23.625 160.842 24.0036C160.954 24.3662 161.095 24.6424 161.261 24.8222C161.426 25.0019 161.602 25.121 161.789 25.1805C162.173 25.3038 162.526 25.3145 162.805 25.2091C162.939 25.1591 163.056 25.0942 163.157 25.0144C163.253 24.9404 163.338 24.8516 163.41 24.7507C163.461 24.6793 163.499 24.6061 163.526 24.534H161.886V21.832L167.145 21.8671H167.147V21.8689ZM166.516 22.5576L162.521 22.5303V23.8429H164.401L164.147 24.6954C164.099 24.8591 164.02 25.0198 163.913 25.1746C163.803 25.3283 163.673 25.464 163.529 25.5776C163.371 25.7011 163.197 25.7982 163.013 25.8657C162.608 26.0187 162.124 26.0116 161.612 25.8467C161.311 25.7452 161.039 25.5629 160.819 25.3163C160.582 25.0603 160.389 24.6936 160.244 24.2269C160.106 23.7762 160.036 23.1863 160.036 22.4719C160.036 21.6195 160.132 20.9575 160.331 20.4473C160.536 19.9199 160.815 19.5341 161.161 19.2996C161.502 19.0692 161.871 18.9531 162.26 18.9531C162.649 18.9531 162.957 19.0394 163.228 19.2103C163.498 19.3811 163.715 19.6109 163.881 19.8979C163.996 20.1005 164.088 20.3189 164.152 20.5473H166.414C166.375 20.2038 166.285 19.8651 166.145 19.5365C165.959 19.0954 165.686 18.6924 165.334 18.3405C164.982 17.9887 164.548 17.7018 164.048 17.4934C163.548 17.2851 162.969 17.1797 162.329 17.1797C161.421 17.1797 160.61 17.403 159.92 17.8453C159.231 18.2876 158.683 18.9144 158.292 19.7139C157.897 20.5187 157.697 21.4796 157.697 22.5648C157.697 23.65 157.885 24.5567 158.256 25.3538C158.623 26.1425 159.146 26.7664 159.81 27.2075C160.474 27.6486 161.265 27.8731 162.162 27.8731C162.681 27.8731 163.109 27.804 163.435 27.6701C163.761 27.5361 164.036 27.3682 164.242 27.1801L164.822 26.5997L165.364 25.9878V27.7201H166.514V22.5565H166.516V22.5576ZM177.737 16.6398L173.89 23.5518V28.4142H170.531V23.5506L166.73 16.6398H170.41L172.222 20.2098L174.015 16.6398H177.736H177.737ZM176.61 17.3327H174.388L172.225 21.6415L170.038 17.3327H167.847L171.161 23.3583V27.7225H173.255V23.3583L176.608 17.3339L176.61 17.3327ZM0 0.143467V7.20966H6.86326V28.4106H13.7374V7.20966H18.6742L20.9699 0.143467H0ZM26.0791 7.20966H21.1423L23.438 0.143467H40.7165L38.4208 7.20966H33.484V28.4106H26.0791V7.20966Z" fill="#E54519"/>
</svg>
