<?xml version="1.0" encoding="UTF-8" standalone="no"?>
<svg
   width="24"
   height="24"
   viewBox="0 0 24 24"
   fill="none"
   version="1.1"
   id="svg1"
   sodipodi:docname="dna.svg"
   inkscape:version="1.4.3 (0d15f75, 2025-12-25)"
   xmlns:inkscape="http://www.inkscape.org/namespaces/inkscape"
   xmlns:sodipodi="http://sodipodi.sourceforge.net/DTD/sodipodi-0.dtd"
   xmlns="http://www.w3.org/2000/svg"
   xmlns:svg="http://www.w3.org/2000/svg">
  <defs
     id="defs1" />
  <sodipodi:namedview
     id="namedview1"
     pagecolor="#ffffff"
     bordercolor="#000000"
     borderopacity="0.25"
     inkscape:showpageshadow="2"
     inkscape:pageopacity="0.0"
     inkscape:pagecheckerboard="0"
     inkscape:deskcolor="#d1d1d1"
     inkscape:zoom="3.1970729"
     inkscape:cx="14.231768"
     inkscape:cy="11.729479"
     inkscape:window-width="1083"
     inkscape:window-height="694"
     inkscape:window-x="0"
     inkscape:window-y="157"
     inkscape:window-maximized="0"
     inkscape:current-layer="svg1" />
  <path
     style="baseline-shift:baseline;display:inline;overflow:visible;vector-effect:none;fill:#e54519;stroke-linecap:round;stroke-linejoin:round;enable-background:accumulate;stop-color:#000000;stop-opacity:1;opacity:1"
     d="M 5,2 A 1,1 0 0 0 4,3 c 0,0.3367733 0.020573,0.6697855 0.052734,1 0.00346,0.035476 0.00204,0.072035 0.00586,0.1074219 C 4.2318028,5.7126628 4.7780252,7.2244673 5.6191406,8.5390625 6.5784079,10.038295 8.0180084,11.139592 9.6328125,11.978516 6.2693589,13.716803 4,17.105631 4,21 a 1,1 0 0 0 1,1 1,1 0 0 0 1,-1 C 6,17.300645 8.4442487,14.05976 12,13.041016 13.281737,13.408221 14.339632,14.137354 15.269531,15 H 11.5 a 1,1 0 0 0 -1,1 1,1 0 0 0 1,1 h 5.357422 c 0.344744,0.615621 0.523978,1.306484 0.703125,2 H 9 a 1,1 0 0 0 -1,1 1,1 0 0 0 1,1 h 9 a 1,1 0 0 0 1,1 1,1 0 0 0 1,-1 c 0,-0.336819 -0.0206,-0.669873 -0.05273,-1 -0.0035,-0.03547 -0.002,-0.07205 -0.0059,-0.107422 -0.17325,-1.605219 -0.719392,-3.117025 -1.560547,-4.43164 C 17.421645,13.961686 15.982007,12.86041 14.367188,12.021484 17.730646,10.283195 20,6.8943605 20,3 A 1,1 0 0 0 19,2 1,1 0 0 0 18,3 C 18,6.6993458 15.55576,9.94024 12,10.958984 10.718289,10.59178 9.6603924,9.8626532 8.7304688,9 H 12.5 a 1,1 0 0 0 1,-1 1,1 0 0 0 -1,-1 H 7.1425781 C 6.7978403,6.3843762 6.6185941,5.6935112 6.4394531,5 H 15 A 1,1 0 0 0 16,4 1,1 0 0 0 15,3 H 6 A 1,1 0 0 0 5,2 Z"
     id="path1" />
</svg>
