<svg width="32" height="32" viewBox="0 0 32 32" fill="none" xmlns="http://www.w3.org/2000/svg">
<path fill-rule="evenodd" clip-rule="evenodd" d="M29.3334 7.51547C29.3334 4.83773 27.1626 2.66699 24.4849 2.66699H7.51517C4.83742 2.66699 2.66669 4.83773 2.66669 7.51548V24.4852C2.66669 27.1629 4.83743 29.3337 7.51517 29.3337H17.2121V19.6367H14.1818V16.0003H17.2121V11.7579C17.2121 10.6327 17.6591 9.55366 18.4547 8.75805C19.2503 7.96245 20.3294 7.51548 21.4546 7.51548H24.4849V11.1518H22.6667C22.1845 11.1518 21.722 11.3434 21.381 11.6844C21.0401 12.0253 20.8485 12.4878 20.8485 12.97V16.0003H24.3152L23.4061 19.6367H20.8485V29.3337H24.4849C27.1626 29.3337 29.3334 27.1629 29.3334 24.4852V7.51547Z" fill="#5454E3"/>
</svg>
