<svg width="32" height="32" viewBox="0 0 32 32" fill="none" xmlns="http://www.w3.org/2000/svg">
<path d="M17.3714 2.66699C18.8714 2.67099 19.6328 2.67899 20.2901 2.69766L20.5488 2.70699C20.8474 2.71766 21.1421 2.73099 21.4981 2.74699C22.9168 2.81366 23.8848 3.03766 24.7341 3.36699C25.6141 3.70566 26.3554 4.16433 27.0968 4.90433C27.775 5.57064 28.2997 6.37696 28.6341 7.26699C28.9634 8.11633 29.1874 9.08433 29.2541 10.5043C29.2701 10.859 29.2834 11.1537 29.2941 11.4537L29.3021 11.7123C29.3221 12.3683 29.3301 13.1297 29.3328 14.6297L29.3341 15.6243V17.371C29.3374 18.3435 29.3271 19.3161 29.3034 20.2883L29.2954 20.547C29.2848 20.847 29.2714 21.1417 29.2554 21.4963C29.1888 22.9163 28.9621 23.883 28.6341 24.7337C28.2997 25.6237 27.775 26.43 27.0968 27.0963C26.4305 27.7746 25.6241 28.2992 24.7341 28.6337C23.8848 28.963 22.9168 29.187 21.4981 29.2537L20.5488 29.2937L20.2901 29.3017C19.6328 29.3203 18.8714 29.3297 17.3714 29.3323L16.3768 29.3337H14.6314C13.6585 29.3371 12.6855 29.3269 11.7128 29.303L11.4541 29.295C11.1376 29.283 10.8211 29.2692 10.5048 29.2537C9.08611 29.187 8.11811 28.963 7.26745 28.6337C6.37789 28.2991 5.57204 27.7744 4.90611 27.0963C4.22737 26.4301 3.70226 25.6238 3.36745 24.7337C3.03811 23.8843 2.81411 22.9163 2.74745 21.4963L2.70745 20.547L2.70078 20.2883C2.6762 19.3161 2.66509 18.3435 2.66745 17.371V14.6297C2.66375 13.6571 2.67353 12.6846 2.69678 11.7123L2.70611 11.4537C2.71678 11.1537 2.73011 10.859 2.74611 10.5043C2.81278 9.08433 3.03678 8.11766 3.36611 7.26699C3.7017 6.37659 4.22774 5.57024 4.90745 4.90433C5.57298 4.22639 6.37836 3.70176 7.26745 3.36699C8.11811 3.03766 9.08478 2.81366 10.5048 2.74699C10.8594 2.73099 11.1554 2.71766 11.4541 2.70699L11.7128 2.69899C12.685 2.6753 13.6576 2.66508 14.6301 2.66833L17.3714 2.66699ZM16.0008 9.33366C14.2327 9.33366 12.537 10.036 11.2867 11.2863C10.0365 12.5365 9.33411 14.2322 9.33411 16.0003C9.33411 17.7684 10.0365 19.4641 11.2867 20.7144C12.537 21.9646 14.2327 22.667 16.0008 22.667C17.7689 22.667 19.4646 21.9646 20.7148 20.7144C21.9651 19.4641 22.6674 17.7684 22.6674 16.0003C22.6674 14.2322 21.9651 12.5365 20.7148 11.2863C19.4646 10.036 17.7689 9.33366 16.0008 9.33366ZM16.0008 12.0003C16.5261 12.0002 17.0462 12.1036 17.5316 12.3046C18.0169 12.5055 18.4579 12.8001 18.8294 13.1714C19.2009 13.5428 19.4956 13.9837 19.6967 14.469C19.8978 14.9542 20.0014 15.4744 20.0014 15.9997C20.0015 16.5249 19.8982 17.0451 19.6972 17.5304C19.4963 18.0158 19.2017 18.4568 18.8303 18.8283C18.459 19.1998 18.0181 19.4945 17.5328 19.6956C17.0475 19.8967 16.5274 20.0002 16.0021 20.0003C14.9412 20.0003 13.9238 19.5789 13.1737 18.8288C12.4235 18.0786 12.0021 17.0612 12.0021 16.0003C12.0021 14.9395 12.4235 13.922 13.1737 13.1719C13.9238 12.4218 14.9412 12.0003 16.0021 12.0003M23.0021 7.33366C22.5601 7.33366 22.1362 7.50925 21.8236 7.82181C21.511 8.13438 21.3354 8.5583 21.3354 9.00033C21.3354 9.44235 21.511 9.86628 21.8236 10.1788C22.1362 10.4914 22.5601 10.667 23.0021 10.667C23.4441 10.667 23.8681 10.4914 24.1806 10.1788C24.4932 9.86628 24.6688 9.44235 24.6688 9.00033C24.6688 8.5583 24.4932 8.13438 24.1806 7.82181C23.8681 7.50925 23.4441 7.33366 23.0021 7.33366Z" fill="#5454E3"/>
</svg>
