<?xml version="1.0" encoding="UTF-8" standalone="no"?>
<svg
   width="24"
   height="24"
   viewBox="0 0 24 24"
   fill="none"
   version="1.1"
   id="svg1"
   sodipodi:docname="landmark.svg"
   inkscape:version="1.4.3 (0d15f75, 2025-12-25)"
   xmlns:inkscape="http://www.inkscape.org/namespaces/inkscape"
   xmlns:sodipodi="http://sodipodi.sourceforge.net/DTD/sodipodi-0.dtd"
   xmlns="http://www.w3.org/2000/svg"
   xmlns:svg="http://www.w3.org/2000/svg">
  <defs
     id="defs1" />
  <sodipodi:namedview
     id="namedview1"
     pagecolor="#ffffff"
     bordercolor="#000000"
     borderopacity="0.25"
     inkscape:showpageshadow="2"
     inkscape:pageopacity="0.0"
     inkscape:pagecheckerboard="0"
     inkscape:deskcolor="#d1d1d1"
     inkscape:zoom="4.834708"
     inkscape:cx="12.72052"
     inkscape:cy="2.4820527"
     inkscape:window-width="1083"
     inkscape:window-height="577"
     inkscape:window-x="0"
     inkscape:window-y="157"
     inkscape:window-maximized="0"
     inkscape:current-layer="svg1" />
  <path
     style="baseline-shift:baseline;display:inline;overflow:visible;vector-effect:none;fill:#e54519;stroke-linecap:round;stroke-linejoin:round;enable-background:accumulate;stop-color:#000000;stop-opacity:1;opacity:1"
     d="M 11.140625,1.8007812 C 10.40982,2.0194029 9.9612345,2.4739269 9.2089844,3.1425781 L 2.3359375,9.2519531 A 1.0001,1.0001 0 0 0 3,11 H 21 A 1.0001,1.0001 0 0 0 21.664062,9.2519531 L 14.791016,3.1425781 C 14.038732,2.4739327 13.59018,2.0194029 12.859375,1.8007812 c -0.560774,-0.1677073 -1.157976,-0.1677073 -1.71875,0 z m 0.572266,1.9160157 c 0.187226,-0.055993 0.386992,-0.055993 0.574218,0 0.117995,0.035298 0.421512,0.2512472 1.173829,0.9199218 L 18.369141,9 H 5.6308594 L 10.539063,4.6367187 C 11.291332,3.96805 11.594896,3.7520952 11.712891,3.7167969 Z M 6,12 a 1,1 0 0 0 -1,1 v 4 H 3 a 1,1 0 0 0 -1,1 1,1 0 0 0 1,1 h 3 4 4 4 3 a 1,1 0 0 0 1,-1 1,1 0 0 0 -1,-1 h -2 v -4 a 1,1 0 0 0 -1,-1 1,1 0 0 0 -1,1 v 4 h -2 v -4 a 1,1 0 0 0 -1,-1 1,1 0 0 0 -1,1 v 4 h -2 v -4 a 1,1 0 0 0 -1,-1 1,1 0 0 0 -1,1 v 4 H 7 V 13 A 1,1 0 0 0 6,12 Z m -3,8 a 1,1 0 0 0 -1,1 1,1 0 0 0 1,1 h 18 a 1,1 0 0 0 1,-1 1,1 0 0 0 -1,-1 z"
     id="path1" />
</svg>
