<?xml version="1.0" encoding="UTF-8" standalone="no"?>
<svg
   viewBox="0 0 24 24"
   fill="none"
   width="32"
   height="32"
   version="1.1"
   id="svg1"
   sodipodi:docname="laptop.svg"
   inkscape:version="1.4.3 (0d15f75, 2025-12-25)"
   xmlns:inkscape="http://www.inkscape.org/namespaces/inkscape"
   xmlns:sodipodi="http://sodipodi.sourceforge.net/DTD/sodipodi-0.dtd"
   xmlns="http://www.w3.org/2000/svg"
   xmlns:svg="http://www.w3.org/2000/svg">
  <defs
     id="defs1" />
  <sodipodi:namedview
     id="namedview1"
     pagecolor="#ffffff"
     bordercolor="#000000"
     borderopacity="0.25"
     inkscape:showpageshadow="2"
     inkscape:pageopacity="0.0"
     inkscape:pagecheckerboard="0"
     inkscape:deskcolor="#d1d1d1"
     inkscape:zoom="2.8639995"
     inkscape:cx="21.298887"
     inkscape:cy="14.839388"
     inkscape:window-width="1083"
     inkscape:window-height="518"
     inkscape:window-x="0"
     inkscape:window-y="157"
     inkscape:window-maximized="0"
     inkscape:current-layer="svg1" />
  <path
     style="baseline-shift:baseline;display:inline;overflow:visible;vector-effect:none;fill:currentColor;stroke-linejoin:round;enable-background:accumulate;stop-color:#000000;stop-opacity:1;opacity:1"
     d="m 6.1992187,3 c -1.1201,0 -1.8181451,-0.052144 -2.5605468,0.3261719 -0.5644414,0.2875456 -1.0249544,0.7480586 -1.3125,1.3125 C 1.9478559,5.3810736 2,6.0791187 2,7.1992187 V 15 a 1.0001,1.0001 0 0 0 -1,1 v 0.800781 c 0,1.1201 -0.0521441,1.818145 0.3261719,2.560547 0.2875456,0.564441 0.7480586,1.024955 1.3125,1.3125 C 3.3810736,21.052144 4.0791187,21 5.1992187,21 H 18.800781 c 1.1201,0 1.818145,0.05214 2.560547,-0.326172 0.564441,-0.287545 1.024955,-0.748059 1.3125,-1.3125 C 23.052144,18.618926 23,17.920881 23,16.800781 V 16 A 1.0001,1.0001 0 0 0 22,15 V 7.1992187 C 22,6.0791188 22.052144,5.3810736 21.673828,4.6386719 21.386283,4.0742305 20.925769,3.6137175 20.361328,3.3261719 19.618926,2.9478559 18.920881,3 17.800781,3 Z m 0,2 H 17.800781 c 1.1201,0 1.539146,0.051691 1.652344,0.109375 0.188159,0.095854 0.341646,0.2493414 0.4375,0.4375 C 19.948309,5.6600733 20,6.0791188 20,7.1992187 V 15 H 4 V 7.1992187 C 4,6.0791187 4.051691,5.6600733 4.109375,5.546875 4.2052294,5.3587164 4.3587164,5.2052294 4.546875,5.109375 4.6600733,5.051691 5.0791187,5 6.1992187,5 Z M 3.0136719,17 H 20.986328 c -0.01031,0.8417 -0.04498,1.353577 -0.0957,1.453125 -0.09585,0.188159 -0.249341,0.341646 -0.4375,0.4375 C 20.339927,18.948309 19.920881,19 18.800781,19 H 5.1992187 c -1.1201,0 -1.5391454,-0.05169 -1.6523437,-0.109375 -0.1881586,-0.09585 -0.3416456,-0.249341 -0.4375,-0.4375 C 3.0586469,18.353577 3.023978,17.8417 3.0136719,17 Z"
     id="path1" />
</svg>
