<svg width="32" height="32" viewBox="0 0 32 32" fill="none" xmlns="http://www.w3.org/2000/svg">
<path fill-rule="evenodd" clip-rule="evenodd" d="M29.3334 16.0003C29.3334 23.364 23.3637 29.3337 16 29.3337C8.63638 29.3337 2.66669 23.364 2.66669 16.0003C2.66669 8.63669 8.63638 2.66699 16 2.66699C23.3637 2.66699 29.3334 8.63669 29.3334 16.0003ZM9.03032 22.667V8.12154H12.0606V22.667H9.03032ZM17.5152 12.1094C18.2513 11.8116 19.0494 11.6992 19.8392 11.7821C20.629 11.8649 21.3863 12.1405 22.0447 12.5846C22.703 13.0287 23.2422 13.6277 23.6149 14.3289C23.9875 15.0302 24.1822 15.8123 24.1818 16.6064V22.667H21.1515V16.6064C21.1515 16.1242 20.96 15.6617 20.619 15.3207C20.278 14.9798 19.8156 14.7882 19.3334 14.7882C18.8511 14.7882 18.3887 14.9798 18.0477 15.3207C17.7067 15.6617 17.5152 16.1242 17.5152 16.6064V22.667H14.4849V11.7579H17.5152V12.1094Z" fill="#5454E3"/>
</svg>
