<?xml version="1.0" encoding="UTF-8" standalone="no"?>
<svg
   viewBox="0 0 24 24"
   stroke-width="2"
   stroke="currentColor"
   stroke-linecap="round"
   stroke-linejoin="round"
   fill="none"
   width="32"
   height="32"
   version="1.1"
   id="svg2"
   sodipodi:docname="location.svg"
   inkscape:version="1.4.3 (0d15f75, 2025-12-25)"
   xmlns:inkscape="http://www.inkscape.org/namespaces/inkscape"
   xmlns:sodipodi="http://sodipodi.sourceforge.net/DTD/sodipodi-0.dtd"
   xmlns="http://www.w3.org/2000/svg"
   xmlns:svg="http://www.w3.org/2000/svg">
  <defs
     id="defs2" />
  <sodipodi:namedview
     id="namedview2"
     pagecolor="#ffffff"
     bordercolor="#000000"
     borderopacity="0.25"
     inkscape:showpageshadow="2"
     inkscape:pageopacity="0.0"
     inkscape:pagecheckerboard="0"
     inkscape:deskcolor="#d1d1d1"
     inkscape:zoom="2.2025531"
     inkscape:cx="12.939529"
     inkscape:cy="16.571678"
     inkscape:window-width="1083"
     inkscape:window-height="536"
     inkscape:window-x="0"
     inkscape:window-y="157"
     inkscape:window-maximized="0"
     inkscape:current-layer="svg2" />
  <path
     style="baseline-shift:baseline;display:inline;overflow:visible;vector-effect:none;fill:#000000;stroke:none;stroke-linecap:butt;stroke-linejoin:miter;enable-background:accumulate;stop-color:#000000;stop-opacity:1;opacity:1"
     d="m 12,6 c -2.1973068,0 -4,1.8026932 -4,4 0,2.197307 1.8026932,4 4,4 2.197307,0 4,-1.802693 4,-4 0,-2.1973068 -1.802693,-4 -4,-4 z m 0,2 c 1.116493,0 2,0.8835068 2,2 0,1.116493 -0.883507,2 -2,2 -1.116493,0 -2,-0.883507 -2,-2 0,-1.1164932 0.883507,-2 2,-2 z"
     id="path1" />
  <path
     style="baseline-shift:baseline;display:inline;overflow:visible;vector-effect:none;fill:#000000;stroke:none;stroke-linecap:butt;stroke-linejoin:miter;enable-background:accumulate;stop-color:#000000;stop-opacity:1;opacity:1"
     d="m 12,1 c -4.9587341,0 -9,4.0412659 -9,9 0,2.510925 1.1362053,4.7279 2.7070312,6.767578 1.570826,2.039678 3.5982618,3.951778 5.5859378,5.939453 a 1.0001,1.0001 0 0 0 1.414062,0 c 1.987676,-1.987675 4.015112,-3.899775 5.585938,-5.939453 C 19.863795,14.7279 21,12.510925 21,10 21,5.0412659 16.958734,1 12,1 Z m 0,2 c 3.877866,0 7,3.1221341 7,7 0,1.907375 -0.863795,3.691128 -2.292969,5.546875 C 15.464444,17.160344 13.733266,18.822174 12,20.542969 10.266734,18.822174 8.5355562,17.160344 7.2929687,15.546875 5.8637947,13.691128 5,11.907375 5,10 5,6.1221341 8.1221341,3 12,3 Z"
     id="path2" />
</svg>
