<?xml version="1.0" encoding="UTF-8" standalone="no"?>
<svg
   viewBox="0 0 24 24"
   fill="none"
   width="32"
   height="32"
   version="1.1"
   id="svg1"
   sodipodi:docname="mail.svg"
   inkscape:version="1.4.3 (0d15f75, 2025-12-25)"
   xmlns:inkscape="http://www.inkscape.org/namespaces/inkscape"
   xmlns:sodipodi="http://sodipodi.sourceforge.net/DTD/sodipodi-0.dtd"
   xmlns="http://www.w3.org/2000/svg"
   xmlns:svg="http://www.w3.org/2000/svg">
  <defs
     id="defs1" />
  <sodipodi:namedview
     id="namedview1"
     pagecolor="#ffffff"
     bordercolor="#000000"
     borderopacity="0.25"
     inkscape:showpageshadow="2"
     inkscape:pageopacity="0.0"
     inkscape:pagecheckerboard="0"
     inkscape:deskcolor="#d1d1d1"
     inkscape:zoom="3.3262178"
     inkscape:cx="16.384976"
     inkscape:cy="5.11091"
     inkscape:window-width="1083"
     inkscape:window-height="487"
     inkscape:window-x="0"
     inkscape:window-y="157"
     inkscape:window-maximized="0"
     inkscape:current-layer="svg1" />
  <path
     style="baseline-shift:baseline;display:inline;overflow:visible;vector-effect:none;fill:currentColor;stroke-linecap:round;stroke-linejoin:round;enable-background:accumulate;stop-color:#000000;stop-opacity:1;opacity:1"
     d="m 6.1992187,4.25 c -1.1201,0 -1.7835143,-0.039409 -2.4472656,0.2988281 -0.517406,0.2635842 -0.9395408,0.685719 -1.203125,1.203125 C 2.2105911,6.4157044 2.25,7.0791188 2.25,8.1992188 v 7.6015622 c 0,1.1201 -0.039409,1.783515 0.2988281,2.447266 0.2635842,0.517406 0.685719,0.939541 1.203125,1.203125 C 4.4157044,19.789409 5.0791187,19.75 6.1992187,19.75 H 17.800781 c 1.1201,0 1.783515,0.03941 2.447266,-0.298828 0.517406,-0.263584 0.939541,-0.685719 1.203125,-1.203125 C 21.789409,17.584296 21.75,16.920881 21.75,15.800781 V 8.1992188 c 0,-1.1201001 0.03941,-1.7835144 -0.298828,-2.4472657 C 21.187588,5.2345471 20.765453,4.8124123 20.248047,4.5488281 19.584296,4.2105911 18.920881,4.25 17.800781,4.25 Z m 0,1.5 H 17.800781 c 1.1201,0 1.57573,0.038956 1.767578,0.1367187 0.235194,0.1198158 0.425106,0.3097279 0.544922,0.5449219 0.06611,0.1297309 0.07347,0.7004787 0.0918,1.1953125 l -5.070312,3.3828129 c -1.282997,0.855297 -1.865301,1.221095 -2.376953,1.34375 -0.497966,0.11929 -1.01766,0.11929 -1.515625,0 -0.511637,-0.122651 -1.093835,-0.488438 -2.3769536,-1.34375 L 3.7949219,7.6269531 C 3.8132458,7.1321193 3.82061,6.5613715 3.8867188,6.4316406 4.0065345,6.1964466 4.1964466,6.0065345 4.4316406,5.8867187 4.6234893,5.7889557 5.0791187,5.75 6.1992187,5.75 Z M 3.75,9.4023438 8.0332031,12.257813 c 1.2830813,0.855287 1.9844109,1.344938 2.8593749,1.554687 0.727635,0.174309 1.487209,0.174309 2.214844,0 0.874948,-0.209745 1.576371,-0.699385 2.859375,-1.554687 L 20.25,9.4023438 v 6.3984372 c 0,1.1201 -0.03896,1.57573 -0.136719,1.767578 -0.119816,0.235194 -0.309728,0.425106 -0.544922,0.544922 C 19.376511,18.211044 18.920881,18.25 17.800781,18.25 H 6.1992187 c -1.1201,0 -1.5757294,-0.03896 -1.7675781,-0.136719 C 4.1964466,17.993465 4.0065345,17.803553 3.8867188,17.568359 3.7889557,17.376511 3.75,16.920881 3.75,15.800781 Z"
     id="path1" />
</svg>
