<?xml version="1.0" encoding="UTF-8" standalone="no"?>
<svg
   viewBox="0 0 24 24"
   fill="none"
   width="32"
   height="32"
   version="1.1"
   id="svg1"
   sodipodi:docname="rotate.svg"
   inkscape:version="1.4.3 (0d15f75, 2025-12-25)"
   xmlns:inkscape="http://www.inkscape.org/namespaces/inkscape"
   xmlns:sodipodi="http://sodipodi.sourceforge.net/DTD/sodipodi-0.dtd"
   xmlns="http://www.w3.org/2000/svg"
   xmlns:svg="http://www.w3.org/2000/svg">
  <defs
     id="defs1" />
  <sodipodi:namedview
     id="namedview1"
     pagecolor="#ffffff"
     bordercolor="#000000"
     borderopacity="0.25"
     inkscape:showpageshadow="2"
     inkscape:pageopacity="0.0"
     inkscape:pagecheckerboard="0"
     inkscape:deskcolor="#d1d1d1"
     inkscape:zoom="3.5467318"
     inkscape:cx="22.978901"
     inkscape:cy="-0.70487428"
     inkscape:window-width="1083"
     inkscape:window-height="542"
     inkscape:window-x="0"
     inkscape:window-y="157"
     inkscape:window-maximized="0"
     inkscape:current-layer="svg1" />
  <path
     style="baseline-shift:baseline;display:inline;overflow:visible;vector-effect:none;fill:currentColor;stroke-linecap:round;stroke-linejoin:round;enable-background:accumulate;stop-color:#000000;stop-opacity:1;opacity:1"
     d="m 12,3 c -4.9587341,0 -9,4.0412659 -9,9 0,0.380035 0.024284,0.754365 0.070312,1.123047 a 1,1 0 0 0 1.1152344,0.869141 1,1 0 0 0 0.8691406,-1.115235 C 5.0189165,12.590435 5,12.297365 5,12 5,8.1221341 8.1221341,5 12,5 c 1.273469,0 2.410104,0.409073 3.435547,1 h -0.236328 a 1,1 0 0 0 -0.998047,1 1,1 0 0 0 1,1 h 3 a 1.0001,1.0001 0 0 0 0.130859,-0.1308594 1,1 0 0 0 0.5,-0.1503906 A 1,1 0 0 0 19.185547,7.015625 1.0001,1.0001 0 0 0 19.201172,7 V 6.9433594 4 a 1,1 0 0 0 -1,-1 1,1 0 0 0 -1,1 V 4.9101562 C 15.707277,3.8107609 13.9913,3 12,3 Z m 7.814453,7.007813 a 1,1 0 0 0 -0.869141,1.115234 C 18.981084,11.409565 19,11.702635 19,12 c 0,3.877866 -3.122134,7 -7,7 -1.267392,0 -2.3920329,-0.414328 -3.4140625,-1 H 9 A 1,1 0 0 0 10,17 1,1 0 0 0 9,16 H 6 A 1.0001,1.0001 0 0 0 5.5214844,16.478516 1,1 0 0 0 5.3378906,16.541016 1,1 0 0 0 5.2226562,16.777344 1.0001,1.0001 0 0 0 5,17 V 17.291016 20 a 1,1 0 0 0 1,1 1,1 0 0 0 1,-1 V 19.255859 C 8.4542589,20.261706 10.103547,21 12,21 c 4.958734,0 9,-4.041266 9,-9 0,-0.380035 -0.02428,-0.754365 -0.07031,-1.123047 a 1,1 0 0 0 -1.115234,-0.86914 z"
     id="path1" />
</svg>
