<?xml version="1.0" encoding="UTF-8" standalone="no"?>
<svg
   viewBox="0 0 24 24"
   fill="none"
   width="32"
   height="32"
   version="1.1"
   id="svg1"
   sodipodi:docname="ruler.svg"
   inkscape:version="1.4.3 (0d15f75, 2025-12-25)"
   xmlns:inkscape="http://www.inkscape.org/namespaces/inkscape"
   xmlns:sodipodi="http://sodipodi.sourceforge.net/DTD/sodipodi-0.dtd"
   xmlns="http://www.w3.org/2000/svg"
   xmlns:svg="http://www.w3.org/2000/svg">
  <defs
     id="defs1" />
  <sodipodi:namedview
     id="namedview1"
     pagecolor="#ffffff"
     bordercolor="#000000"
     borderopacity="0.25"
     inkscape:showpageshadow="2"
     inkscape:pageopacity="0.0"
     inkscape:pagecheckerboard="0"
     inkscape:deskcolor="#d1d1d1"
     inkscape:zoom="4.9952038"
     inkscape:cx="12.912386"
     inkscape:cy="3.6034566"
     inkscape:window-width="1083"
     inkscape:window-height="581"
     inkscape:window-x="0"
     inkscape:window-y="157"
     inkscape:window-maximized="0"
     inkscape:current-layer="svg1" />
  <path
     style="baseline-shift:baseline;display:inline;overflow:visible;vector-effect:none;fill:currentColor;stroke-linecap:round;stroke-linejoin:round;enable-background:accumulate;stop-color:#000000;stop-opacity:1;opacity:1"
     d="m 16.244141,2.1015625 -2.828125,2.8300781 -2.830078,2.828125 -2.8281255,2.8281254 -2.828125,2.828125 -2.828125,2.828125 a 1.0001,1.0001 0 0 0 0,1.414062 L 6.34375,21.902344 a 1.0001,1.0001 0 0 0 1.4140625,0 L 21.900391,7.7597656 a 1.0001,1.0001 0 0 0 0,-1.4140625 L 17.658203,2.1015625 a 1.0001,1.0001 0 0 0 -1.414062,0 z m 0.707031,2.1230469 2.828125,2.828125 L 7.0507812,19.779297 4.2226562,16.951172 5.6367187,15.537109 6.34375,16.244141 a 1,1 0 0 0 1.4140625,0 1,1 0 0 0 0,-1.414063 L 7.0507812,14.123047 8.4648438,12.708984 9.171875,13.416016 a 1,1 0 0 0 1.414063,0 1,1 0 0 0 0,-1.414063 L 9.8789063,11.294922 11.294922,9.8808594 12.001953,10.587891 a 1,1 0 0 0 1.414063,0 1,1 0 0 0 0,-1.4140629 l -0.707032,-0.7070312 1.414063,-1.4140625 0.707031,0.7070312 a 1,1 0 0 0 1.414063,0 1,1 0 0 0 0,-1.4140625 L 15.537109,5.6386719 Z"
     id="path1" />
</svg>
