<?xml version="1.0" encoding="UTF-8" standalone="no"?>
<svg
   width="24"
   height="24"
   viewBox="0 0 24 24"
   fill="none"
   version="1.1"
   id="svg1"
   sodipodi:docname="school-flag.svg"
   inkscape:version="1.4.3 (0d15f75, 2025-12-25)"
   xmlns:inkscape="http://www.inkscape.org/namespaces/inkscape"
   xmlns:sodipodi="http://sodipodi.sourceforge.net/DTD/sodipodi-0.dtd"
   xmlns="http://www.w3.org/2000/svg"
   xmlns:svg="http://www.w3.org/2000/svg">
  <defs
     id="defs1" />
  <sodipodi:namedview
     id="namedview1"
     pagecolor="#ffffff"
     bordercolor="#000000"
     borderopacity="0.25"
     inkscape:showpageshadow="2"
     inkscape:pageopacity="0.0"
     inkscape:pagecheckerboard="0"
     inkscape:deskcolor="#d1d1d1"
     inkscape:zoom="5.2948068"
     inkscape:cx="18.791998"
     inkscape:cy="15.203577"
     inkscape:window-width="1083"
     inkscape:window-height="602"
     inkscape:window-x="0"
     inkscape:window-y="157"
     inkscape:window-maximized="0"
     inkscape:current-layer="svg1" />
  <path
     style="baseline-shift:baseline;display:inline;overflow:visible;vector-effect:none;fill:#e54519;stroke-linecap:round;stroke-linejoin:round;enable-background:accumulate;stop-color:#000000;stop-opacity:1;opacity:1"
     d="m 12.160156,1 c -0.056,0 -0.222851,-0.0518684 -0.558593,0.1191406 a 1.0001,1.0001 0 0 0 -0.002,0 C 11.39318,1.2244415 11.224544,1.3929748 11.119141,1.5996094 10.947953,1.9355449 11,2.1041463 11,2.1601563 V 5 6.9121094 C 10.34744,7.1497389 9.8942881,7.549206 9.1894531,8.1835938 L 6.515625,10.589844 5.1816406,10.923828 C 4.3150157,11.140519 3.7529126,11.247013 3.2011719,11.660156 2.7742941,11.979861 2.4409843,12.408578 2.234375,12.900391 1.9674123,13.53578 2,14.104647 2,14.998047 v 3.802734 c 0,1.1201 -0.052124,1.818151 0.3261719,2.560547 0.2875469,0.564326 0.7479932,1.024944 1.3125,1.3125 C 4.3810508,23.052115 5.0791187,23 6.1992187,23 H 10 h 4 3.800781 c 1.1201,0 1.818145,0.05214 2.560547,-0.326172 0.564441,-0.287545 1.024955,-0.748059 1.3125,-1.3125 C 22.052144,20.618926 22,19.920881 22,18.800781 v -3.802734 c 0,-0.8934 0.03252,-1.462295 -0.234375,-2.097656 -0.206651,-0.491733 -0.54005,-0.92055 -0.966797,-1.240235 -0.551716,-0.41306 -1.113795,-0.519634 -1.980469,-0.736328 L 17.484375,10.589844 14.810547,8.1835938 C 14.105709,7.5492212 13.65257,7.1497425 13,6.9121094 V 6 h 3.839844 c 0.056,0 0.222851,0.051868 0.558593,-0.1191406 a 1.0001,1.0001 0 0 0 0.002,0 C 17.60682,5.7755585 17.775456,5.6070252 17.880859,5.4003906 18.052047,5.0644551 18,4.8958538 18,4.8398437 V 2.1601563 C 18,2.1041463 18.052047,1.9355449 17.880859,1.5996094 17.775456,1.3929748 17.60682,1.2244415 17.400391,1.1191406 a 1.0001,1.0001 0 0 0 -0.002,0 C 17.062695,0.94813161 16.895844,1 16.839844,1 Z M 13,3 h 3 v 1 h -3 z m -1,5.6914063 c 0.09735,0 0.194986,0.014566 0.289063,0.042969 0.118418,0.035744 0.427022,0.2546129 1.183593,0.9355469 l 2.857422,2.5742191 a 1.0001,1.0001 0 0 0 0.427734,0.226562 l 1.576172,0.394531 c 0.866727,0.216707 1.171942,0.326345 1.265625,0.396485 0.142454,0.106715 0.253317,0.248042 0.322266,0.412109 C 19.967175,13.781667 20,14.104647 20,14.998047 v 3.802734 c 0,1.1201 -0.05169,1.541099 -0.109375,1.654297 -0.09585,0.188159 -0.249341,0.339693 -0.4375,0.435547 C 19.339927,20.948309 18.920881,21 17.800781,21 H 15 v -3 c 0,-1.645007 -1.354993,-3 -3,-3 -1.645007,0 -3,1.354993 -3,3 v 3 H 6.1992187 C 5.0791187,21 4.6601361,20.948338 4.546875,20.890625 4.3587217,20.794781 4.2053081,20.643352 4.109375,20.455078 4.0516908,20.341874 4,19.920881 4,18.800781 v -3.802734 c 0,-0.8934 0.032828,-1.216408 0.078125,-1.324219 0.068891,-0.163987 0.1798034,-0.305414 0.3222656,-0.412109 0.093559,-0.07006 0.3989299,-0.179776 1.265625,-0.396485 L 7.2421875,12.470703 A 1.0001,1.0001 0 0 0 7.6699219,12.244141 L 10.527344,9.6699219 C 11.283898,8.9889843 11.592505,8.7701235 11.710938,8.734375 11.805014,8.7059723 11.902646,8.6914063 12,8.6914063 Z M 12.029297,10.5 c -0.95468,0 -1.75,0.79532 -1.75,1.75 0,0.95468 0.79532,1.75 1.75,1.75 0.95468,0 1.75,-0.79532 1.75,-1.75 0,-0.95468 -0.79532,-1.75 -1.75,-1.75 z M 6,14.5 a 1,1 0 0 0 -1,1 1,1 0 0 0 1,1 h 1 a 1,1 0 0 0 1,-1 1,1 0 0 0 -1,-1 z m 11,0 a 1,1 0 0 0 -1,1 1,1 0 0 0 1,1 h 1 a 1,1 0 0 0 1,-1 1,1 0 0 0 -1,-1 z M 12,17 c 0.564193,0 1,0.435807 1,1 v 3 h -2 v -3 c 0,-0.564193 0.435807,-1 1,-1 z m -6,0.5 a 1,1 0 0 0 -1,1 1,1 0 0 0 1,1 h 1 a 1,1 0 0 0 1,-1 1,1 0 0 0 -1,-1 z m 11,0 a 1,1 0 0 0 -1,1 1,1 0 0 0 1,1 h 1 a 1,1 0 0 0 1,-1 1,1 0 0 0 -1,-1 z"
     id="path1" />
</svg>
