<?xml version="1.0" encoding="UTF-8" standalone="no"?>
<svg
   viewBox="0 0 24 24"
   fill="none"
   width="32"
   height="32"
   version="1.1"
   id="svg1"
   sodipodi:docname="shield.svg"
   inkscape:version="1.4.3 (0d15f75, 2025-12-25)"
   xmlns:inkscape="http://www.inkscape.org/namespaces/inkscape"
   xmlns:sodipodi="http://sodipodi.sourceforge.net/DTD/sodipodi-0.dtd"
   xmlns="http://www.w3.org/2000/svg"
   xmlns:svg="http://www.w3.org/2000/svg">
  <defs
     id="defs1" />
  <sodipodi:namedview
     id="namedview1"
     pagecolor="#ffffff"
     bordercolor="#000000"
     borderopacity="0.25"
     inkscape:showpageshadow="2"
     inkscape:pageopacity="0.0"
     inkscape:pagecheckerboard="0"
     inkscape:deskcolor="#d1d1d1"
     inkscape:zoom="3.7255636"
     inkscape:cx="22.681132"
     inkscape:cy="12.749749"
     inkscape:window-width="1083"
     inkscape:window-height="616"
     inkscape:window-x="0"
     inkscape:window-y="157"
     inkscape:window-maximized="0"
     inkscape:current-layer="svg1" />
  <path
     style="baseline-shift:baseline;display:inline;overflow:visible;vector-effect:none;fill:currentColor;stroke-linecap:round;stroke-linejoin:round;enable-background:accumulate;stop-color:#000000;stop-opacity:1;opacity:1"
     d="M 11.292969,2.2929688 C 10.537143,3.0487948 9.8707991,3.4233351 9.0058594,3.6621094 8.1409196,3.9008837 7.0503922,3.9768889 5.5898437,3.9941406 5.0222843,4.0008413 4.6069102,3.9516642 4.078125,4.2265625 3.7089393,4.418547 3.4023874,4.728265 3.2148438,5.0996094 2.9486761,5.6264924 3,6.0417094 3,6.5996094 V 12 c 0,2.817794 1.5157396,5.16023 3.1992187,6.914062 1.6834792,1.753833 3.5763886,2.967487 4.5996093,3.564454 0.221303,0.129043 0.462041,0.273336 0.78125,0.341796 0.316007,0.06773 0.523837,0.06773 0.839844,0 0.319209,-0.06846 0.559947,-0.212753 0.78125,-0.341796 1.023221,-0.596967 2.91613,-1.810621 4.599609,-3.564454 C 19.48426,17.16023 21,14.817794 21,12 V 6.5996094 c 0,-0.5579 0.05132,-0.973117 -0.214844,-1.5 C 20.597613,4.728265 20.291228,4.4185316 19.921875,4.2265625 19.392982,3.9514779 18.977716,4.0008413 18.410156,3.9941406 16.949608,3.9768889 15.85908,3.9008837 14.994141,3.6621094 14.129201,3.4233351 13.462857,3.0487948 12.707031,2.2929688 a 1.0001,1.0001 0 0 0 -1.414062,0 z M 12,4.2597656 c 0.766638,0.609421 1.570406,1.0842389 2.460938,1.3300781 1.16316,0.3211008 2.414729,0.3864487 3.925781,0.4042969 0.56744,0.0067 0.719574,0.063097 0.613281,0.00781 -0.05137,-0.101683 0,0.039756 0,0.5976563 V 12 c 0,2.090606 -1.162057,3.986904 -2.642578,5.529297 -1.480521,1.542392 -3.239283,2.683123 -4.164063,3.222656 C 11.971862,20.88111 11.993191,20.866695 12,20.865234 c 0.0068,0.0015 0.02814,0.01588 -0.193359,-0.113281 C 10.881861,20.21242 9.123099,19.071689 7.6425781,17.529297 6.1620573,15.986904 5,14.090606 5,12 V 6.5996094 c 0,-0.5579 0.051368,-0.6993393 0,-0.5976563 -0.1059852,0.055098 0.045841,-0.00111 0.6132812,-0.00781 C 7.1243328,5.9762924 8.3759023,5.9109445 9.5390625,5.5898437 10.429594,5.3440045 11.233362,4.8691866 12,4.2597656 Z"
     id="path1" />
</svg>
