<svg viewBox="0 0 24 24" fill="none" width="32" height="32" xmlns="http://www.w3.org/2000/svg" xmlns:xlink="http://www.w3.org/1999/xlink">
    <path fill="currentColor" clip-rule="evenodd" d="M5.7873 14.02c0.0433 0.0133 0.0874 0.0237 0.132 0.031 0.283 0.6666 0.5643 1.334 0.844 2.002 0.503 1.202 1.01 2.44 1.121 2.796 0.139 0.438 0.285 0.736 0.445 0.94 0.083 0.104 0.178 0.196 0.29 0.266 0.0589 0.0356 0.1212 0.0651 0.186 0.088 0.32 0.12 0.612 0.07 0.795 9e-3 0.1075-0.0365 0.2097-0.087 0.304-0.15l5e-3-2e-3 2.826-1.762 3.265 2.502c0.048 0.0367 0.1 0.0677 0.156 0.093 0.392 0.17 0.772 0.23 1.13 0.182 0.356-0.05 0.639-0.199 0.85-0.368 0.2421-0.1955 0.4352-0.4448 0.564-0.728l9e-3-0.022 3e-3-8e-3 2e-3-4e-3v-2e-3l1e-3-1e-3c0.0164-0.0434 0.0298-0.0878 0.04-0.133l2.98-15.025c83e-4-0.0483 0.013-0.0971 0.014-0.146 0-0.44-0.166-0.859-0.555-1.112-0.334-0.217-0.705-0.227-0.94-0.209-0.252 0.02-0.486 0.082-0.643 0.132-0.0877 0.0283-0.1744 0.0597-0.26 0.094l-0.011 5e-3-16.714 6.556-2e-3 1e-3c-0.0566 0.0205-0.1124 0.0435-0.167 0.069-0.1325 0.0595-0.2597 0.1304-0.38 0.212-0.227 0.155-0.75 0.581-0.661 1.285 0.07 0.56 0.454 0.905 0.689 1.071 0.128 0.091 0.25 0.156 0.34 0.199 0.04 0.02 0.126 0.054 0.163 0.07l0.01 3e-3zM19.9253 4.868l-2e-3 0-0.026 0.011-16.734 6.565-0.026 0.01-0.01 3e-3c-0.0306 0.0118-0.0606 0.0252-0.09 0.04 0.028 0.0157 0.0567 0.03 0.086 0.043l3.142 1.058c0.0555 0.0205 0.1091 0.046 0.16 0.076l10.377-6.075 0.01-5e-3c0.0406-0.0241 0.0819-0.0468 0.124-0.068 0.072-0.037 0.187-0.091 0.317-0.131 0.09-0.028 0.357-0.107 0.645-0.014 0.153 0.0477 0.2894 0.1377 0.3935 0.2596 0.104 0.122 0.1715 0.2708 0.1945 0.4294 0.0373 0.1387 0.0383 0.2847 3e-3 0.424-0.07 0.275-0.262 0.489-0.437 0.653-0.15 0.14-2.096 2.016-4.015 3.868l-2.613 2.52-0.465 0.45 5.872 4.502c0.0793 0.0331 0.1654 0.0468 0.251 0.04 0.0432-59e-4 0.0837-0.024 0.117-0.052 0.0405-0.0343 0.0753-0.0748 0.103-0.12l2e-3-1e-3 2.89-14.573c-0.0909 0.0224-0.1801 0.0511-0.267 0.086zM11.4643 17.262l-1.172-0.898-0.284 1.805zM9.2173 14.582l1.165-1.125 2.613-2.522 0.973-0.938-6.52 3.817 0.035 0.082c0.4112 0.9714 0.8179 1.9448 1.22 2.92l0.283-1.8c0.0259-0.1669 0.1073-0.3192 0.231-0.434z" fill-rule="evenodd" />
</svg>