<svg viewBox="0 0 24 24" fill="none" width="32" height="32" xmlns="http://www.w3.org/2000/svg" xmlns:xlink="http://www.w3.org/1999/xlink">
    <path fill="currentColor" d="M20.9401 2.5018c-0.2713 0.0126-0.5269 0.0921-0.7541 0.1811h-31e-4c-0.2304 0.0922-1.325 0.5561-2.9877 1.2583-1.6626 0.7054-3.8204 1.6206-5.9626 2.5294-4.278 1.8144-8.4834 3.6002-8.4834 3.6002l0.0505-0.0191c0 0-0.2903 0.0953-0.5932 0.305-0.1545 0.1017-0.3249 0.2416-0.4732 0.4608-0.1483 0.2193-0.2682 0.5561-0.224 0.9025 0.0725 0.5878 0.4511 0.9405 0.7224 1.1343 0.2745 0.197 0.5364 0.2892 0.5364 0.2892h63e-4l3.9436 1.3377c0.1767 0.572 1.202 3.9656 1.4481 4.7473 0.1452 0.4671 0.2871 0.7594 0.4637 0.9818 0.0852 0.1144 0.1862 0.2098 0.3061 0.286 0.0473 0.0286 0.0977 0.0509 0.1483 0.0699 0.0157 95e-4 0.0315 0.0126 0.0504 0.0159l-0.041-95e-4c0.0126 32e-4 0.022 0.0127 0.0315 0.0158 0.0316 95e-4 0.0537 0.0127 0.0947 0.0191 0.6246 0.1907 1.1263-0.2001 1.1263-0.2001l0.0284-0.0223 1.7845-1.6366c0.3147-0.2886 0.7895-0.3088 1.1272-0.0478l3.3191 2.5646 0.0883 0.0381c0.814 0.359 1.6374 0.1589 2.0727-0.1938 0.4385-0.3559 0.6089-0.8103 0.6089-0.8103l0.0284-0.0731 3.016-15.5603c0.0852-0.3845 0.1073-0.7436 0.0127-1.0931-0.0947-0.3495-0.3376-0.6769-0.631-0.8516-0.2966-0.1782-0.5899-0.2321-0.8612-0.2194zM20.858 4.17c-31e-4 0.0508 64e-4 0.0444-0.0157 0.143v95e-4l-2.9876 15.3983c-0.0127 0.0223-0.0347 0.0699-0.0947 0.1176-0.0631 0.0509-0.1136 0.0827-0.3754-0.0223l-3.5622-2.7507c-0.7009-0.5413-1.6861-0.4991-2.339 0.1002l-1.7556 1.6115 0.6057-3.8957 4.9495-4.7476c0.4881-0.4683-0.0973-1.2505-0.6781-0.9057-2.953 1.7527-6.5776 3.9946-6.5776 3.9946l-32e-4-0.0158-4.7133-1.5983 0-32e-4c-32e-4 0-95e-4-31e-4-0.0127-31e-4 32e-4 0 0.0252-95e-4 0.0252-95e-4l0.0253-0.0127 0.0252-95e-4c0 0 4.2086-1.7858 8.4866-3.6002 2.1421-0.9088 4.3-1.8239 5.9595-2.5294 1.6594-0.7022 2.8867-1.217 2.956-1.2456C20.8422 4.17 20.8106 4.17 20.858 4.17z" />
</svg>