<svg viewBox="0 0 24 24" fill="none" width="32" height="32" xmlns="http://www.w3.org/2000/svg" xmlns:xlink="http://www.w3.org/1999/xlink">
    <path fill="currentColor" d="M12 2C6.48 2 2 6.48 2 12s4.48 10 10 10 10-4.48 10-10S17.52 2 12 2zM16.64 8.8c-0.15 1.58-0.8 5.42-1.13 7.19-0.14 0.75-0.42 1-0.68 1.03-0.58 0.05-1.02-0.38-1.58-0.75-0.88-0.58-1.38-0.94-2.23-1.5-0.99-0.65-0.35-1.01 0.22-1.59 0.15-0.15 2.71-2.48 2.76-2.69 69e-4-0.0318 6e-3-0.0648-27e-4-0.0962S13.9724 10.3337 13.95 10.31c-0.06-0.05-0.14-0.03-0.21-0.02-0.09 0.02-1.49 0.95-4.22 2.79-0.4 0.27-0.76 0.41-1.08 0.4-0.36-0.01-1.04-0.2-1.55-0.37-0.63-0.2-1.12-0.31-1.08-0.66 0.02-0.18 0.27-0.36 0.74-0.55 2.92-1.27 4.86-2.11 5.83-2.51 2.78-1.16 3.35-1.36 3.73-1.36 0.08 0 0.27 0.02 0.39 0.12 0.1 0.08 0.13 0.19 0.14 0.27-0.01 0.06 0.01 0.24 0 0.38z" />
</svg>