<?xml version="1.0" encoding="UTF-8" standalone="no"?>
<svg
   viewBox="0 0 24 24"
   fill="none"
   width="32"
   height="32"
   version="1.1"
   id="svg1"
   sodipodi:docname="users.svg"
   inkscape:version="1.4.3 (0d15f75, 2025-12-25)"
   xmlns:inkscape="http://www.inkscape.org/namespaces/inkscape"
   xmlns:sodipodi="http://sodipodi.sourceforge.net/DTD/sodipodi-0.dtd"
   xmlns="http://www.w3.org/2000/svg"
   xmlns:svg="http://www.w3.org/2000/svg">
  <defs
     id="defs1" />
  <sodipodi:namedview
     id="namedview1"
     pagecolor="#ffffff"
     bordercolor="#000000"
     borderopacity="0.25"
     inkscape:showpageshadow="2"
     inkscape:pageopacity="0.0"
     inkscape:pagecheckerboard="0"
     inkscape:deskcolor="#d1d1d1"
     inkscape:zoom="4.566948"
     inkscape:cx="8.4301375"
     inkscape:cy="25.61886"
     inkscape:window-width="1083"
     inkscape:window-height="585"
     inkscape:window-x="0"
     inkscape:window-y="157"
     inkscape:window-maximized="0"
     inkscape:current-layer="svg1" />
  <path
     style="baseline-shift:baseline;display:inline;overflow:visible;vector-effect:none;fill:currentColor;stroke-linecap:round;stroke-linejoin:round;enable-background:accumulate;stop-color:#000000;stop-opacity:1;opacity:1"
     d="M 8,3 C 5.8026932,3 4,4.8026932 4,7 4,9.1973068 5.8026932,11 8,11 10.197307,11 12,9.1973068 12,7 12,4.8026932 10.197307,3 8,3 Z M 8,5 C 9.1164932,5 10,5.8835068 10,7 10,8.1164932 9.1164932,9 8,9 6.8835068,9 6,8.1164932 6,7 6,5.8835068 6.8835068,5 8,5 Z m 8,1 c -1.645007,0 -3,1.3549932 -3,3 0,1.645007 1.354993,3 3,3 1.645007,0 3,-1.354993 3,-3 0,-1.6450068 -1.354993,-3 -3,-3 z m 0,2 c 0.564193,0 1,0.4358068 1,1 0,0.5641932 -0.435807,1 -1,1 -0.564193,0 -1,-0.4358068 -1,-1 0,-0.5641932 0.435807,-1 1,-1 z m -8,4 c -3.3018505,0 -6,2.69815 -6,6 v 2 a 1.0001,1.0001 0 0 0 1,1 h 10 8 a 1.0001,1.0001 0 0 0 1,-1 v -1 c 0,-3.452171 -2.742596,-6 -6,-6 -1.299846,0 -2.43364,0.538577 -3.414062,1.277344 C 11.483786,12.922174 9.8738436,12 8,12 Z m 0,2 c 2.22095,0 4,1.77905 4,4 v 1 H 4 v -1 c 0,-2.22095 1.7790505,-4 4,-4 z m 8,1 c 2.265396,0 4,1.561171 4,4 H 14 V 18 C 14,17.281061 13.822108,16.610778 13.587891,15.970703 14.268954,15.395491 15.075579,15 16,15 Z"
     id="path1" />
</svg>
