<svg viewBox="0 0 24 24" fill="none" width="32" height="32" xmlns="http://www.w3.org/2000/svg" xmlns:xlink="http://www.w3.org/1999/xlink">
    <path fill="currentColor" clip-rule="evenodd" d="M12 4c0.855 0 1.732 0.022 2.582 0.058l1.004 0.048 0.961 0.057 0.9 0.061 0.822 0.064c0.8922 0.0679 1.7318 0.4484 2.371 1.0746 0.6391 0.6262 1.0368 1.4578 1.123 2.3484l0.04 0.425 0.075 0.91C21.948 9.989 22 11.017 22 12s-0.052 2.011-0.122 2.954l-0.075 0.91-0.04 0.425c-0.0862 0.8908-0.4841 1.7225-1.1234 2.3487-0.6394 0.6262-1.4792 1.0066-2.3716 1.0743l-0.82 0.063-0.9 0.062-0.962 0.057-1.004 0.048C13.7218 19.9793 12.861 19.9986 12 20c-0.861-14e-4-1.7218-0.0207-2.582-0.058l-1.004-0.048-0.961-0.057-0.9-0.062-0.822-0.063c-0.8922-0.0679-1.7318-0.4484-2.371-1.0746-0.6391-0.6262-1.0368-1.4578-1.123-2.3484l-0.04-0.425-0.075-0.91C2.0458 13.9711 2.0051 12.9858 2 12c0-0.983 0.052-2.011 0.122-2.954l0.075-0.91 0.04-0.425c0.0862-0.8904 0.4837-1.7219 1.1227-2.3481C3.9986 4.7368 4.838 4.3561 5.73 4.288l0.821-0.064 0.9-0.061 0.962-0.057 1.004-0.048C10.2775 4.0207 11.1387 4.0014 12 4zM10 9.575v4.85c0 0.462 0.5 0.75 0.9 0.52l4.2-2.425c0.0914-0.0526 0.1673-0.1284 0.2201-0.2197S15.4007 12.1055 15.4007 12s-0.0278-0.209-0.0806-0.3003S15.1914 11.5326 15.1 11.48l-4.2-2.424c-0.0912-0.0527-0.1947-0.0804-0.3001-0.0804-0.1054 0-0.2088 0.0278-0.3001 0.0805-0.0912 0.0527-0.1669 0.1285-0.2196 0.2198C10.0276 9.3671 9.9999 9.4706 10 9.576z" fill-rule="evenodd" />
</svg>