<svg viewBox="0 0 24 24" fill="currentColor" width="32" height="32" xmlns="http://www.w3.org/2000/svg" xmlns:xlink="http://www.w3.org/1999/xlink">
    <path d="M12.3665 20c-0.5754 0-0.8095-38e-4-1.276-0.0114l-0.4057-65e-4c-4.27-0.0755-5.6124-0.142-6.5308-0.3235-0.7306-0.1418-1.3674-0.4629-1.8419-0.9285-0.3765-0.3616-0.6632-0.8794-0.877-1.584-0.1787-0.5719-0.2418-1.0665-0.3239-2.0292l-14e-4-0.0191c-0.1467-2.5342-0.1464-4.334 1e-3-6.2118 6e-4-92e-4 16e-4-0.0179 26e-4-0.0267 0.0123-0.1046 0.024-0.2115 0.0358-0.3196 0.1214-1.108 0.2726-2.4869 1.2736-3.377 0.5204-0.4587 1.1274-0.753 1.8036-0.8743C5.3147 4.0902 9.0228 4 12.0076 4c2.9841 0 6.6926 0.0903 7.7834 0.2887 0.8499 0.1531 1.6474 0.6112 2.1335 1.2254 0.0125 0.0157 0.0242 0.0319 0.0353 0.0486 0.8274 1.2485 0.9178 2.7089 0.9904 3.8824 74e-4 0.1196 0.0147 0.2367 0.0226 0.3507 0.0358 0.5965 0.0362 3.8054 4e-4 4.4011-0.1248 1.8307-0.2297 2.6247-0.5704 3.4324-0.2106 0.5096-0.4157 0.8204-0.7569 1.1473-0.5249 0.4931-1.1828 0.8168-1.9019 0.9352-0.0226 37e-4-0.0453 64e-4-0.0682 8e-3C17.1563 19.9015 15.2453 20 12.3665 20zM12.0076 5.4177c-3.9786 0-6.7911 0.133-7.5129 0.2644-0.4112 0.0738-0.7662 0.2463-1.085 0.5273-0.5912 0.5257-0.7001 1.5192-0.8054 2.4801l-26e-4 0.024C2.5909 8.8117 2.5802 8.9089 2.569 9.0046c-0.1412 1.8081-0.1408 3.5464 11e-4 6.0037 0.0821 0.96 0.137 1.3157 0.2672 1.7324 0.1395 0.4593 0.3161 0.8012 0.5105 0.9878 0.2721 0.2669 0.6513 0.454 1.0962 0.5403 0.7965 0.1574 2.2017 0.2237 6.2645 0.2956 0.7779 0.012 1.4615 0.0178 2.0899 0.0178 2.47 0 4.2032-0.0921 6.7267-0.2733l0.0108-14e-4c0.4115-0.0748 0.7872-0.2629 1.0863-0.544 0.1706-0.1636 0.2722-0.2983 0.4241-0.666 0.2489-0.5902 0.3449-1.2048 0.4664-2.9886 0.0321-0.5331 0.0318-3.6911-3e-4-4.2246-77e-4-0.1111-0.0151-0.2315-0.0228-0.3545-0.0649-1.0486-0.1384-2.2372-0.7406-3.1699l-34e-4-52e-4-4e-3-47e-4c-0.2715-0.3253-0.7387-0.5811-1.2193-0.6676-0.7055-0.1283-3.579-0.2647-7.5147-0.2647z" />
    <path d="M15.8308 12.5243c0.372-0.186 0.3718-0.7166 4e-4-0.9038-2.1388-1.0778-3.9622-2.1025-6.0654-3.1469C9.4164 8.3001 9 8.5462 9 8.9269v6.2202c0 0.3846 0.4224 0.6309 0.7722 0.4495 1.9983-1.0365 4.6775-2.3816 6.0586-3.0723z" />
</svg>