<svg width="114" height="158" viewBox="0 0 114 158" fill="none" xmlns="http://www.w3.org/2000/svg">
<path d="M100.208 148.167V132.75C100.208 111.464 82.9526 94.2085 61.6667 94.2085C40.3807 94.2085 23.125 111.464 23.125 132.75V148.167H100.208ZM100.208 148.167H161.875V140.458C161.875 117.753 144.619 101.917 123.333 101.917C112.439 101.917 102.6 106.738 95.5905 114.49M84.7917 47.9585C84.7917 60.7301 74.4383 71.0835 61.6667 71.0835C48.8951 71.0835 38.5417 60.7301 38.5417 47.9585C38.5417 35.1869 48.8951 24.8335 61.6667 24.8335C74.4383 24.8335 84.7917 35.1869 84.7917 47.9585ZM138.75 63.3752C138.75 71.8896 131.848 78.7918 123.333 78.7918C114.819 78.7918 107.917 71.8896 107.917 63.3752C107.917 54.8608 114.819 47.9585 123.333 47.9585C131.848 47.9585 138.75 54.8608 138.75 63.3752Z" stroke="#F5F5F5" stroke-width="8" stroke-linecap="round" stroke-linejoin="round"/>
</svg>
