<svg width="25" height="25" viewBox="0 0 25 25" fill="none" xmlns="http://www.w3.org/2000/svg">
<path d="M13.0987 20.1515V18.1363C13.0987 15.354 10.8432 13.0985 8.06083 13.0985C5.27848 13.0985 3.02295 15.354 3.02295 18.1363V20.1515H13.0987ZM13.0987 20.1515H21.1593V19.1439C21.1593 16.1761 18.9038 14.106 16.1214 14.106C14.6974 14.106 13.4114 14.7363 12.4951 15.7495M11.0836 7.053C11.0836 8.72241 9.73023 10.0757 8.06083 10.0757C6.39142 10.0757 5.0381 8.72241 5.0381 7.053C5.0381 5.38359 6.39142 4.03027 8.06083 4.03027C9.73023 4.03027 11.0836 5.38359 11.0836 7.053ZM18.1366 9.06815C18.1366 10.1811 17.2344 11.0833 16.1214 11.0833C15.0085 11.0833 14.1063 10.1811 14.1063 9.06815C14.1063 7.95521 15.0085 7.053 16.1214 7.053C17.2344 7.053 18.1366 7.95521 18.1366 9.06815Z" stroke="white" stroke-width="2" stroke-linecap="round" stroke-linejoin="round"/>
</svg>
