<svg width="94" height="145" viewBox="0 0 94 145" fill="none" xmlns="http://www.w3.org/2000/svg">
<path d="M4 138.75C1.79086 138.75 0 140.541 0 142.75C0 144.959 1.79086 146.75 4 146.75V142.75V138.75ZM142.75 146.75C144.959 146.75 146.75 144.959 146.75 142.75C146.75 140.541 144.959 138.75 142.75 138.75V142.75V146.75ZM34.8333 115.625C32.6242 115.625 30.8333 117.416 30.8333 119.625C30.8333 121.834 32.6242 123.625 34.8333 123.625V119.625V115.625ZM88.7917 123.625C91.0008 123.625 92.7917 121.834 92.7917 119.625C92.7917 117.416 91.0008 115.625 88.7917 115.625V119.625V123.625ZM50.25 92.5C48.0409 92.5 46.25 94.2909 46.25 96.5C46.25 98.7091 48.0409 100.5 50.25 100.5V96.5V92.5ZM73.375 100.5C75.5841 100.5 77.375 98.7091 77.375 96.5C77.375 94.2909 75.5841 92.5 73.375 92.5V96.5V100.5ZM42.5417 19.4167V15.4167C40.3325 15.4167 38.5417 17.2075 38.5417 19.4167H42.5417ZM81.0833 19.4167H85.0833C85.0833 17.2075 83.2925 15.4167 81.0833 15.4167V19.4167ZM81.0833 73.375V77.375C83.2925 77.375 85.0833 75.5841 85.0833 73.375H81.0833ZM42.5417 73.375H38.5417C38.5417 75.5841 40.3325 77.375 42.5417 77.375V73.375ZM50.25 19.4167V23.4167C52.0855 23.4167 53.6854 22.1675 54.1306 20.3868L50.25 19.4167ZM69.5208 4L73.4014 3.02986C72.9562 1.24919 71.3563 0 69.5208 0V4ZM54.1042 4V0C52.2687 0 50.6688 1.24919 50.2236 3.02986L54.1042 4ZM73.375 19.4167L69.4944 20.3868C69.9396 22.1675 71.5395 23.4167 73.375 23.4167V19.4167ZM81.0833 38.5417C78.8742 38.5417 77.0833 40.3325 77.0833 42.5417C77.0833 44.7508 78.8742 46.5417 81.0833 46.5417V42.5417V38.5417ZM106.827 139.324C104.935 140.464 104.326 142.922 105.466 144.814C106.606 146.707 109.064 147.316 110.956 146.176L108.892 142.75L106.827 139.324ZM4 142.75V146.75H142.75V142.75V138.75H4V142.75ZM34.8333 119.625V123.625H88.7917V119.625V115.625H34.8333V119.625ZM50.25 96.5V100.5H73.375V96.5V92.5H50.25V96.5ZM81.0833 19.4167H77.0833V73.375H81.0833H85.0833V19.4167H81.0833ZM81.0833 73.375V69.375H42.5417V73.375V77.375H81.0833V73.375ZM42.5417 73.375H46.5417V19.4167H42.5417H38.5417V73.375H42.5417ZM42.5417 19.4167V23.4167H50.25V19.4167V15.4167H42.5417V19.4167ZM50.25 19.4167L54.1306 20.3868L57.9847 4.97014L54.1042 4L50.2236 3.02986L46.3694 18.4465L50.25 19.4167ZM54.1042 4V8H69.5208V4V0H54.1042V4ZM69.5208 4L65.6403 4.97014L69.4944 20.3868L73.375 19.4167L77.2556 18.4465L73.4014 3.02986L69.5208 4ZM73.375 19.4167V23.4167H81.0833V19.4167V15.4167H73.375V19.4167ZM81.0833 42.5417V46.5417C108.675 46.5417 131.042 68.9088 131.042 96.5H135.042H139.042C139.042 64.4905 113.093 38.5417 81.0833 38.5417V42.5417ZM135.042 96.5H131.042C131.042 114.668 121.346 130.576 106.827 139.324L108.892 142.75L110.956 146.176C127.777 136.041 139.042 117.588 139.042 96.5H135.042Z" fill="#F5F5F5"/>
</svg>
