<svg width="25" height="25" viewBox="0 0 25 25" fill="none" xmlns="http://www.w3.org/2000/svg">
<path d="M3.02295 20.1593C2.47066 20.1593 2.02295 20.607 2.02295 21.1593C2.02295 21.7116 2.47066 22.1593 3.02295 22.1593V21.1593V20.1593ZM21.1593 22.1593C21.7116 22.1593 22.1593 21.7116 22.1593 21.1593C22.1593 20.607 21.7116 20.1593 21.1593 20.1593V21.1593V22.1593ZM7.05325 17.1366C6.50097 17.1366 6.05325 17.5843 6.05325 18.1366C6.05325 18.6889 6.50097 19.1366 7.05325 19.1366V18.1366V17.1366ZM14.1063 19.1366C14.6586 19.1366 15.1063 18.6889 15.1063 18.1366C15.1063 17.5843 14.6586 17.1366 14.1063 17.1366V18.1366V19.1366ZM9.0684 14.1139C8.51612 14.1139 8.0684 14.5616 8.0684 15.1139C8.0684 15.6661 8.51612 16.1139 9.0684 16.1139V15.1139V14.1139ZM12.0911 16.1139C12.6434 16.1139 13.0911 15.6661 13.0911 15.1139C13.0911 14.5616 12.6434 14.1139 12.0911 14.1139V15.1139V16.1139ZM8.06083 5.0381V4.0381C7.50854 4.0381 7.06083 4.48582 7.06083 5.0381H8.06083ZM13.0987 5.0381H14.0987C14.0987 4.48582 13.651 4.0381 13.0987 4.0381V5.0381ZM13.0987 12.0911V13.0911C13.651 13.0911 14.0987 12.6434 14.0987 12.0911H13.0987ZM8.06083 12.0911H7.06083C7.06083 12.6434 7.50854 13.0911 8.06083 13.0911V12.0911ZM9.0684 5.0381V6.0381C9.52727 6.0381 9.92725 5.7258 10.0385 5.28064L9.0684 5.0381ZM11.5873 3.02295L12.5575 2.78041C12.4462 2.33525 12.0462 2.02295 11.5873 2.02295V3.02295ZM9.57219 3.02295V2.02295C9.11332 2.02295 8.71334 2.33525 8.60205 2.78041L9.57219 3.02295ZM12.0911 5.0381L11.121 5.28064C11.2323 5.7258 11.6323 6.0381 12.0911 6.0381V5.0381ZM13.0987 7.06083C12.5464 7.06083 12.0987 7.50854 12.0987 8.06083C12.0987 8.61311 12.5464 9.06083 13.0987 9.06083V8.06083V7.06083ZM16.2175 20.3028C15.7445 20.5878 15.5921 21.2024 15.8771 21.6754C16.1621 22.1485 16.7767 22.3009 17.2497 22.0158L16.7336 21.1593L16.2175 20.3028ZM3.02295 21.1593V22.1593H21.1593V21.1593V20.1593H3.02295V21.1593ZM7.05325 18.1366V19.1366H14.1063V18.1366V17.1366H7.05325V18.1366ZM9.0684 15.1139V16.1139H12.0911V15.1139V14.1139H9.0684V15.1139ZM13.0987 5.0381H12.0987V12.0911H13.0987H14.0987V5.0381H13.0987ZM13.0987 12.0911V11.0911H8.06083V12.0911V13.0911H13.0987V12.0911ZM8.06083 12.0911H9.06083V5.0381H8.06083H7.06083V12.0911H8.06083ZM8.06083 5.0381V6.0381H9.0684V5.0381V4.0381H8.06083V5.0381ZM9.0684 5.0381L10.0385 5.28064L10.5423 3.26548L9.57219 3.02295L8.60205 2.78041L8.09826 4.79557L9.0684 5.0381ZM9.57219 3.02295V4.02295H11.5873V3.02295V2.02295H9.57219V3.02295ZM11.5873 3.02295L10.6172 3.26548L11.121 5.28064L12.0911 5.0381L13.0613 4.79557L12.5575 2.78041L11.5873 3.02295ZM12.0911 5.0381V6.0381H13.0987V5.0381V4.0381H12.0911V5.0381ZM13.0987 8.06083V9.06083C16.4417 9.06083 19.1517 11.7709 19.1517 15.1139H20.1517H21.1517C21.1517 10.6663 17.5463 7.06083 13.0987 7.06083V8.06083ZM20.1517 15.1139H19.1517C19.1517 17.3145 17.978 19.242 16.2175 20.3028L16.7336 21.1593L17.2497 22.0158C19.5858 20.6082 21.1517 18.0444 21.1517 15.1139H20.1517Z" fill="white"/>
</svg>
