<svg width="102" height="115" viewBox="0 0 102 115" fill="none" xmlns="http://www.w3.org/2000/svg">
<path d="M158.167 25.7963H142.75M142.75 25.7963H135.042C119.625 10.3934 96.5 -5.03866 81.0833 10.3796M142.75 25.7963V87.4629M81.0833 10.3796L57.9549 33.5172C57.3432 34.1291 57.0374 34.4351 56.7912 34.7059C51.4447 40.5881 51.447 49.571 56.7965 55.4505C57.0427 55.7211 57.3492 56.0275 57.9608 56.6386C58.5724 57.2499 58.8784 57.5557 59.1492 57.8018C65.0302 63.1461 74.0099 63.1448 79.8893 57.7986C80.1599 57.5524 80.4658 57.2466 81.0773 56.6351L88.7887 48.9237M81.0833 10.3796C65.6667 -5.03866 42.5417 10.3939 27.125 25.7968H19.4167M4 25.7968H19.4167M19.4167 25.7968V87.4629M142.75 87.4629V110.588H158.167M142.75 87.4629H120.948M104.208 64.3379L115.771 75.9004C116.384 76.514 116.692 76.8215 116.939 77.0932C122.284 82.9733 122.284 91.9526 116.939 97.8326C116.692 98.1043 116.384 98.4118 115.771 99.0254C115.157 99.639 114.85 99.9465 114.578 100.193C108.698 105.538 99.7187 105.538 93.8386 100.193C93.5669 99.9465 93.2595 99.639 92.6458 99.0254L88.7917 95.1712C84.5887 99.3742 82.4872 101.476 80.2202 102.599C75.907 104.736 70.843 104.736 66.5298 102.599C64.2628 101.476 62.1613 99.3742 57.9583 95.1712C52.6461 102.254 41.7372 101.271 37.7777 93.3516L34.8333 87.4629H19.4167M19.4167 87.4629V110.588H4" stroke="#F5F5F5" stroke-width="8" stroke-linecap="round" stroke-linejoin="round"/>
</svg>
