<svg width="25" height="25" viewBox="0 0 25 25" fill="none" xmlns="http://www.w3.org/2000/svg">
<path d="M12.0911 14.1063V17.129M12.0911 14.1063C9.65385 14.1063 7.62081 12.3755 7.15403 10.076M12.0911 14.1063C14.5284 14.1063 16.5615 12.3755 17.0282 10.076M17.129 5.0381H19.8998C20.1339 5.0381 20.251 5.0381 20.3483 5.05746C20.748 5.13697 21.0604 5.44941 21.14 5.84911C21.1593 5.94644 21.1593 6.06348 21.1593 6.29757C21.1593 6.99983 21.1593 7.35096 21.1012 7.64296C20.8627 8.84204 19.9254 9.77939 18.7263 10.0179C18.4343 10.076 18.0832 10.076 17.3809 10.076H17.129H17.0282M7.05325 5.0381H4.28242C4.04833 5.0381 3.93129 5.0381 3.83396 5.05746C3.43426 5.13697 3.12181 5.44941 3.04231 5.84911C3.02295 5.94644 3.02295 6.06348 3.02295 6.29757C3.02295 6.99983 3.02295 7.35096 3.08103 7.64296C3.31954 8.84204 4.25688 9.77939 5.45597 10.0179C5.74796 10.076 6.0991 10.076 6.80136 10.076H7.05325H7.15403M12.0911 17.129C13.0281 17.129 13.4967 17.129 13.881 17.232C14.9242 17.5115 15.7389 18.3263 16.0184 19.3694C16.1214 19.7538 16.1214 20.2223 16.1214 21.1593H8.06083C8.06083 20.2223 8.06083 19.7538 8.16382 19.3694C8.44333 18.3263 9.2581 17.5115 10.3012 17.232C10.6856 17.129 11.1541 17.129 12.0911 17.129ZM7.15403 10.076C7.08794 9.75042 7.05325 9.41346 7.05325 9.0684V4.60628C7.05325 4.06913 7.05325 3.80055 7.15303 3.59335C7.25207 3.3877 7.418 3.22177 7.62366 3.12273C7.83086 3.02295 8.09943 3.02295 8.63659 3.02295H15.5457C16.0828 3.02295 16.3514 3.02295 16.5586 3.12273C16.7643 3.22177 16.9302 3.3877 17.0292 3.59335C17.129 3.80055 17.129 4.06913 17.129 4.60628V9.0684C17.129 9.41346 17.0943 9.75042 17.0282 10.076" stroke="white" stroke-width="1.72727" stroke-linecap="round" stroke-linejoin="round"/>
</svg>
