<svg width="300" height="40" viewBox="0 0 300 40" fill="none" xmlns="http://www.w3.org/2000/svg">
<path d="M66.6851 16.6892V4.10333H62.7141V0.205H74.4752V4.10333H70.4653V16.6892H66.6873H66.6851ZM87.3779 16.6892H83.6572L82.7272 13.4975H78.3098L77.36 16.6892H73.6011L78.5609 0.205H82.416L87.3758 16.6892H87.3779ZM81.8757 9.7125L80.5008 4.44667L79.1047 9.7125H81.8757ZM97.685 16.2558C98.5896 15.8142 99.3046 15.1967 99.8307 14.4033C100.357 13.61 100.62 12.6758 100.62 11.6058C100.62 10.725 100.471 9.94083 100.174 9.25667C99.876 8.5725 99.417 8.0025 98.7925 7.54583C98.1681 7.08917 97.3696 6.77083 96.3957 6.58917L94.3122 6.18917C93.7252 6.07583 93.3165 5.8975 93.0873 5.65917C92.9788 5.55289 92.8917 5.41959 92.8321 5.26887C92.7726 5.11815 92.7421 4.95375 92.7429 4.7875C92.7429 4.44667 92.8815 4.14167 93.1602 3.85333C93.4388 3.565 93.9247 3.41917 94.6234 3.41917C95.0563 3.41917 95.4247 3.48167 95.7324 3.60667C96.04 3.73167 96.2833 3.925 96.4629 4.1825C96.6426 4.44 96.7543 4.77917 96.7932 5.1975H100.533C100.513 4.17833 100.276 3.27833 99.8166 2.49583C99.3576 1.71333 98.7006 1.10167 97.8441 0.66C96.9877 0.218333 95.9516 0 94.7295 0C93.6121 0 92.6043 0.206667 91.7061 0.621667C90.8079 1.03667 90.0979 1.63667 89.5752 2.42333C89.0526 3.21 88.7895 4.15833 88.7895 5.26667C88.7895 6.2025 88.9458 7.00333 89.2598 7.6725C89.5738 8.34167 90.0257 8.88333 90.6198 9.2975C91.2139 9.71167 91.9268 10.0058 92.7606 10.18L95.1532 10.6817C95.6114 10.78 96.0096 10.9183 96.3441 11.0983C96.6786 11.2783 96.8477 11.6058 96.8477 12.085C96.8477 12.4508 96.7437 12.7367 96.5322 12.945C96.3208 13.1533 96.0626 13.3033 95.7536 13.39C95.452 13.4759 95.143 13.5198 94.8328 13.5208C94.3222 13.5208 93.8844 13.4467 93.5209 13.2992C93.1573 13.1517 92.8667 12.9392 92.6531 12.6667C92.4372 12.3875 92.2898 12.0444 92.2266 11.6742H88.3899C88.4479 12.5625 88.6672 13.3375 89.0484 13.995C89.4296 14.6525 89.9161 15.1975 90.5074 15.6317C91.0986 16.0658 91.7464 16.3875 92.4551 16.6017C93.1637 16.8158 93.878 16.92 94.6008 16.92C95.75 16.92 96.7769 16.7 97.6822 16.2592L97.685 16.2558ZM106.636 16.6892V10.0783H111.47V16.6892H115.238V0.205H111.47V6.4525H106.636V0.205H102.867V16.6892H106.636ZM121.961 16.6892V12.38L123.704 9.73583L126.824 16.69H130.872L126.397 6.49833L130.243 0.205H126.009L121.959 6.86167V0.205H118.045V16.6892H121.959H121.961ZM143.109 16.6892V12.995H136.512V10.1917H142.004V6.61083H136.541V3.87583H143.07L143.089 0.205H132.743V16.6892H143.109ZM149.25 16.6892V6.86333L155.111 16.6892H158.511V0.205H154.743V9.39167L149.279 0.205H145.482V16.6892H149.25ZM168.053 16.6892V4.10333H172.063V0.205H160.303V4.10333H164.274V16.6892H168.052H168.053ZM190.446 0.230833V9.795C190.446 11.1683 190.254 12.3958 189.876 13.4433C189.483 14.5308 188.827 15.3908 187.924 15.9992C187.036 16.5958 185.835 16.8992 184.356 16.8992C182.876 16.8992 181.677 16.5958 180.788 15.9992C179.884 15.3908 179.228 14.5308 178.836 13.4433C178.458 12.3958 178.266 11.1683 178.266 9.795V0.230833H182.674V9.96583C182.674 10.89 182.842 11.5358 183.171 11.8883C183.518 12.2575 183.905 12.4375 184.356 12.4375C184.646 12.4404 184.932 12.3582 185.188 12.1983C185.435 12.0467 185.631 11.8042 185.791 11.4558C185.955 11.0958 186.037 10.5958 186.037 9.96667V0.233333H190.444L190.446 0.230833ZM189.623 1.19917H186.861V9.96583C186.861 10.7575 186.745 11.4133 186.516 11.9133C186.28 12.4308 185.962 12.815 185.571 13.0558C185.197 13.2878 184.781 13.408 184.358 13.4058C183.702 13.4058 183.118 13.1367 182.621 12.6067C182.112 12.0633 181.853 11.1767 181.853 9.9675V1.20083H179.09V9.7975C179.09 11.04 179.259 12.1408 179.595 13.0667C179.919 13.9683 180.444 14.6525 181.199 15.16C181.961 15.6717 183.023 15.9308 184.358 15.9308C185.692 15.9308 186.755 15.6717 187.516 15.16C188.271 14.6525 188.796 13.9683 189.121 13.0667C189.455 12.1383 189.625 11.04 189.625 9.7975V1.20083L189.623 1.19917ZM205.504 0.230833V16.6833H201.683L196.803 8.50167V16.6833H192.441V0.230833H196.632L201.14 7.81V0.230833H205.502H205.504ZM204.681 1.19917H201.964V10.8808L196.206 1.19917H193.265V15.715H195.982V5.43667L202.112 15.715H204.681V1.19917ZM212.106 0.230833V16.6833H207.743V0.230833H212.106ZM211.283 1.19917H208.565V15.715H211.283V1.19917ZM227.152 0.230833L222.434 16.6825H217.949L213.231 0.230833H217.439L220.192 9.805L222.936 0.230833H227.152ZM226.006 1.19917H223.525L220.192 12.8283L216.848 1.19917H214.377L218.54 15.715H221.845L226.008 1.19917H226.006ZM238.836 12.2467V16.6833H228.276V0.230833H238.82L238.797 4.64667H232.667V6.24917H237.799V10.5792H232.64V12.2458H238.838L238.836 12.2467ZM238.014 13.215H231.816V9.6125H236.975V7.2175H231.843V3.67833H237.98L237.992 1.19833H229.098V15.7142H238.014V13.2117V13.2133V13.215ZM252.655 16.6833H248.114L246.203 11.3508H245.031V16.6833H240.668V0.230833H247.049C248.254 0.230833 249.245 0.473333 249.998 0.9525C250.766 1.44083 251.334 2.1175 251.687 2.95833C252.028 3.775 252.202 4.69917 252.202 5.705C252.202 6.55167 252.102 7.2925 251.908 7.90417C251.71 8.52167 251.434 9.0575 251.087 9.4975C250.827 9.82596 250.539 10.1212 250.227 10.3783L252.656 16.6825L252.655 16.6833ZM248.657 15.715H251.376L249.179 10.0133L249.49 9.79C249.861 9.5225 250.196 9.2025 250.481 8.84083C250.755 8.4925 250.976 8.06417 251.135 7.56417C251.294 7.06417 251.376 6.435 251.376 5.70583C251.376 4.85 251.231 4.07083 250.945 3.3875C250.665 2.72083 250.227 2.20333 249.602 1.80583C248.971 1.40417 248.111 1.2 247.046 1.2H241.488V15.7158H244.205V10.3833H246.745L248.656 15.7158L248.657 15.715ZM248.028 4.02917C248.435 4.5025 248.641 5.0825 248.641 5.74917C248.641 6.36333 248.458 6.93333 248.094 7.4425C247.714 7.97667 247.226 8.2475 246.647 8.2475H244.206V3.31917H246.647C247.157 3.31917 247.622 3.56 248.028 4.03167V4.02917ZM247.819 5.7475C247.821 5.55471 247.79 5.36338 247.727 5.18564C247.663 5.0079 247.569 4.84763 247.45 4.715C247.201 4.42333 246.938 4.28333 246.647 4.28333H245.029V7.27833H246.647C246.804 7.28269 246.96 7.24349 247.102 7.16388C247.244 7.08427 247.368 6.96649 247.464 6.82C247.703 6.48667 247.819 6.13583 247.819 5.75V5.7475ZM265.927 11.425C265.927 12.5367 265.649 13.5217 265.098 14.3517C264.562 15.1608 263.828 15.7975 262.915 16.24C262.021 16.6758 260.993 16.8975 259.865 16.8975C259.151 16.897 258.44 16.7914 257.748 16.5833C257.046 16.3708 256.391 16.045 255.803 15.615C255.201 15.1733 254.701 14.6108 254.311 13.9408C253.914 13.255 253.682 12.4425 253.622 11.5258L253.588 11.005H257.968L258.037 11.3875C258.089 11.6683 258.187 11.8992 258.339 12.0942C258.49 12.2892 258.709 12.4467 258.984 12.5583C259.282 12.6792 259.652 12.74 260.083 12.74C260.337 12.74 260.594 12.7042 260.851 12.63C261.078 12.5658 261.267 12.46 261.415 12.3133C261.486 12.2433 261.564 12.1317 261.564 11.8742C261.564 11.5725 261.471 11.4633 261.333 11.3892C261.049 11.2392 260.705 11.1183 260.309 11.0333L258.064 10.5617C257.236 10.3875 256.513 10.0883 255.914 9.67167C255.295 9.24 254.813 8.66583 254.485 7.96333C254.158 7.26583 253.992 6.42667 253.992 5.47083C253.992 4.3225 254.269 3.325 254.817 2.50083C255.351 1.69583 256.083 1.07667 256.991 0.655833C257.88 0.246667 258.885 0.0383333 259.981 0.0383333C261.178 0.0383333 262.219 0.261667 263.071 0.699167C263.942 1.14833 264.623 1.785 265.096 2.59167C265.569 3.39833 265.823 4.34583 265.842 5.39333L265.852 5.8875H261.55L261.51 5.45583C261.482 5.16 261.41 4.92583 261.293 4.75833C261.17 4.58417 261.006 4.455 260.789 4.36583C260.546 4.2675 260.24 4.21583 259.883 4.21583C259.163 4.21583 258.883 4.39417 258.781 4.50167C258.529 4.765 258.528 4.95417 258.528 5.01667C258.528 5.20083 258.585 5.34083 258.714 5.475C258.801 5.56583 259.04 5.73667 259.658 5.8575L261.615 6.2325C262.578 6.4125 263.388 6.73833 264.018 7.19833C264.665 7.67167 265.151 8.27583 265.463 8.99583C265.771 9.70417 265.927 10.5208 265.927 11.4225V11.425ZM265.105 11.425C265.105 10.6783 264.979 10.01 264.731 9.44C264.488 8.87917 264.102 8.40417 263.583 8.025C263.047 7.6325 262.341 7.3525 261.484 7.19333L259.527 6.81833C258.889 6.695 258.446 6.49417 258.168 6.205C258.023 6.05931 257.907 5.87817 257.827 5.67413C257.747 5.47009 257.706 5.24803 257.706 5.02333C257.706 4.565 257.885 4.14833 258.235 3.7825C258.577 3.42667 259.116 3.25417 259.883 3.25417C260.333 3.25417 260.729 3.3225 261.059 3.45667C261.418 3.60417 261.711 3.83583 261.929 4.14833C262.085 4.37657 262.198 4.64128 262.262 4.925H264.992C264.919 4.2675 264.729 3.67083 264.422 3.14667C264.038 2.48917 263.472 1.96667 262.743 1.59167C261.994 1.2075 261.066 1.01167 259.982 1.01167C258.989 1.01167 258.084 1.1975 257.292 1.5625C256.523 1.91833 255.908 2.43583 255.465 3.1025C255.027 3.76 254.815 4.53667 254.815 5.47583C254.815 6.2675 254.947 6.95 255.204 7.50083C255.462 8.05167 255.84 8.50083 256.333 8.84417C256.845 9.2025 257.476 9.46 258.206 9.61333L260.454 10.085C260.917 10.185 261.327 10.3275 261.671 10.5108C262.133 10.7575 262.385 11.2417 262.385 11.8783C262.385 12.3617 262.233 12.7683 261.945 13.0567C261.683 13.3101 261.374 13.4878 261.043 13.5758C260.723 13.6667 260.399 13.7125 260.082 13.7125C259.559 13.7125 259.098 13.6333 258.716 13.4775C258.31 13.3125 257.978 13.0683 257.732 12.7517C257.556 12.5258 257.421 12.2667 257.327 11.9767H254.499C254.578 12.4853 254.744 12.9695 254.989 13.3992C255.312 13.9583 255.733 14.4275 256.236 14.7975C256.767 15.1828 257.345 15.4703 257.949 15.65C258.577 15.8392 259.221 15.9342 259.863 15.9342C260.884 15.9342 261.805 15.7375 262.6 15.3508C263.379 14.9717 264 14.4358 264.448 13.7592C264.889 13.0942 265.103 12.3325 265.103 11.4275L265.105 11.425ZM272.004 0.230833V16.6833H267.642V0.230833H272.004ZM271.181 1.19917H268.464V15.715H271.181V1.19917ZM285.16 0.230833V4.86083H281.392V16.6833H277.02V4.86083H273.289V0.230833H285.16ZM284.336 1.19917H274.111V3.8925H277.843V15.715H280.57V3.8925H284.336V1.19917ZM300 0.230833L294.992 9.88833V16.6833H290.619V9.88833L285.671 0.230833H290.464L292.822 5.21833L295.156 0.230833H300ZM298.535 1.19917H295.644L292.828 7.21917L289.982 1.19917H287.131L291.445 9.6175V15.715H294.172V9.6175L298.538 1.19917H298.535ZM76.1528 31.555C76.1528 33.2292 75.8741 34.715 75.3267 35.9708C74.773 37.24 73.9745 38.2383 72.954 38.9392C71.9398 39.6342 70.734 39.9883 69.3705 39.9883C68.0069 39.9883 66.782 39.6358 65.7643 38.9408C64.7424 38.2417 63.9404 37.245 63.3831 35.98C62.8307 34.7275 62.5528 33.2408 62.5528 31.5583C62.5528 29.8758 62.8378 28.3725 63.3979 27.1083C63.9391 25.8645 64.7707 24.8289 65.7947 24.1233C66.8153 23.4208 68.0197 23.0642 69.3698 23.0642C70.7199 23.0642 71.9137 23.42 72.9278 24.125C73.9462 24.8317 74.7482 25.8358 75.3098 27.11C75.8671 28.3733 76.15 29.87 76.15 31.56L76.1528 31.555ZM75.3267 31.555C75.3267 30.0225 75.0757 28.6775 74.5799 27.5542C74.0891 26.4425 73.3932 25.5692 72.5099 24.9575C71.6265 24.3458 70.5664 24.0308 69.3705 24.0308C68.1746 24.0308 67.1038 24.3433 66.2106 24.9575C65.3205 25.5714 64.5978 26.4724 64.1278 27.5542C63.6285 28.6775 63.376 30.0242 63.376 31.555C63.376 33.0858 63.6243 34.4175 64.1151 35.5308C64.5995 36.63 65.2933 37.495 66.1788 38.0992C67.0692 38.7075 68.1427 39.0158 69.3712 39.0158C70.5996 39.0158 71.652 38.7075 72.5396 38.0992C73.4215 37.495 74.1124 36.6292 74.5933 35.5267C75.0813 34.4108 75.3267 33.0742 75.3267 31.555ZM71.9526 28.6867C72.1845 29.4292 72.3019 30.4158 72.3019 31.6192C72.3019 32.8225 72.1845 33.7467 71.9511 34.4608C71.705 35.2167 71.3493 35.7775 70.8967 36.1225C70.4504 36.4633 69.937 36.6358 69.3719 36.6358C68.8068 36.6358 68.2934 36.4633 67.8471 36.1225C67.3945 35.7775 67.0373 35.2192 66.7877 34.4633C66.5479 33.7375 66.4319 32.8075 66.4319 31.6183C66.4319 30.4292 66.5508 29.4267 66.7863 28.6842C67.0345 27.9017 67.3881 27.32 67.8372 26.9567C68.2863 26.5933 68.8012 26.4092 69.3712 26.4092C69.9412 26.4092 70.4561 26.5925 70.9059 26.9567C71.3557 27.3208 71.7079 27.905 71.9526 28.6867ZM71.4759 31.6192C71.4759 30.53 71.3762 29.6567 71.1767 29.0217C70.9914 28.4308 70.7418 28.0042 70.4363 27.7567C70.1237 27.5025 69.7743 27.38 69.3705 27.38C68.9901 27.3714 68.617 27.5031 68.3033 27.7567C67.9956 28.005 67.7446 28.4333 67.5579 29.0242C67.357 29.6567 67.2552 30.5325 67.2552 31.6192C67.2552 32.7058 67.3563 33.5075 67.5564 34.1117C67.7417 34.6742 67.9914 35.0758 68.2955 35.3092C68.6165 35.5513 68.9915 35.6752 69.3726 35.665C69.7828 35.665 70.1343 35.5475 70.4476 35.3092C70.7517 35.0783 70.9978 34.6742 71.1817 34.1142C71.3783 33.51 71.478 32.6708 71.478 31.6192H71.4759ZM82.0977 27.6583V29.4792H87.199V33.7792H82.0977V39.7708H77.7235V23.2733H88.2244L88.2004 27.6583H82.0977ZM81.2731 30.4508V26.6892H87.3807L87.3934 24.2458H78.5482V38.8017H81.2731V32.81H86.375V30.4517L81.2731 30.4508ZM102.326 39.775V27.185H106.338V23.285H94.5732V27.185H98.5464V39.775H102.326ZM118.499 39.775V36.0808H111.9V33.275H117.394V29.695H111.929V26.9575H118.459L118.479 23.2867H108.129V39.7767H118.498L118.499 39.775ZM129.789 39.495C130.533 39.1558 131.128 38.69 131.577 38.0917C132.027 37.4946 132.373 36.7996 132.595 36.0458C132.828 35.2581 132.992 34.4445 133.085 33.6175H129.15C129.085 34.1094 128.95 34.585 128.752 35.025C128.559 35.455 128.305 35.7983 127.991 36.0575C127.677 36.3167 127.305 36.4458 126.872 36.4458C126.162 36.4458 125.576 36.0592 125.118 35.2883C124.659 34.5175 124.43 33.2142 124.43 31.3825C124.43 30.1742 124.535 29.2208 124.746 28.5258C124.956 27.8308 125.245 27.3383 125.613 27.0483C125.982 26.7583 126.402 26.615 126.872 26.615C127.305 26.615 127.679 26.715 127.991 26.9183C128.305 27.1204 128.568 27.4172 128.752 27.7783C128.946 28.1517 129.079 28.5925 129.15 29.1008H133.085C132.981 27.915 132.657 26.8675 132.115 25.96C131.573 25.0525 130.861 24.34 129.984 23.8267C129.107 23.3133 128.11 23.0575 127 23.0575C125.636 23.0575 124.453 23.3983 123.448 24.0783C122.443 24.7583 121.666 25.7167 121.117 26.9517C120.567 28.1867 120.293 29.6417 120.293 31.3125C120.293 32.9833 120.57 34.4758 121.127 35.7833C121.683 37.0908 122.463 38.1208 123.468 38.8733C124.473 39.6258 125.649 40 127 40C128.116 40 129.047 39.8317 129.791 39.4925L129.789 39.495ZM139.179 39.775V33.1617H144.015V39.775H147.785V23.285H144.015V29.5342H139.179V23.285H135.409V39.775H139.179ZM163.512 23.2925V39.775H159.686L154.797 31.5767V39.775H150.426V23.2925H154.627L159.142 30.885V23.2925H163.512ZM162.688 24.2625H159.966V33.9633L154.197 24.2625H151.249V38.805H153.971V28.5075L160.114 38.805H162.688V24.2625ZM178.67 31.5667C178.67 33.2392 178.393 34.7225 177.846 35.9783C177.293 37.2475 176.496 38.2442 175.476 38.9425C174.462 39.6375 173.258 39.99 171.896 39.99C170.535 39.99 169.309 39.6375 168.294 38.9425C167.271 38.2433 166.471 37.2492 165.914 35.9833C165.364 34.7333 165.084 33.2458 165.084 31.5658C165.084 29.8858 165.367 28.3817 165.929 27.12C166.494 25.845 167.3 24.8408 168.324 24.1367C169.348 23.4325 170.546 23.0775 171.896 23.0775C173.247 23.0775 174.437 23.4333 175.451 24.1367C176.465 24.84 177.27 25.845 177.831 27.12C178.389 28.3817 178.672 29.8783 178.672 31.5658L178.67 31.5667ZM177.846 31.5667C177.846 30.0358 177.595 28.6908 177.099 27.5675C176.608 26.4575 175.913 25.5842 175.031 24.9725C174.145 24.3592 173.089 24.0483 171.894 24.0483C170.7 24.0483 169.63 24.3592 168.738 24.975C167.848 25.588 167.126 26.4885 166.657 27.57C166.159 28.6917 165.906 30.0367 165.906 31.5667C165.906 33.0967 166.154 34.4267 166.644 35.5392C167.126 36.6375 167.82 37.5017 168.705 38.1058C169.594 38.7142 170.668 39.0225 171.894 39.0225C173.121 39.0225 174.174 38.7142 175.061 38.1075C175.942 37.5029 176.655 36.6098 177.114 35.5367C177.602 34.4208 177.848 33.0858 177.848 31.5683L177.846 31.5667ZM174.475 28.7008C174.707 29.4433 174.824 30.4283 174.824 31.6317C174.824 32.835 174.711 33.7475 174.474 34.4708C174.227 35.2267 173.873 35.7858 173.419 36.13C172.974 36.4708 172.459 36.6433 171.896 36.6433C171.334 36.6433 170.819 36.4708 170.373 36.1317C169.921 35.7867 169.565 35.2283 169.316 34.4742C169.076 33.7483 168.96 32.8183 168.96 31.6325C168.96 30.4467 169.079 29.4425 169.314 28.7C169.562 27.9175 169.916 27.3358 170.365 26.9725C170.814 26.6092 171.33 26.425 171.898 26.425C172.466 26.425 172.981 26.6083 173.43 26.9708C173.88 27.3333 174.232 27.9158 174.476 28.7L174.475 28.7008ZM173.998 31.6317C173.998 30.5442 173.899 29.6708 173.701 29.0367C173.516 28.4458 173.266 28.0208 172.96 27.7708C172.647 27.5182 172.274 27.3871 171.894 27.3958C171.515 27.3873 171.143 27.5183 170.829 27.7708C170.522 28.0192 170.271 28.445 170.084 29.0383C169.882 29.6708 169.781 30.5442 169.781 31.6317C169.781 32.7192 169.882 33.52 170.08 34.1225C170.266 34.685 170.515 35.0867 170.819 35.3175C171.133 35.5583 171.486 35.6733 171.894 35.6733C172.303 35.6733 172.655 35.5558 172.97 35.3175C173.273 35.0867 173.519 34.685 173.703 34.1242C173.899 33.5217 173.998 32.6833 173.998 31.6317ZM189.881 35.3733V39.7758H180.24V23.2925H184.61V35.3725L189.881 35.3733ZM189.057 36.3433H183.786V24.2625H181.064V38.805H189.057V36.3433ZM203.936 31.5675C203.936 33.24 203.659 34.7233 203.111 35.9792C202.558 37.2483 201.759 38.2467 200.742 38.9433C199.725 39.64 198.524 39.9908 197.162 39.9908C195.801 39.9908 194.575 39.6383 193.56 38.9433C192.537 38.2442 191.737 37.25 191.18 35.9842C190.629 34.7342 190.349 33.2467 190.349 31.5667C190.349 29.8867 190.632 28.3825 191.195 27.1208C191.76 25.8458 192.566 24.8417 193.59 24.1375C194.609 23.435 195.811 23.0783 197.162 23.0783C198.513 23.0783 199.702 23.4342 200.716 24.1375C201.73 24.8408 202.536 25.8458 203.097 27.1208C203.655 28.3825 203.937 29.8792 203.937 31.5667L203.936 31.5675ZM203.111 31.5675C203.111 30.0367 202.86 28.6917 202.365 27.5683C201.874 26.4583 201.178 25.585 200.296 24.9733C199.413 24.3617 198.355 24.0492 197.159 24.0492C195.963 24.0492 194.893 24.36 194.004 24.9758C193.114 25.5888 192.391 26.4893 191.922 27.5708C191.424 28.6925 191.172 30.0375 191.172 31.5675C191.172 33.0975 191.419 34.4275 191.909 35.54C192.392 36.6383 193.086 37.5025 193.971 38.1067C194.857 38.7108 195.934 39.0233 197.16 39.0233C198.386 39.0233 199.439 38.715 200.327 38.1083C201.208 37.5038 201.921 36.6106 202.379 35.5375C202.867 34.4217 203.113 33.0867 203.113 31.5692L203.111 31.5675ZM199.739 28.7017C199.974 29.4533 200.089 30.4125 200.089 31.6325C200.089 32.8525 199.974 33.7483 199.738 34.4717C199.491 35.2275 199.135 35.7867 198.683 36.1308C198.236 36.4717 197.724 36.6442 197.159 36.6442C196.594 36.6442 196.081 36.4717 195.636 36.1308C195.183 35.7858 194.828 35.2292 194.578 34.4733C194.338 33.7475 194.222 32.82 194.222 31.6317C194.222 30.4433 194.338 29.4517 194.577 28.6992C194.825 27.9167 195.178 27.335 195.627 26.9733C196.077 26.6117 196.592 26.4258 197.16 26.4258C197.728 26.4258 198.244 26.6092 198.693 26.9717C199.142 27.3342 199.495 27.9175 199.739 28.7017ZM199.264 31.6325C199.264 30.5433 199.164 29.67 198.966 29.0375C198.782 28.4467 198.532 28.0217 198.226 27.7717C197.912 27.519 197.54 27.3879 197.16 27.3967C196.781 27.3881 196.408 27.5192 196.095 27.7717C195.787 28.02 195.536 28.4458 195.35 29.0392C195.148 29.6717 195.047 30.545 195.047 31.6325C195.047 32.72 195.148 33.5208 195.346 34.1233C195.531 34.6858 195.781 35.0875 196.085 35.3183C196.399 35.5592 196.751 35.6742 197.16 35.6742C197.569 35.6742 197.92 35.5567 198.236 35.3183C198.538 35.0875 198.785 34.6858 198.968 34.125C199.164 33.5225 199.264 32.6842 199.264 31.6325ZM218.018 30.6133V39.775H214.87V38.6817L214.757 38.7933C214.417 39.1267 213.983 39.4125 213.467 39.6417C212.952 39.8708 212.293 39.9883 211.516 39.9883C210.193 39.9883 209.018 39.6267 208.02 38.9142C207.022 38.2017 206.238 37.1983 205.687 35.9308C205.143 34.6767 204.868 33.2142 204.868 31.585C204.868 29.9558 205.162 28.4042 205.742 27.1333C206.326 25.8525 207.146 24.8467 208.176 24.1383C209.206 23.43 210.402 23.0742 211.734 23.0742C212.667 23.0742 213.52 23.2425 214.269 23.5783C215.018 23.9142 215.673 24.3775 216.211 24.9558C216.748 25.5342 217.17 26.2042 217.46 26.9392C217.75 27.6742 217.904 28.4508 217.917 29.2367L217.925 29.7308H213.462L213.392 29.35C213.322 28.9842 213.211 28.655 213.058 28.3667C212.915 28.0958 212.73 27.8892 212.497 27.73C212.27 27.5767 211.983 27.4992 211.643 27.4992C211.289 27.4984 210.941 27.6167 210.642 27.84C210.338 28.06 210.084 28.45 209.884 29.0008C209.673 29.5842 209.565 30.41 209.565 31.4558C209.565 32.35 209.643 33.0717 209.794 33.6017C209.94 34.1092 210.124 34.4958 210.34 34.7475C210.556 34.9992 210.785 35.1658 211.029 35.2492C211.529 35.4217 211.99 35.4367 212.355 35.2892C212.529 35.2192 212.682 35.1283 212.814 35.0167C212.938 34.913 213.05 34.7886 213.144 34.6475C213.21 34.5475 213.26 34.445 213.295 34.3442H211.156V30.5617L218.015 30.6108H218.018V30.6133ZM217.194 31.5775L211.984 31.5392V33.3767H214.436L214.105 34.57C214.042 34.7992 213.939 35.0242 213.799 35.2408C213.656 35.4561 213.487 35.646 213.298 35.805C213.092 35.9779 212.866 36.1138 212.626 36.2083C212.097 36.4225 211.467 36.4125 210.798 36.1817C210.406 36.0396 210.051 35.7844 209.764 35.4392C209.454 35.0808 209.203 34.5675 209.015 33.9142C208.834 33.2833 208.743 32.4575 208.743 31.4575C208.743 30.2642 208.868 29.3375 209.128 28.6233C209.394 27.885 209.759 27.345 210.21 27.0167C210.655 26.6942 211.136 26.5317 211.643 26.5317C212.15 26.5317 212.553 26.6525 212.906 26.8917C213.259 27.1308 213.542 27.4525 213.757 27.8542C213.908 28.1379 214.027 28.4435 214.112 28.7633H217.062C217.01 28.2825 216.893 27.8083 216.711 27.3483C216.468 26.7308 216.112 26.1667 215.653 25.6742C215.194 25.1817 214.628 24.78 213.976 24.4883C213.324 24.1967 212.568 24.0492 211.734 24.0492C210.549 24.0492 209.491 24.3617 208.592 24.9808C207.692 25.6 206.978 26.4775 206.468 27.5967C205.953 28.7233 205.692 30.0683 205.692 31.5875C205.692 33.1067 205.937 34.3758 206.421 35.4917C206.899 36.5958 207.582 37.4692 208.448 38.0867C209.314 38.7042 210.346 39.0183 211.516 39.0183C212.192 39.0183 212.751 38.9217 213.176 38.7342C213.601 38.5467 213.96 38.3117 214.229 38.0483L214.986 37.2358L215.692 36.3792V38.8042H217.192V31.5758H217.194V31.5775ZM231.83 23.2933L226.813 32.9692V39.7758H222.432V32.9675L217.474 23.2933H222.274L224.638 28.2908L226.977 23.2933H231.829H231.83ZM230.361 24.2633H227.463L224.641 30.295L221.788 24.2633H218.931L223.253 32.6983V38.8075H225.985V32.6983L230.359 24.265L230.361 24.2633ZM0 0.200833V10.0925H8.95208V39.7708H17.9183V10.0925H24.3576L27.352 0.200833H0ZM34.0162 10.0925H27.5769L30.5713 0.200833H53.1085L50.1141 10.0925H43.6748V39.7708H34.0162V10.0925Z" fill="white"/>
</svg>
