<svg width="25" height="25" viewBox="0 0 25 25" fill="none" xmlns="http://www.w3.org/2000/svg">
<path d="M12.0911 18.1366C17.0993 18.1366 21.1593 14.0766 21.1593 9.0684C21.1593 7.2143 20.6029 5.49016 19.6479 4.05387M12.0911 18.1366C8.94708 18.1366 6.17673 16.5365 4.54998 14.1063M12.0911 18.1366V21.1593M7.05325 21.1593H17.129M21.1593 3.02295L19.6479 4.03052M4.53431 14.1063L3.02295 15.1139M17.129 9.0684C17.129 11.8507 14.8735 14.1063 12.0911 14.1063C9.30879 14.1063 7.05325 11.8507 7.05325 9.0684C7.05325 6.28606 9.30879 4.03052 12.0911 4.03052C14.8735 4.03052 17.129 6.28606 17.129 9.0684Z" stroke="white" stroke-width="2" stroke-linecap="round" stroke-linejoin="round"/>
</svg>
