<svg width="25" height="25" viewBox="0 0 25 25" fill="none" xmlns="http://www.w3.org/2000/svg">
<path d="M22.1667 8.06056H20.1515M20.1515 8.06056H19.1439C17.1288 6.0472 14.106 4.03005 12.0909 6.0454M20.1515 8.06056V16.1212M12.0909 6.0454L9.06772 9.06978C8.98776 9.14977 8.94778 9.18976 8.91561 9.22516C8.21675 9.99404 8.21705 11.1682 8.91629 11.9367C8.94848 11.9721 8.98855 12.0122 9.06848 12.092C9.14844 12.1719 9.18844 12.2119 9.22383 12.2441C9.99254 12.9427 11.1663 12.9425 11.9348 12.2437C11.9702 12.2115 12.0102 12.1715 12.0901 12.0916L13.0981 11.0836M12.0909 6.0454C10.0757 4.03005 7.05302 6.04727 5.03786 8.06062H4.03029M2.01514 8.06062H4.03029M4.03029 8.06062V16.1212M20.1515 16.1212V19.1439H22.1667M20.1515 16.1212H17.3016M15.1136 13.0984L16.625 14.6098C16.7052 14.69 16.7454 14.7302 16.7777 14.7657C17.4763 15.5343 17.4763 16.708 16.7777 17.4766C16.7454 17.5121 16.7052 17.5523 16.625 17.6325C16.5448 17.7127 16.5046 17.7529 16.4691 17.7852C15.7005 18.4838 14.5268 18.4838 13.7582 17.7852C13.7227 17.7529 13.6825 17.7127 13.6023 17.6325L13.0985 17.1287C12.5491 17.6781 12.2744 17.9528 11.9781 18.0996C11.4143 18.379 10.7524 18.379 10.1886 18.0996C9.89224 17.9528 9.61755 17.6781 9.06817 17.1287C8.37379 18.0546 6.94786 17.926 6.4303 16.8909L6.04544 16.1212H4.03029M4.03029 16.1212V19.1439H2.01514" stroke="white" stroke-width="2" stroke-linecap="round" stroke-linejoin="round"/>
</svg>
