<svg width="115" height="135" viewBox="0 0 115 135" fill="none" xmlns="http://www.w3.org/2000/svg">
<g clip-path="url(#clip0_150_82611)">
<path d="M57.4015 78.6616C77.9769 78.6616 94.6565 62.1609 94.6565 41.8062C94.6565 21.4515 77.9769 4.95068 57.4015 4.95068C36.8261 4.95068 20.1465 21.4515 20.1465 41.8062C20.1465 62.1609 36.8261 78.6616 57.4015 78.6616Z" fill="white"/>
<path d="M0.0144538 0H115.265C115.303 0.379041 115.348 0.625536 115.35 0.872029C115.384 16.474 115.416 32.0745 115.444 47.6733C115.444 54.5705 115.477 61.4699 115.289 68.3694C114.95 80.7871 111.255 92.1577 104.203 102.481C97.8708 111.748 89.5706 118.938 79.9449 124.695C73.2918 128.705 66.1608 131.881 58.7165 134.151C58.0104 134.341 57.2641 134.327 56.5656 134.111C45.5389 130.623 35.3773 125.507 26.3132 118.352C17.6817 111.548 10.6839 103.427 6.09786 93.4001C3.16428 86.9705 1.20622 80.2849 0.557447 73.2645C0.235413 69.8089 0.0520638 66.3253 0.0450118 62.8535C-0.00200057 42.5155 -0.0121865 22.1759 0.0144538 1.83475V0ZM58.2322 9.92485C38.5058 10.3295 27.1195 24.9401 27.0089 40.2296C26.8868 56.9401 40.7389 70.718 57.5082 70.7575C74.7548 70.7971 88.4659 57.2865 88.4846 40.2319C88.5059 23.8867 74.5879 9.94346 58.2322 9.92485Z" fill="#0096DB"/>
<path d="M54.1739 38.6649C53.9199 38.2741 53.638 37.9019 53.3302 37.5509C51.0311 35.2976 47.6016 35.4023 45.4931 37.8346C45.28 38.1112 45.0003 38.3308 44.6801 38.4739C44.3594 38.6166 44.0081 38.6784 43.6573 38.6533C41.5417 38.6091 39.4261 38.6533 37.3107 38.6415C37.2541 38.6415 37.1978 38.5858 37.0427 38.5021C37.3174 35.976 38.3323 33.5846 39.9622 31.6211C40.0592 31.5496 40.1711 31.5002 40.2899 31.4771C40.4088 31.4537 40.5312 31.4568 40.6485 31.4863C41.2786 31.6329 41.8825 31.9025 42.529 32.0211C42.9169 32.0956 43.3399 31.9793 43.7466 31.949C43.5437 31.6371 43.3073 31.3479 43.0415 31.0863C42.5522 30.7373 42.0454 30.4127 41.5229 30.1143C42.428 28.7539 43.7796 28.1028 45.0983 27.433C47.4489 26.2356 49.9875 25.9239 52.599 26.0937C52.7283 26.0937 52.9564 26.0937 52.9727 26.1355C53.3208 27.2099 53.678 28.2818 53.9625 29.3701C54.1505 30.0679 53.5134 30.2073 53.0574 30.4119C52.7544 30.5398 52.4395 30.6379 52.1171 30.7049C51.4331 30.863 51.2192 31.2676 51.4449 32.0445C52.1265 31.9932 52.8247 31.9608 53.5205 31.8886C54.2162 31.8165 54.6182 32.0745 54.7288 32.8026C54.8767 33.7885 55.0554 34.7744 55.2834 35.7442C55.5278 36.8464 55.0272 37.658 54.1739 38.6649Z" fill="#0096DB"/>
<path d="M54.3555 18.0402C57.7921 17.4007 60.9231 18.0146 64.1011 18.8495C63.7345 20.2262 63.3841 21.5609 63.0246 22.8911C62.6366 24.3188 62.6295 24.328 63.9413 24.9676C68.6072 27.2373 71.5056 30.9602 72.9747 35.8227C73.2379 36.6923 73.2732 37.6294 73.4259 38.6247H68.4897C68.2804 37.7503 68.0947 36.8435 67.8503 35.9552C66.266 30.1928 62.5308 26.3978 56.8964 24.4328C55.9398 24.1003 55.439 23.6746 55.2793 22.6957C55.0347 21.1748 54.6869 19.6727 54.3555 18.0402Z" fill="#0096DB"/>
<path d="M54.7131 54.341C54.4286 53.0293 54.1795 51.8691 53.9303 50.711C53.9184 50.4865 53.8684 50.2655 53.7821 50.0576C53.5759 49.7849 53.3471 49.53 53.0981 49.2949C52.9172 49.5786 52.5904 49.8576 52.5858 50.1436C52.5599 51.3318 52.5858 52.5248 52.6845 53.7107C52.7385 54.4316 52.5904 54.7037 51.7677 54.7525C47.6423 54.999 44.328 53.255 41.3215 50.7203C41.1429 50.5668 41.1523 50.1878 41.0865 49.911C41.0746 49.8599 41.1335 49.7947 41.1523 49.7344C42.0619 46.9437 42.0596 46.9624 45.0096 47.0182C46.5657 47.0461 48.1312 47.0973 49.6826 46.9927C51.8312 46.8462 53.5753 45.9183 54.5015 43.8976C54.9339 42.9487 55.7002 43.3138 56.3373 43.3325C56.5441 43.3325 56.8379 43.8789 56.9178 44.2162C57.2258 45.4973 57.4938 46.7927 57.696 48.0949C57.7358 48.3529 57.4443 48.6785 57.2705 48.9506C57.0964 49.2227 56.8521 49.5226 56.6405 49.8063C56.9445 49.9288 57.239 50.0725 57.5219 50.2366C57.7922 50.4156 58.1684 50.6179 58.2413 50.8807C58.8124 52.8899 58.7114 53.0806 56.6993 53.7852C56.0952 53.999 55.4746 54.134 54.7131 54.341Z" fill="#0096DB"/>
<path d="M73.0772 43.304C72.5505 46.9362 70.4491 49.5454 68.1949 52.2498C69.1515 53.5009 70.1436 54.7938 71.2341 56.203L69.2479 57.6867C68.7754 57.03 68.2679 56.3988 67.727 55.7961C67.471 55.538 67.0219 55.4682 66.6552 55.3147C66.6248 55.6728 66.5165 56.0472 66.5847 56.3868C66.6945 56.9224 66.8666 57.4437 67.0972 57.9401C67.3863 58.568 67.184 58.882 66.5659 59.1028C65.6469 59.4191 64.7489 59.8004 63.8299 60.119C63.3245 60.2958 63.0118 60.1865 62.8896 59.5493C62.5676 57.8425 62.1327 56.1588 61.8153 54.4521C61.7957 54.2638 61.8193 54.0739 61.8839 53.8961C61.9487 53.718 62.0529 53.557 62.189 53.4241C65.2285 51.0987 67.1018 48.0571 67.9505 44.3899C68.1479 43.5412 68.5052 43.2272 69.3913 43.2831C70.5831 43.3622 71.7796 43.304 73.0772 43.304Z" fill="#0096DB"/>
<path d="M65.1357 23.2523L67.035 19.8711C68.3373 20.7594 69.5172 21.5383 70.6573 22.3686C70.8077 22.4779 70.8572 22.8754 70.7913 23.0895C70.6519 23.4854 70.4591 23.8609 70.2178 24.2056C69.9052 24.6707 69.9521 25.0312 70.5867 25.3218L72.559 23.8196C73.0479 24.3731 73.5628 24.9033 74.0045 25.4892C74.1339 25.6589 74.0776 25.987 74.068 26.2404C74.0475 26.5117 74.0128 26.7817 73.9647 27.0496C74.2313 27.0539 74.4967 27.0797 74.7591 27.1264C75.0248 27.1962 75.4173 27.2704 75.5043 27.4565C76.635 29.875 77.8268 32.2726 78.774 34.7629C79.2137 35.9257 79.1525 37.2628 79.3405 38.6837C77.9584 38.6837 76.8253 38.7092 75.697 38.6581C75.5208 38.6581 75.2669 38.3279 75.2057 38.1092C75.0037 37.3652 74.8578 36.6047 74.7193 35.8443C73.7132 30.361 70.4223 26.5171 65.7868 23.6359C65.6224 23.5336 65.4554 23.4405 65.1357 23.2523Z" fill="#0096DB"/>
<path d="M57.1234 31.3543L58.0894 30.3684C57.7816 30.1661 57.4594 29.98 57.1704 29.7523C56.9636 29.6259 56.7999 29.4414 56.7002 29.2221C56.5216 28.5454 56.4135 27.8499 56.2161 26.8384C57.248 27.2897 58.1366 27.557 58.891 28.0314C61.9028 29.8844 64.1852 32.6991 65.3599 36.0099C66.2696 38.5028 66.1003 38.6864 63.4701 38.6864C63.0141 38.6864 62.5556 38.6563 62.1043 38.6864C61.0865 38.7677 60.1604 38.7236 59.7537 37.5493C59.7119 37.444 59.6486 37.3481 59.5677 37.2681C59.4869 37.1883 59.3901 37.1254 59.2835 37.0843C58.1082 36.719 57.9227 35.7262 57.7344 34.7401C57.5066 33.5566 57.302 32.3543 57.1234 31.3543Z" fill="#0096DB"/>
<path d="M41.8181 54.5176C42.1242 54.5974 42.4217 54.7066 42.7067 54.8433C47.6289 57.7981 52.7368 58.054 58.0185 55.9065C58.3476 55.7715 58.6813 55.6576 59.2385 55.4412C59.6239 57.2722 59.9931 59.031 60.3714 60.8294C55.2871 61.6577 50.6493 60.7642 46.4158 58.1539C44.7587 57.1325 43.3271 55.7507 41.7922 54.534L41.8181 54.5176Z" fill="#0096DB"/>
<path d="M37.8596 29.7559C38.4379 28.7583 38.9174 27.6864 39.6109 26.7771C42.3329 23.203 45.7789 20.5474 50.0665 19.0149C50.5765 18.8335 51.1149 18.7312 51.7518 18.5498C52.0809 20.2357 52.3935 21.8262 52.6921 23.3797C50.9809 23.5378 49.3071 23.5378 47.704 23.868C44.103 24.6074 41.0283 26.326 38.6566 29.1724C38.4365 29.4047 38.201 29.6223 37.9514 29.8234L37.8596 29.7559Z" fill="#0096DB"/>
<path d="M78.9218 43.3065C78.1858 47.5816 76.272 51.1004 73.3567 54.238L70.8904 52.1914C71.0029 51.9222 71.1397 51.6638 71.2996 51.4192C72.9535 49.3742 74.0973 46.9727 74.638 44.4091C74.8309 43.5252 75.2424 43.1786 76.1756 43.2762C77.0362 43.3786 77.9155 43.3065 78.9218 43.3065Z" fill="#0096DB"/>
<path d="M61.1186 51.0785C60.5661 48.349 60.0723 45.9011 59.5598 43.3623H65.6326C64.9272 46.3618 63.6178 48.9214 61.1186 51.0785Z" fill="#0096DB"/>
<path d="M52.9745 43.2814C52.563 44.4449 51.8388 45.0707 50.8585 45.3361C48.3451 46.0225 45.799 45.9363 43.1353 45.5687C43.4055 44.8707 43.6054 44.2658 43.8852 43.7072C43.9552 43.5952 44.0501 43.5001 44.1624 43.4293C44.2747 43.3584 44.4018 43.3134 44.534 43.2978C47.3059 43.2722 50.0709 43.2814 52.9745 43.2814Z" fill="#0096DB"/>
<path d="M37.199 43.2852C38.7131 43.2852 40.1426 43.2852 41.5695 43.2852C41.7601 43.2852 41.9506 43.3201 42.3243 43.3596C41.6966 44.174 42.1432 45.6305 40.8738 45.7585C37.9984 46.054 37.7092 45.7771 37.199 43.2852Z" fill="white"/>
<path d="M57.3317 41.0099C56.41 41.0099 55.8411 40.4265 55.8459 39.4852C55.8409 39.2846 55.8764 39.0848 55.9504 38.898C56.0244 38.7111 56.1353 38.5408 56.2768 38.3969C56.4182 38.253 56.5873 38.1381 56.774 38.0598C56.961 37.9813 57.1617 37.9402 57.3647 37.9395C57.7896 37.9526 58.1931 38.1279 58.4902 38.4287C58.7872 38.7294 58.9551 39.1321 58.9586 39.5525C58.9333 39.9573 58.7489 40.3361 58.4449 40.6084C58.1409 40.8805 57.7415 41.0246 57.3317 41.0099Z" fill="#0096DB"/>
<path d="M52.1662 38.7229H47.0127C48.0895 36.8953 50.8027 36.9511 52.1662 38.7229Z" fill="#0096DB"/>
<path d="M37.9588 29.8352L37.7502 30.0211L37.8627 29.7563C37.8932 29.7841 37.926 29.8098 37.9588 29.8352Z" fill="white"/>
<path d="M41.7925 54.5425L41.667 54.4424L41.8163 54.5211L41.7925 54.5425Z" fill="white"/>
<path d="M37.6267 98.4328C37.6267 97.6932 37.6267 96.9561 37.6267 96.2167C37.6267 93.293 37.6267 90.3689 37.6267 87.4452V87.1615H41.4208V91.2566L42.3256 90.2752L44.4412 87.9638C44.6574 87.7312 44.869 87.487 45.0923 87.2662C45.1546 87.203 45.2384 87.1648 45.3275 87.1592C46.6439 87.1592 47.96 87.1592 49.2764 87.1592C49.2977 87.1592 49.3188 87.1592 49.3845 87.1754L44.8198 92.1449L49.6291 98.4932H49.3941C48.0541 98.4932 46.7142 98.4932 45.3744 98.4932C45.3072 98.4961 45.2405 98.4816 45.1805 98.451C45.1209 98.4205 45.0701 98.3748 45.0337 98.3189C44.1827 97.1933 43.3286 96.0709 42.4715 94.9516C42.4268 94.8912 42.3774 94.8353 42.3022 94.7469C42.0906 94.9795 41.9049 95.2121 41.691 95.4052C41.5994 95.4896 41.5283 95.5936 41.4832 95.7093C41.438 95.8248 41.4198 95.949 41.4301 96.0725C41.4466 96.7887 41.4301 97.5027 41.4301 98.2188V98.4793H37.6691L37.6267 98.4328Z" fill="white"/>
<path d="M56.652 87.1538H60.4773V87.44C60.4773 89.5798 60.4773 91.7218 60.5055 93.8616C60.488 94.1765 60.5574 94.4901 60.7067 94.7688C60.8558 95.0475 61.079 95.2806 61.3519 95.4432C62.1465 95.9084 63.5925 95.6526 63.8135 94.4292C63.901 93.9858 63.9515 93.5362 63.9639 93.0847C63.9779 91.1963 63.9639 89.3076 63.9639 87.4167V87.1584H67.7727V87.4051C67.7727 89.3798 67.7727 91.3591 67.7727 93.3243C67.7925 94.2363 67.6154 95.1418 67.2531 95.9805C66.985 96.5706 66.5901 97.0958 66.096 97.5195C65.6019 97.9432 65.0202 98.2554 64.3917 98.4342C63.5099 98.7114 62.5824 98.8178 61.6599 98.7482C60.6145 98.7104 59.5983 98.3974 58.7163 97.8412C58.2066 97.5023 57.7704 97.0659 57.4338 96.5577C57.0971 96.0497 56.8665 95.4802 56.7555 94.8828C56.6668 94.4573 56.621 94.024 56.6191 93.5895C56.6028 91.4962 56.6191 89.4029 56.6191 87.3096C56.6191 87.2701 56.6191 87.2329 56.6191 87.1957L56.652 87.1538Z" fill="white"/>
<path d="M79.4707 87.1911V90.1123H76.1344V98.4646H72.2763V90.1264H68.9214V87.1585C68.9754 87.1585 69.0272 87.147 69.0789 87.147H79.3107C79.3507 87.147 79.3883 87.147 79.4259 87.147L79.4707 87.1911Z" fill="white"/>
<path d="M54.3863 98.4746H50.5987L50.5635 98.4351V96.1744V87.1616H54.4192C54.4192 87.2152 54.4355 87.2733 54.4355 87.3315V98.3211C54.4355 98.3583 54.4355 98.3979 54.4355 98.4351L54.3863 98.4746Z" fill="white"/>
</g>
<defs>
<clipPath id="clip0_150_82611">
<rect width="115" height="135" fill="white"/>
</clipPath>
</defs>
</svg>
