<svg width="88" height="22" viewBox="0 0 88 22" fill="none" xmlns="http://www.w3.org/2000/svg">
<g clip-path="url(#clip0_150_82147)">
<g clip-path="url(#clip1_150_82147)">
<path fill-rule="evenodd" clip-rule="evenodd" d="M0.046875 4.39746V17.5824L4.43646 21.9772V8.79243H13.2155L8.82582 4.39746H0.046875Z" fill="white"/>
<path fill-rule="evenodd" clip-rule="evenodd" d="M4.43652 13.1874H13.2155V0.00244141L17.605 4.39741V17.5823H8.82589L4.43652 13.1874Z" fill="white"/>
<path d="M85.9228 17.5817L85.7349 16.5459H85.6404C85.4525 16.7845 85.2269 16.9916 84.9634 17.1676C84.3614 17.5692 83.6466 17.7703 82.819 17.7703C81.5649 17.7703 80.5143 17.3089 79.6677 16.386C78.8212 15.4629 78.3979 14.2606 78.3979 12.7791C78.3979 11.2975 78.8212 10.0951 79.6677 9.17216C80.5143 8.24924 81.5649 7.78789 82.819 7.78789C83.5711 7.78789 84.261 7.99497 84.8884 8.40935C85.1513 8.58514 85.371 8.78616 85.5465 9.01205H85.6404V4.39746H87.9921V17.5817H85.9228ZM81.4267 14.8602C81.878 15.3562 82.4675 15.6042 83.1953 15.6042C83.9225 15.6042 84.5121 15.3562 84.9634 14.8602C85.4147 14.3642 85.6404 13.6705 85.6404 12.7789C85.6404 11.8875 85.4147 11.1936 84.9634 10.6978C84.5121 10.2018 83.9225 9.95373 83.1953 9.95373C82.4675 9.95373 81.878 10.2018 81.4267 10.6978C80.9753 11.1938 80.7497 11.8875 80.7497 12.7789C80.7497 13.6705 80.9753 14.3642 81.4267 14.8602Z" fill="white"/>
<path d="M67.6758 17.5821V7.97636H69.8385L70.0269 8.91809H70.1209C70.2715 8.72976 70.4848 8.54128 70.7606 8.35295C71.3372 7.97636 72.0024 7.78809 72.7544 7.78809C73.8455 7.78809 74.7455 8.16176 75.4543 8.90868C76.1627 9.65582 76.5168 10.632 76.5168 11.8373V17.5819H74.1656V12.0256C74.1656 11.4104 73.9745 10.9113 73.5918 10.5282C73.2095 10.1451 72.7107 9.95371 72.0963 9.95371C71.4819 9.95371 70.9831 10.1451 70.6008 10.5282C70.2181 10.9113 70.0269 11.4102 70.0269 12.0256V17.5819L67.6758 17.5821Z" fill="white"/>
<path d="M62.9726 14.7568H65.4182C65.3556 14.9954 65.233 15.2622 65.0516 15.5574C64.8697 15.8526 64.6127 16.1791 64.2801 16.5369C63.9476 16.8947 63.493 17.1899 62.9164 17.422C62.3393 17.6544 61.7001 17.7705 60.9977 17.7705C59.5805 17.7705 58.4111 17.3028 57.489 16.3672C56.5674 15.4317 56.1069 14.2358 56.1069 12.7793C56.1069 11.3228 56.5674 10.1268 57.489 9.19138C58.4111 8.25592 59.5805 7.78809 60.9977 7.78809C62.3144 7.78809 63.4271 8.24944 64.3368 9.17236C65.2454 10.0953 65.7005 11.2347 65.7005 12.5907C65.7005 12.7039 65.6817 12.93 65.6439 13.2688L65.6061 13.5327H58.4576C58.558 14.2105 58.8403 14.7568 59.3041 15.1712C59.7684 15.5856 60.3325 15.7929 60.9971 15.7929C61.4987 15.7929 61.9252 15.6831 62.2767 15.4633C62.6276 15.2437 62.8597 15.0079 62.9726 14.7568ZM58.4581 11.9317H63.3488C63.236 11.2914 62.9758 10.7704 62.5682 10.3686C62.1611 9.96668 61.6369 9.76565 60.9977 9.76565C60.3201 9.76565 59.7651 9.96333 59.3327 10.359C58.9003 10.7545 58.6087 11.2789 58.4581 11.9317Z" fill="white"/>
<path d="M46.202 9.19133C47.1235 8.25592 48.2929 7.78809 49.7101 7.78809C51.1273 7.78809 52.2966 8.25592 53.2182 9.19133C54.1403 10.1268 54.6014 11.3227 54.6014 12.7793C54.6014 14.2358 54.1403 15.4317 53.2182 16.3672C52.2966 17.3026 51.1273 17.7705 49.7101 17.7705C48.2929 17.7705 47.1235 17.3028 46.202 16.3672C45.2799 15.4317 44.8193 14.2358 44.8193 12.7793C44.8193 11.3227 45.2799 10.1268 46.202 9.19133ZM47.9042 14.8134C48.3933 15.3407 48.9953 15.6044 49.7101 15.6044C50.4249 15.6044 51.0268 15.3407 51.516 14.8134C52.0051 14.2861 52.2497 13.608 52.2497 12.7793C52.2497 11.9505 52.0051 11.2725 51.516 10.7451C51.0268 10.2178 50.4249 9.95414 49.7101 9.95414C48.9953 9.95414 48.3933 10.218 47.9042 10.7451C47.4156 11.2725 47.1705 11.9505 47.1705 12.7793C47.1705 13.608 47.4151 14.2861 47.9042 14.8134Z" fill="white"/>
<path d="M38.4233 17.5819V7.97607H40.3987L40.5867 8.82364H40.6808C40.7938 8.67294 40.9316 8.53494 41.0947 8.40926C41.4835 8.12056 41.9099 7.97607 42.3738 7.97607H44.2549V10.2363H42.5619C41.3705 10.2363 40.7748 10.8327 40.7748 12.0255V17.5819H38.4233Z" fill="white"/>
<path d="M26.3838 17.5817V4.39746H32.3094C33.551 4.39746 34.5512 4.79908 35.3097 5.60281C36.0684 6.40654 36.4479 7.47995 36.4479 8.82352C36.4479 10.1671 36.0687 11.2408 35.3097 12.0443C34.551 12.8477 33.5508 13.2496 32.3094 13.2496H28.8293V17.5815L26.3838 17.5817ZM28.8293 10.8955H32.2154C32.7548 10.8955 33.1874 10.7132 33.5133 10.3491C33.8394 9.98508 34.0024 9.47654 34.0024 8.82352C34.0024 8.17054 33.8394 7.662 33.5133 7.29795C33.1872 6.93362 32.7548 6.75162 32.2154 6.75162H28.8293V10.8955Z" fill="white"/>
</g>
</g>
<defs>
<clipPath id="clip0_150_82147">
<rect width="88" height="22" fill="white"/>
</clipPath>
<clipPath id="clip1_150_82147">
<rect width="88" height="22" fill="white"/>
</clipPath>
</defs>
</svg>
