<svg width="857" height="355" viewBox="0 0 857 355" fill="none" xmlns="http://www.w3.org/2000/svg">
<path d="M333.686 -21.5L397.686 -85.5L408.999 -74.186L333.686 1.12801L269.686 65.128L205.686 129.128L194.373 117.814L258.373 53.814L205.686 1.12801L141.686 65.128L77.6859 129.128L66.3729 117.814L141.686 42.5L205.686 -21.5L258.372 -74.186L205.686 -126.872L141.686 -62.872L130.373 -74.186L205.686 -149.5L269.686 -85.5L333.686 -149.5L344.999 -138.186L280.999 -74.186L333.686 -21.5ZM217 -10.186L269.686 42.5L322.372 -10.186L269.686 -62.872L217 -10.186Z" fill="#E54519" fill-opacity="0.18"/>
<path d="M13.6859 1.12801L2.37286 -10.186L13.6859 -21.5L66.3719 -74.186L2.37189 -138.186L13.6859 -149.5L77.6859 -85.5L141.686 -149.5L152.999 -138.186L88.9988 -74.186L141.686 -21.5L205.686 -85.5L216.999 -74.186L141.686 1.12801L77.6859 65.128L24.9998 117.814L77.6859 170.5L141.686 106.5L205.686 42.5L216.999 53.814L152.999 117.814L205.686 170.5L269.686 106.5L333.686 42.5L397.686 -21.5L450.372 -74.186L397.686 -126.872L333.686 -62.872L322.373 -74.186L397.686 -149.5L461.686 -85.5L525.686 -149.5L536.999 -138.186L461.686 -62.872L409 -10.186L461.686 42.5L525.686 -21.5L536.999 -10.186L472.999 53.814L525.686 106.5L600.999 181.814L589.686 193.128L525.686 129.128L473 181.814L525.686 234.5L600.999 309.814L589.686 321.127L525.686 257.127L461.686 193.127L450.373 181.814L461.686 170.5L514.372 117.814L461.686 65.128L397.686 1.12801L345 53.814L409 117.814L397.686 129.128L333.686 65.128L281 117.814L345 181.814L333.686 193.128L269.686 129.128L205.686 193.128L141.686 257.128L77.6859 193.128L13.6859 129.128L2.37286 117.814L13.6859 106.5L66.3719 53.814L13.6859 1.12801ZM141.686 234.5L194.372 181.814L141.686 129.128L88.9998 181.814L141.686 234.5ZM77.6859 -62.872L24.9998 -10.186L77.6859 42.5L130.372 -10.186L77.6859 -62.872Z" fill="#E54519" fill-opacity="0.18"/>
<path d="M13.6858 170.5L77.6858 234.5L141.686 298.5L205.686 234.5L269.686 170.5L333.686 234.5L386.372 181.814L322.372 117.814L333.686 106.5L397.686 170.5L450.372 117.814L386.372 53.814L397.686 42.5L461.686 106.5L472.999 117.814L461.686 129.128L409 181.814L461.686 234.5L536.999 309.814L589.686 362.501L642.373 309.814L589.686 257.128L514.373 181.814L525.686 170.5L589.686 234.5L642.372 181.814L589.686 129.128L525.686 65.128L514.373 53.814L525.686 42.5L578.372 -10.186L525.686 -62.872L461.686 1.12801L450.373 -10.186L525.686 -85.5L589.686 -149.5L600.999 -138.186L536.999 -74.186L589.686 -21.5L600.999 -10.186L589.686 1.12801L537 53.814L589.686 106.5L653.686 170.5L664.999 181.814L653.686 193.128L601 245.814L665 309.814L717.686 362.501L781.686 426.501L845.686 362.501L857 373.814L793 437.814L781.686 449.127L770.372 437.814L717.686 385.127L664.999 437.814L653.686 449.127L600.999 501.814L589.686 513.127L578.373 501.814L525.686 449.127L514.373 437.814L461.686 385.127L450.373 373.814L397.686 321.127L344.999 373.814L408.999 437.814L397.686 449.127L333.686 385.127L280.999 437.814L333.686 490.501L344.999 501.814L397.686 554.501L408.999 565.814L461.686 618.501L472.999 629.814L461.686 641.127L397.686 705.127L386.373 693.814L450.373 629.814L397.686 577.127L386.373 565.814L333.686 513.127L322.373 501.814L269.686 449.127L216.999 501.814L269.686 554.501L280.999 565.814L269.686 577.127L216.999 629.814L205.686 641.127L141.686 705.127L130.373 693.814L194.373 629.814L141.686 577.127L88.9988 629.814L77.6858 641.127L13.6858 705.127L2.3728 693.814L66.3728 629.814L77.6858 618.501L130.373 565.814L66.3728 501.814L77.6858 490.501L141.686 554.501L152.999 565.814L205.686 618.501L258.373 565.814L205.686 513.127L194.373 501.814L141.686 449.127L130.373 437.814L77.6858 385.127L66.3728 373.814L77.6858 362.501L130.373 309.814L77.6858 257.128L13.6858 321.128L2.3728 309.814L66.3728 245.814L2.3728 181.814L13.6858 170.5ZM589.686 490.501L642.373 437.814L653.686 426.501L706.373 373.814L653.686 321.127L600.999 373.814L589.686 385.127L536.999 437.814L589.686 490.501ZM525.686 426.501L578.373 373.814L525.686 321.127L472.999 373.814L525.686 426.501ZM461.686 362.501L514.373 309.814L461.686 257.128L408.999 309.814L461.686 362.501ZM205.686 490.501L258.373 437.814L269.686 426.501L322.373 373.814L333.686 362.501L386.373 309.814L450.373 245.814L397.686 193.128L333.686 257.128L269.686 321.128L258.373 309.814L322.373 245.814L269.686 193.128L205.686 257.128L152.999 309.814L205.686 362.501L216.999 373.814L205.686 385.127L152.999 437.814L205.686 490.501ZM88.9988 373.814L141.686 426.501L194.373 373.814L141.686 321.127L88.9988 373.814Z" fill="#E54519" fill-opacity="0.18"/>
<path d="M205.686 321.127L194.373 309.814L269.686 234.5L280.999 245.814L216.999 309.814L269.686 362.501L322.373 309.814L397.686 234.5L408.999 245.814L344.999 309.814L333.686 321.127L280.999 373.814L269.686 385.127L205.686 449.127L194.373 437.814L258.373 373.814L205.686 321.127Z" fill="#E54519" fill-opacity="0.18"/>
<path d="M2.37262 373.814L13.6856 362.501L77.6856 298.501L88.9986 309.814L24.9986 373.814L77.6856 426.501L88.9986 437.814L141.686 490.501L152.999 501.814L216.999 565.814L205.686 577.127L141.686 513.127L130.373 501.814L77.6856 449.127L24.9986 501.814L77.6856 554.501L88.9986 565.814L77.6856 577.127L13.6856 641.127L2.37262 629.814L66.3726 565.814L13.6856 513.127L2.37262 501.814L13.6856 490.501L66.3726 437.814L13.6856 385.127L2.37262 373.814Z" fill="#E54519" fill-opacity="0.18"/>
</svg>
