<svg width="135" height="105" viewBox="0 0 135 105" fill="none" xmlns="http://www.w3.org/2000/svg">
<path d="M82.6608 103.569C79.6621 104.219 76.9186 101.863 76.9186 98.7943V84.6801C76.9186 82.1741 78.7806 80.0811 81.2372 79.5859C90.6326 77.692 97.0419 74.0064 100.465 68.5292C104.146 62.3942 106.101 53.9573 106.329 43.2187C106.353 42.1029 107.375 41.2671 108.468 41.4903C110.552 41.9155 110.242 44.9827 108.116 44.9827H82.0956C79.6699 44.9827 77.7035 43.0163 77.7035 40.5907V-2.60449C77.7035 -5.36591 79.9421 -7.60449 82.7035 -7.60449H130C132.761 -7.60449 135 -5.36592 135 -2.60449V31.6397C135 50.4769 130.291 66.567 120.872 79.9101C112.609 91.9507 99.8718 99.8369 82.6608 103.569ZM5.74221 103.569C2.74352 104.219 0 101.863 0 98.7943V84.6801C0 82.1741 1.86196 80.0811 4.31856 79.5859C13.714 77.692 20.1233 74.0064 23.5465 68.5292C27.2275 62.3942 29.1822 53.9573 29.4105 43.2187C29.4342 42.1029 30.4564 41.2671 31.5499 41.4903C33.6334 41.9155 33.3236 44.9827 31.1972 44.9827H5.17694C2.75127 44.9827 0.784884 43.0163 0.784884 40.5907V-2.60449C0.784884 -5.36591 3.02346 -7.60449 5.78488 -7.60449H53.0814C55.8428 -7.60449 58.0814 -5.36592 58.0814 -2.60449V31.6397C58.0814 50.4769 53.3721 66.567 43.9535 79.9101C35.6903 91.9507 22.9532 99.8369 5.74221 103.569Z" fill="#E54519" fill-opacity="0.1"/>
</svg>
