<svg width="599" height="387" viewBox="0 0 599 387" fill="none" xmlns="http://www.w3.org/2000/svg">
<path d="M11.314 66.128L0.000976562 54.814L11.314 43.5L64 -9.186L0 -73.186L11.314 -84.5L75.314 -20.5L139.314 -84.5L150.627 -73.186L86.627 -9.186L139.314 43.5L203.314 -20.5L214.627 -9.186L139.314 66.128L75.314 130.128L22.6279 182.814L75.314 235.5L139.314 171.5L203.314 107.5L214.627 118.814L150.627 182.814L203.314 235.5L267.314 171.5L331.314 107.5L395.314 43.5L448 -9.186L395.314 -61.872L331.314 2.128L320.001 -9.186L395.314 -84.5L459.314 -20.5L523.314 -84.5L534.627 -73.186L459.314 2.128L406.628 54.814L459.314 107.5L523.314 43.5L534.627 54.814L470.627 118.814L523.314 171.5L598.627 246.814L587.314 258.128L523.314 194.128L470.628 246.814L523.314 299.5L598.627 374.814L587.314 386.127L523.314 322.127L459.314 258.127L448.001 246.814L459.314 235.5L512 182.814L459.314 130.128L395.314 66.128L342.628 118.814L406.628 182.814L395.314 194.128L331.314 130.128L278.628 182.814L342.628 246.814L331.314 258.128L267.314 194.128L203.314 258.128L139.314 322.128L75.314 258.128L11.314 194.128L0.000976562 182.814L11.314 171.5L64 118.814L11.314 66.128ZM139.314 299.5L192 246.814L139.314 194.128L86.6279 246.814L139.314 299.5ZM75.314 2.128L22.6279 54.814L75.314 107.5L128 54.814L75.314 2.128Z" fill="#E54519" fill-opacity="0.06"/>
</svg>
